<svg id="Layer_1" xmlns="http://www.w3.org/2000/svg" viewBox="0 0 441.7 434" enable-background="new 0 0 441.7 434"><defs><filter id="Adobe_OpacityMaskFilter" filterUnits="userSpaceOnUse" x="343.1" y="125.6" width="98.6" height="135.5"><feFlood result="back" flood-color="#fff" flood-opacity="1"/><feBlend in="SourceGraphic" in2="back"/></filter></defs><mask maskUnits="userSpaceOnUse" x="343.1" y="125.6" width="98.6" height="135.5" id="SVGID_1_"><g filter="url(#Adobe_OpacityMaskFilter)"><defs><filter id="Adobe_OpacityMaskFilter_1_" filterUnits="userSpaceOnUse" x="343.1" y="125.6" width="98.6" height="135.5"><feFlood result="back" flood-color="#fff" flood-opacity="1"/><feBlend in="SourceGraphic" in2="back"/></filter></defs><linearGradient id="SVGID_2_" gradientUnits="userSpaceOnUse" x1="351.042" y1="147.483" x2="444.028" y2="227.444"><stop offset="0" stop-color="#fff"/><stop offset="1"/></linearGradient><path mask="url(#SVGID_1_)" fill="url(#SVGID_2_)" d="M441.7 261.1l-98.6-75.6 30-59.9 68.6 55z"/></g></mask><linearGradient id="SVGID_3_" gradientUnits="userSpaceOnUse" x1="351.042" y1="147.483" x2="444.028" y2="227.444"><stop offset="0" stop-color="#010101" stop-opacity="0"/><stop offset="1"/></linearGradient><path opacity=".1" fill="url(#SVGID_3_)" d="M441.7 261.1l-98.6-75.6 30-59.9 68.6 55z"/><defs><filter id="Adobe_OpacityMaskFilter_2_" filterUnits="userSpaceOnUse" x="319.2" y="1.1" width="122.5" height="168.5"><feFlood result="back" flood-color="#fff" flood-opacity="1"/><feBlend in="SourceGraphic" in2="back"/></filter></defs><mask maskUnits="userSpaceOnUse" x="319.2" y="1.1" width="122.5" height="168.5" id="SVGID_4_"><g filter="url(#Adobe_OpacityMaskFilter_2_)"><defs><filter id="Adobe_OpacityMaskFilter_3_" filterUnits="userSpaceOnUse" x="319.2" y="1.1" width="122.5" height="168.5"><feFlood result="back" flood-color="#fff" flood-opacity="1"/><feBlend in="SourceGraphic" in2="back"/></filter></defs><linearGradient id="SVGID_5_" gradientUnits="userSpaceOnUse" x1="288.153" y1="17.232" x2="411.39" y2="123.207"><stop offset="0" stop-color="#fff"/><stop offset="1"/></linearGradient><path mask="url(#SVGID_4_)" fill="url(#SVGID_5_)" d="M419.5 169.7l-94-72-6.3-96.6L441.7 101z"/></g></mask><linearGradient id="SVGID_6_" gradientUnits="userSpaceOnUse" x1="288.153" y1="17.232" x2="411.39" y2="123.207"><stop offset="0" stop-color="#010101" stop-opacity="0"/><stop offset="1"/></linearGradient><path opacity=".1" fill="url(#SVGID_6_)" d="M419.5 169.7l-94-72-6.3-96.6L441.7 101z"/><path opacity=".23" fill="#010101" d="M362.9 80.2l-28.7 17.9c-1.6 1-3.5 1.3-5.3 1-.5-.1-1-.2-1.5-.4-1.5-.6-2.8-1.6-3.7-3.1l-40.2-64.5c-2.2-3.6-1.1-8.3 2.5-10.6l28.7-17.9c1.3-.8 2.7-1.2 4.1-1.2 2.5 0 5 1.3 6.4 3.6l40.2 64.5c2.2 3.8 1.1 8.5-2.5 10.7z"/><path fill="#333" d="M359.3 79.1L330.6 97c-1.6 1-3.5 1.3-5.3 1-.5-.1-1-.2-1.5-.4-1.5-.6-2.8-1.6-3.7-3.1L279.9 30c-2.2-3.6-1.1-8.3 2.5-10.6L311 1.5c1.3-.8 2.7-1.2 4.1-1.2 2.5 0 5 1.3 6.4 3.6l40.2 64.5c2.3 3.7 1.2 8.4-2.4 10.7z"/><path fill="#FFF" d="M310.8 1.2l-28.7 17.9c-3.8 2.3-4.9 7.3-2.6 11.1l40.2 64.5c2.3 3.8 7.3 4.9 11.1 2.6l28.7-17.9c3.8-2.3 4.9-7.3 2.6-11.1L321.9 3.8c-2.3-3.8-7.3-4.9-11.1-2.6zm50.7 67.5c2.1 3.4 1.1 7.9-2.3 10.1l-28.7 17.9c-3.4 2.1-7.9 1.1-10.1-2.3l-40.2-64.5c-2.1-3.4-1.1-7.9 2.3-10.1l28.7-17.9c3.4-2.1 7.9-1.1 10.1 2.3l40.2 64.5z"/><path transform="rotate(148.081 320.984 49.4)" fill="#FFF" d="M300.4 16.1h41.1v66.6h-41.1z"/><path fill="#010101" d="M321 88.9l35.3-22L320.9 10l-35.3 22L321 88.9zm-.2-78.3l35 56.1-34.5 21.5-35-56.1 34.5-21.5z"/><path transform="rotate(148.081 319.319 25.863)" fill="#FBB03B" d="M313.6 19.5h11.5v12.7h-11.5z"/><path transform="rotate(148.081 300.859 31.513)" opacity=".67" fill="#02B4EA" d="M291.3 30.1h19.1v2.7h-19.1z"/><path transform="rotate(148.081 303.528 35.798)" opacity=".56" fill="#B4B4B4" d="M294 34.4h19.1v2.7H294z"/><path transform="rotate(148.081 306.126 39.969)" fill="#B4B4B4" d="M296.6 38.6h19.1v2.7h-19.1z"/><path transform="rotate(148.081 316.375 42.333)" opacity=".67" fill="#02B4EA" d="M299.4 41h34v2.7h-34z"/><path transform="rotate(148.081 337.58 55.18)" opacity=".25" fill="#FBB03B" d="M331.8 48.8h11.5v12.7h-11.5z"/><path transform="rotate(148.081 319.077 60.758)" opacity=".67" fill="#02B4EA" d="M309.5 59.4h19.1v2.7h-19.1z"/><path transform="rotate(148.081 321.746 65.043)" opacity=".56" fill="#B4B4B4" d="M312.2 63.7h19.1v2.7h-19.1z"/><path transform="rotate(148.081 324.344 69.214)" fill="#B4B4B4" d="M314.8 67.8h19.1v2.7h-19.1z"/><path transform="rotate(148.081 334.24 70.4)" opacity=".48" fill="#67C9D0" d="M316.3 69.1h35.9v2.7h-35.9z"/><path transform="rotate(148.081 337.745 76.31)" fill="#02B4EA" d="M317.4 74.7h40.7v3.2h-40.7z"/><path transform="rotate(148.081 304.185 22.443)" fill="#02B4EA" d="M283.8 21.1h40.7v2.6h-40.7z"/><circle fill="#010101" cx="341.2" cy="82.2" r="3.5"/><path opacity=".48" fill="#FFF" d="M325.3 98l-1.5-.4c-1.5-.6-2.8-1.6-3.7-3.1L279.9 30c-2.2-3.6-1.1-8.3 2.5-10.6L311 1.5c1.3-.8 2.7-1.2 4.1-1.2l.2.4 10 97.3z"/><circle fill="#FBB03B" cx="331.7" cy="42.4" r="3.6"/><circle opacity=".63" fill="#FBB03B" cx="320.2" cy="49.6" r="3.6"/><circle opacity=".23" fill="#FBB03B" cx="309.3" cy="56.3" r="3.6"/><circle fill="#EFA979" cx="356.8" cy="154.2" r="34"/><path fill="#FFF" d="M376 166.8l12.3 13c1.2 1.3 1.1 3.3-.1 4.5l-1.6 1.5c-1.3 1.2-3.3 1.1-4.5-.1l-12.3-13c-1.2-1.3-1.1-3.3.1-4.5l1.6-1.5c1.3-1.3 3.3-1.2 4.5.1z"/><circle fill="#FFF" cx="356.6" cy="153.8" r="29.4"/><path fill="#7B4739" d="M369.2 172.2c-11.1 7.6-26.3 3.7-32.4-8.4-5-9.9-1.8-22.2 7.4-28.4 11.1-7.6 26.3-3.7 32.4 8.4 4.9 9.8 1.7 22.1-7.4 28.4z"/><path fill="#603A17" d="M354.5 175.9c13.5 1.2 24.8-9.6 24.3-23-.2-6.5-3.4-12.4-8.2-16.4.6 4.2.1 8.6-1.9 12.6-5.2 10.6-18 15-28.7 9.8-2.2-1.1-4.1-2.4-5.7-4 .7 10.9 9.3 20 20.2 21z"/><path opacity=".07" fill="#010101" d="M284.4 311.8L103.2 296l7.9-243.2 169.3 2z"/><path transform="rotate(1.865 190.37 173.605) scale(1.00003)" fill="#04A2CE" d="M104.3 52h172.2v243.3H104.3z"/><path opacity=".23" fill="#FFF" d="M280.4 54.8l-17 7.1-163 230.5 7.9-243.2z"/><path fill="#CCC" d="M253.7 292.3l-142.6-4.6 7.3-227.5 157 5.1-6.9 211.6z"/><path fill="#FFF" d="M250.9 289.2l-142.7-4.6 7.4-227.5 156.9 5.1-6.8 211.7z"/><path transform="rotate(1.865 195.742 56.9) scale(1.00003)" fill="#6B6662" d="M165.5 45.7h60.4v22.5h-60.4z"/><path fill="#6B6662" d="M195.7 59.3c-10.7-.3-19.1-9.3-18.8-20 .3-10.7 9.3-19.1 20-18.8 10.7.3 19.1 9.3 18.8 20-.4 10.8-9.4 19.2-20 18.8zm1.1-33.9c-8-.3-14.8 6.1-15 14.1-.3 8 6.1 14.8 14.1 15 8 .3 14.8-6.1 15-14.1.2-8-6.1-14.8-14.1-15z"/><path transform="rotate(1.865 195.772 56.033) scale(1.00003)" fill="#837C79" d="M171.6 53.3h48.3v5.5h-48.3z"/><path transform="rotate(1.865 194.765 87.016) scale(1.00003)" fill="#676767" d="M152.3 84.7h84.9v4.7h-84.9z"/><g fill="#676767"><path transform="rotate(1.865 200.343 105.005) scale(1.00003)" d="M137.3 103.1h126.1v3.9H137.3z"/><path transform="rotate(1.865 192.103 114.696) scale(1.00003)" d="M121.1 112.7H263v3.9H121.1z"/><path transform="rotate(1.865 199.735 124.903) scale(1.00003)" d="M136.7 122.9h126.1v3.9H136.7z"/><path transform="rotate(1.865 191.498 134.595) scale(1.00003)" d="M120.5 132.6h141.9v3.9H120.5z"/><path transform="rotate(1.865 199.124 144.799) scale(1.00003)" d="M136.1 142.8h126.1v3.9H136.1z"/><path transform="rotate(1.865 190.893 154.49) scale(1.00003)" d="M119.9 152.5h141.9v3.9H119.9z"/><path transform="rotate(1.865 198.512 164.697) scale(1.00003)" d="M135.4 162.7h126.1v3.9H135.4z"/><path transform="rotate(1.865 190.285 174.389) scale(1.00003)" d="M119.3 172.4h141.9v3.9H119.3z"/><path transform="rotate(1.865 197.901 184.596) scale(1.00003)" d="M134.8 182.6h126.1v3.9H134.8z"/><path transform="rotate(1.865 189.678 194.288) scale(1.00003)" d="M118.7 192.3h141.9v3.9H118.7z"/><path transform="rotate(1.865 197.29 204.494) scale(1.00003)" d="M134.2 202.5h126.1v3.9H134.2z"/><path transform="rotate(1.865 219.59 217.535) scale(1.00003)" d="M178.8 215.6h81.5v3.9h-81.5z"/></g><g fill="#676767"><path transform="rotate(1.865 148.142 247.27) scale(1.00003)" d="M122.6 245.3h51v3.9h-51z"/><path transform="rotate(1.865 144.617 257.116) scale(1.00003)" d="M115.9 255.2h57.4v3.9h-57.4z"/></g><path fill="#CCC" d="M250.9 289.2l.5-15.9 14.3.6z"/><path opacity=".21" fill="#010101" d="M235 288.7l23 2.4 9.5-7.6-.6-47.8-1.2 38.2-14.8 15.3z"/><g fill="#212121"><path d="M241.2 262.8c.5-.1 1.1-.3 1.6-.4-.3-.1-.6-.2-.8-.3-.3.2-.5.4-.8.7zM222.6 261.1c-.1.1-.2.2-.3.4 1.3-.1 2.6 0 3.8.4v-1.4c-1.3.1-2.4.3-3.5.6zM219.4 262.7c.9-.1 1.9-.4 2.5-1l.3-.3c-1.1.1-2.3.3-3.3.6.2.3.3.5.5.7z"/><path d="M222.2 261.5c.1-.1.2-.2.3-.4-1.2.3-2.5.6-3.7 1 1.1-.4 2.3-.6 3.4-.6zM204.9 259.6c.7-.4 1.2-.9 1.5-1.6-.7.1-1.4.1-2.2.2.3.5.4 1 .7 1.4zM226.7 244.1c.6 0 1.2-.1 1.8-.1.1-.9-1.7-.5-1.8.1zM209.3 259.7c.5-.4.9-1 1.3-1.6-.7.1-1.4.2-2 .3.1.5.4.9.7 1.3zM198.9 259c.6-.5 1.2-1.1 1.7-1.8h-2.2c-.1.7.1 1.3.5 1.8zM228.5 244l-2.4 8.1c-.1 2.8-.2 5.6-.1 8.4.7-.1 1.5-.2 2.2-.2-.3-5.4-.2-10.9.3-16.3z"/><path d="M210.5 257.5c-.3-.7-1.8-.1-2 .3-.3.7-.8 1-1.7.8-.1-.4-.2-.7-.4-1-.3-.7-1.9-.5-2.2.2-.8 1.8-3.7 1.3-3.7-.8 0-1.1-1.8-.6-2.2 0-3.9 5.1-12 4.6-15.6-.6-1.7-2.4-1.8-5.6-1.2-8.3.6-2.8 3.7-8.2 7.4-6.6.3.1 1.4-.3.9-.7-3.2-2.3-7.3 1.4-9 4-2.2 3.3-2.5 8.1-.6 11.6 3.6 6.8 13.3 7.2 18.7 2.5-.4-.5-.6-1.1-.6-1.8h2.2c-.5.7-1.1 1.3-1.7 1.8 1.2 1.6 4.1 1.8 6 .6-.2-.4-.4-.9-.7-1.5.7-.1 1.4-.1 2.2-.2-.3.7-.8 1.2-1.5 1.6.4.7.9 1.1 2.1 1 .9-.1 1.7-.4 2.3-1-.3-.4-.5-.8-.8-1.3.7-.1 1.4-.2 2-.3-.4.6-.8 1.2-1.3 1.6.7.9 1.7 1.5 3.1 1.4.6 0 1-.2 1.5-.5-.4-.6-.6-1.3-.9-2.2.3 3.4-2-.1-2.3-.6zM213 258.3c.7-.2 1.4-.3 2.1-.5-.2-.9-2.1-.3-2.1.5zM226 262.1c.2 0 .3 0 .5-.1-.2-.1-.3-.1-.5-.1v.2zM226.5 262c.6.2 1.2.5 1.8.8 0-.3 0-.6-.1-1-.5.1-1.1.1-1.7.2z"/><path d="M226.5 262c-.2 0-.3 0-.5.1v.5c0 .5 0 .9.1 1.4 1 .6 1.8 1.4 2.5 2.4l-.3-3.6c-.5-.3-1.2-.6-1.8-.8z"/><path d="M228.3 262.8l.3 3.6c1.3 2 2 4.5 1.6 7 .4.5.9.9 1.5 1.1-.7.3-1.4.5-2 .8.3-.6.4-1.3.5-2-.9-1.1-1.1-2.8-1.3-4.2-.1-.9-.2-1.9-.3-2.8-.7-1-1.5-1.8-2.5-2.4.1 2.5.2 5 .7 7.4.4 2.1 1.4 3.8 3.4 4.6.5.2 1.7 0 2-.6 1.7-3.8 1-8.2-2-11.1-.6-.5-1.2-1-1.9-1.4zM228.2 260.3c-.7 0-1.5.1-2.2.2v1.4c.2 0 .3.1.5.1.6-.1 1.2-.1 1.8-.1v-.6c-.1-.4-.1-.7-.1-1z"/><path d="M230.2 273.4c-.1.7-.3 1.3-.5 2 .7-.3 1.4-.5 2-.8-.7-.3-1.2-.7-1.5-1.2zM228.2 260.3v1.6c4.4-.2 8.9.4 13.2 1.9.5.2 1.7-.3 2.1-.7 2-2.1-10.7-3.1-15.3-2.8zM219.1 261.6c-2.5.2-3.7-1.6-4-3.8.1 1.1-.4 2.1-1.2 2.7.6 1 1.6 1.7 3 2.1.4.1.8.2 1.2.2 0-.2.2-.5.8-.7 1.2-.4 2.4-.7 3.7-1 1.5-1.7 2.1-4.1 2.8-6.3.3-.9.5-1.8.8-2.7.1-2.7.3-5.3.6-8l-3.9 12.9c-.7 1.9-1.5 4.4-3.8 4.6z"/><path d="M226.1 252.1l2.4-8.1c-.6 0-1.2.1-1.8.1-.3 2.7-.5 5.3-.6 8zM213 258.3c.2.9.5 1.6.9 2.2.9-.6 1.4-1.6 1.2-2.7-.7.2-1.4.3-2.1.5zM218.1 262.8h1.3c-.2-.2-.3-.4-.5-.7-.6.2-.8.4-.8.7zM226 262.1c-2.1.3-4.1.7-6.1 1.3 2.4-.8 4.5-.4 6.2.6 0-.5 0-.9-.1-1.4v-.5z"/><path d="M218.1 262.8c.1.5 1 .9 1.8.6-.2-.2-.3-.4-.5-.7-.4.1-.9.1-1.3.1z"/><path d="M222.2 261.5l-.3.3c-.7.6-1.6.9-2.5 1 .2.2.3.4.5.7 2-.7 4.1-1.1 6.1-1.3v-.2c-1.2-.5-2.5-.6-3.8-.5z"/></g><path fill="#212121" d="M233.4 255.4c-.8.6-1.7 1.3-2.3 2.2-.1.2 0 .3.2.3.3.1.6 0 .8-.2.8-.6 1.3-1.4 1.8-2.2.1-.3-.4-.2-.5-.1z"/><path opacity=".48" fill="#FFF" d="M164.1 74.5l2.4-19.8 56.3.1-58-1.9z"/><path opacity=".48" fill="#FFF" d="M170.3 65.7l1.2-4.4 45.2.6-46.3-1.5z"/><g><path fill="#838BC5" d="M291 376.4l-2.6-1.2c-2.2-1-3.2-3.6-2.2-5.8l9.9-22.3c1-2.2 3.6-3.2 5.8-2.2l2.6 1.2c2.2 1 3.2 3.6 2.2 5.8l-9.9 22.3c-1 2.2-3.6 3.2-5.8 2.2zm10-29.7c-1.2-.5-2.6 0-3.1 1.2l-9.9 22.3c-.5 1.2 0 2.6 1.2 3.1l2.6 1.2c1.2.5 2.6 0 3.1-1.2l9.9-22.3c.5-1.2 0-2.6-1.2-3.1l-2.6-1.2z"/><path fill="#838BC5" d="M303.2 366l-1.9-.8 9.5-21.5c.5-1.1-.4-2.7-2-3.4l-3.4-1.5c-1.6-.7-3.3-.3-3.9.8l-9.5 21.5-1.9-.8 9.5-21.5c1-2.2 3.9-3 6.5-1.9l3.4 1.5c2.6 1.2 4 3.9 3 6.1l-9.3 21.5z"/></g><g><path fill="#BA9BC9" d="M342.6 378.1l-2.2.6c-1.9.5-3.9-.6-4.4-2.5l-5.2-19.2c-.5-1.9.6-3.9 2.5-4.4l2.2-.6c1.9-.5 3.9.6 4.4 2.5l5.2 19.2c.5 1.9-.6 3.9-2.5 4.4zm-9-24c-1 .3-1.6 1.3-1.4 2.4l5.2 19.2c.3 1 1.3 1.6 2.4 1.4l2.2-.6c1-.3 1.6-1.3 1.4-2.4l-5.2-19.2c-.3-1-1.3-1.6-2.4-1.4l-2.2.6z"/><path fill="#BA9BC9" d="M344.9 365.2l-1.6.4-5.1-18.5c-.3-1-1.6-1.5-3-1.1l-2.9.8c-1.4.4-2.3 1.5-2 2.5l5.1 18.5-1.6.4-5.1-18.5c-.5-1.9.9-3.9 3.2-4.6l2.9-.8c2.3-.6 4.5.4 5.1 2.3l5 18.6z"/></g><defs><filter id="Adobe_OpacityMaskFilter_4_" filterUnits="userSpaceOnUse" x="37.6" y="235.1" width="264" height="198.8"><feFlood result="back" flood-color="#fff" flood-opacity="1"/><feBlend in="SourceGraphic" in2="back"/></filter></defs><mask maskUnits="userSpaceOnUse" x="37.6" y="235.1" width="264" height="198.8" id="SVGID_7_"><g filter="url(#Adobe_OpacityMaskFilter_4_)"><defs><filter id="Adobe_OpacityMaskFilter_5_" filterUnits="userSpaceOnUse" x="37.6" y="235.1" width="264" height="198.8"><feFlood result="back" flood-color="#fff" flood-opacity="1"/><feBlend in="SourceGraphic" in2="back"/></filter></defs><linearGradient id="SVGID_8_" gradientUnits="userSpaceOnUse" x1="21.127" y1="293.912" x2="219.069" y2="464.126"><stop offset="0" stop-color="#fff"/><stop offset="1"/></linearGradient><path mask="url(#SVGID_7_)" fill="url(#SVGID_8_)" d="M59 258L37.6 434h264L99.2 235.1l-5.8 18.4-12.9-14.4-8.6 30.4z"/></g></mask><path opacity=".1" fill="#3A3A3A" d="M59 258L37.6 434h264L99.2 235.1l-5.8 18.4-12.9-14.4-8.6 30.4z"/><defs><filter id="Adobe_OpacityMaskFilter_6_" filterUnits="userSpaceOnUse" x="238.9" y="254.7" width="202.8" height="179.3"><feFlood result="back" flood-color="#fff" flood-opacity="1"/><feBlend in="SourceGraphic" in2="back"/></filter></defs><mask maskUnits="userSpaceOnUse" x="238.9" y="254.7" width="202.8" height="179.3" id="SVGID_9_"><g filter="url(#Adobe_OpacityMaskFilter_6_)"><defs><filter id="Adobe_OpacityMaskFilter_7_" filterUnits="userSpaceOnUse" x="238.9" y="254.7" width="202.8" height="179.3"><feFlood result="back" flood-color="#fff" flood-opacity="1"/><feBlend in="SourceGraphic" in2="back"/></filter></defs><linearGradient id="SVGID_10_" gradientUnits="userSpaceOnUse" x1="253.064" y1="238.218" x2="429.299" y2="389.767"><stop offset="0" stop-color="#fff"/><stop offset="1"/></linearGradient><path mask="url(#SVGID_9_)" fill="url(#SVGID_10_)" d="M238.9 261.9l23.6 12.4s2.5 19.4 14.6 27.1c12.1 7.7 24.9 20.4 38 22.5 13.1 2.1 26.3 17.6 26.3 17.6l-3.1 5.5 103.4 87v-62.4L322.1 254.7l-83.2 7.2z"/></g></mask><linearGradient id="SVGID_11_" gradientUnits="userSpaceOnUse" x1="253.064" y1="238.218" x2="429.299" y2="389.767"><stop offset="0" stop-color="#010101" stop-opacity="0"/><stop offset="1"/></linearGradient><path opacity=".1" fill="url(#SVGID_11_)" d="M238.9 261.9l23.6 12.4s2.5 19.4 14.6 27.1c12.1 7.7 24.9 20.4 38 22.5 13.1 2.1 26.3 17.6 26.3 17.6l-3.1 5.5 103.4 87v-62.4L322.1 254.7l-83.2 7.2z"/><path fill="#FBBA87" d="M121.1 311.3s-.7 1.4-1.9 3.7c-.3.5-.6 1.1-.9 1.7-5.1 9.9-15.7 30.2-19.7 35.9-5.3 7.7-13.9 17.6-22 13.8l.2-.2h-.1l-.1.2-3.4 12.8-.4 1.6-38.4-10.2 2-7.5 1.9-7.2c-5.3-2.7-7.3-8.8-5.7-14.9l8.8-39.7c0-.2.1-.3.1-.5l10.3-38.9c.7-2.6 2.9-4.3 5.5-4.4.6 0 1.2 0 1.8.2 3.2.8 5 4.1 4.2 7.2L58 291.4h.1v-.1l14.3-47.9c.9-3.4 4.5-5.5 7.9-4.6h.2c3.4.9 5.5 4.5 4.6 7.9l-10.3 48.1.2.1 16.4-55.5c.9-3.4 4.4-5.4 7.8-4.5s5.4 4.4 4.5 7.8l-13 55.4.5.1 12.4-41.2c.9-3.4 4.5-5.5 7.9-4.6h.2c3.4.9 5.5 4.5 4.6 7.9l-14.9 56.3-1.2 4.3-.4 1.6 9.7-17.8c1.7-3.1 5.6-4.3 8.8-2.6l.2.1c1.3.7 2.3 1.8 2.8 3.1.8 2.1.7 4.2-.2 6z"/><path fill="#1A1A1A" d="M27.9 379.5l3.3-12.8 45.7 13.8-2.5 10.9z"/><path fill="#564291" d="M10.1 395.6L0 434h76.3l5.2-19.5z"/><path transform="scale(-1) rotate(14.821 3035.102 -368.418)" fill="#FFF" d="M18 384.3h59.9v21H18z"/><path fill="#564291" d="M441.7 312.1v86l-63.2-47.4 4.4-5.9 29.6-39.8 3-4 1.9-2.5 3.6-4.9z"/><path fill="#FFF" d="M417.4 298.5l-1.9 2.5-3 4-29.6 39.8-16.2-12.1 6.4-8.7 21.8-29.2 1.8-2.4 1.4-1.9 3-4.1z"/><path fill="#FBBA87" d="M398.1 290.5l-1.4 1.9-1.8 2.5-21.8 29.1-25.7-22.6c-13.4 4.5-27.5 2-37.9-5.1-10.4-7.1-17.4-14.7-25.1-16.5-4.2-1-9.5-2.6-13-5.8-1.1-1-2.1-2.3-2.7-3.7-1.1-2.3-1.4-5.1-.5-8.5 2-8 6.8-7.7 10.1-7.6 1.7.1 2.9.1 3.2-1.1 2.2-12.2-27.5 13.3-16.1-6.9 6.5-11.5 8.7-23.7 19.1-25.3 23.9-3.6 33.1 2.3 41.4 2.5 4.1.1 13.4 8.5 23.3 18.5 12.6 12.9 26 28.5 29.8 32.7 6.8 7.4 19.1 15.9 19.1 15.9z"/><path fill="#EEAC7F" d="M277.8 249.9s6.7-7.5 12.8-10.7c6.1-3.2 27.3 3.8 27.3 3.8l-40.1 6.9zM285.3 255.9s12.2 5.8 19 6.3c6.8.6 20.5-15.8 20.5-15.8l-39.5 9.5z"/><circle fill="#1A1A1A" cx="44.2" cy="376.9" r="14.2"/><circle fill="#FFF" cx="44" cy="376.9" r="12.3"/><path transform="rotate(13.674 47.409 362.513)" fill="#1A1A1A" d="M46.3 361.7h2.2v1.7h-2.2z"/><path fill="#1A1A1A" d="M50.9 369.4l-8 8 1.3.6z"/><circle fill="#456AB3" cx="71.9" cy="402.8" r="2.2"/><circle fill="#456AB3" cx="378" cy="334.2" r="2.2"/><circle fill="#FEDDC7" cx="97.7" cy="241.3" r="4.2"/><circle fill="#FEDDC7" cx="110" cy="258.9" r="4.2"/><path fill="#FEDDC7" d="M121.1 311.3s-.7 1.4-1.9 3.7c-.6-.1-1.1-.3-1.7-.6-2.1-1-3.5-2.5-2.2-5.4 1.3-2.7 4-4.2 6.1-3.4.7 1.8.6 3.9-.3 5.7z"/><circle fill="#FEDDC7" cx="78.3" cy="245.6" r="4.2"/><circle fill="#FEDDC7" cx="57.3" cy="264" r="3.4"/><g><path fill="#1A1A1A" d="M369.1 228.6c17.4-3.5 27.7-5.1 33.9-5.5.7 0 1.4-.1 2-.1 2 0 3.5.1 4.5.4 2.1.6 2.6 1.7 2.9 3 .3 1.3.2 2.4-1.6 3.6-.9.6-2.2 1.3-4 2-.6.2-1.2.4-1.9.7-5.9 2-16.3 4.5-34.1 8.1-6.8 1.4-17.7 3.6-21.3 4.3-1.5.3-3.2.6-5.7 1.1l-.1-.4c-34.4 6.5-66.2 13.1-81.9 15-15.6 2-23 .9-23 .9s5.5-4 21.4-8.6c14.7-4.3 46.1-10.5 81.2-18.2l-.1-.4c2.4-.5 4.2-.9 5.7-1.2 3.9-1 14.9-3.3 22.1-4.7z"/><path fill="#FEF59F" d="M260.3 253.1l1.6 7.8c-15.6 2-23 .9-23 .9s5.5-4.1 21.4-8.7zM347.1 233.2l2.4 11.9c-1.5.3-3.2.6-5.7 1.1l-2.4-11.8c2.4-.5 4.2-.9 5.7-1.2zM409.5 223.4c2.1.6 2.6 1.7 2.9 3 .3 1.3.2 2.4-1.6 3.6l-1.3-6.6zM403 223.1c.7 0 1.4-.1 2-.1l1.8 9c-.6.2-1.2.4-1.9.7l-1.9-9.6z"/><path transform="scale(-1) rotate(78.504 272.136 -493.71)" fill="#FEF59F" d="M398.6 221.8h9.5v1.1h-9.5z"/><path transform="scale(-1) rotate(78.504 274.748 -459.265)" fill="#FEF59F" d="M373.7 195.9h3V253h-3z"/></g><path fill="#FCC498" d="M296.8 279.1c-.5.2-1 .4-1.6.5-6.2 1.6-17.6-.8-23.7-5.7-2.2-1.8-4-3.8-5.2-5.9-2.5-4.3-2.7-8.9.8-12.2 2.9-2.9 6.1-3.1 11.3-1.7 2.7.7 5.9 1.8 9.8 3.2 16.5 5.6 14.3 19.2 8.6 21.8z"/><path fill="#FEDDC7" d="M267.6 258.2c-3.3 4.7-1.5 8.6 1.5 9.9 2.2.9 3.2-4 5.9-6.9 5.8-6.3-2.1-10.5-7.4-3z"/><path opacity=".24" fill="#FFF" d="M57.3 257.8s-3.9 1.7-5 7.3c-1 5.6-15.7 75.4-16.2 80.2-.4 4.8 5.5 9.6 5.5 9.6l-5.3 8.4 1.9-7.2c-5.3-2.7-7.3-8.8-5.7-14.9l8.8-39.7c0-.2.1-.3.1-.5l10.3-38.9c.8-2.5 3-4.2 5.6-4.3zM50.9 406.4l-40.8-10.8L0 434h21l6.9-31.2zM80.5 239.1s-6 .5-7.5 5.8c-1.5 5.1-14.1 44.2-14.9 46.7l14.3-47.9c.9-3.4 4.5-5.5 7.9-4.6h.2z"/><path opacity=".14" fill="#010101" d="M79.5 392.3l-18.9-5-6.7 19.9 12.8 3.4-6.2 23.4h15.8l5.2-19.5-7.3-1.9z"/><path opacity=".14" fill="#010101" d="M16.3 397.3L75.1 409l-.9 3.6z"/><path opacity=".05" fill="#010101" d="M118.2 316.8c-5.1 9.9-15.7 30.2-19.7 35.9-5.3 7.7-13.9 17.6-22 13.8l-3.4 12.8-3.4-1 4.3-14.6s10.2 1.5 16.9-5.5c6.6-6.8 26.7-40.3 27.3-41.4z"/><path opacity=".1" fill="#010101" d="M441.7 312.1v14.7L415.5 301l-3 4-15.8-12.6-1.8 2.5s-18.1-16-21.5-19.5c-3.3-3.6-19.5-23.4-23.9-25.5-4.4-2.1-33.9 0-33.9 0l33.5-8.1c12.6 12.9 26 28.5 29.8 32.7 6.9 7.5 19.1 16 19.1 16l3.1-4.1 16.2 12.1 3.7-4.9 20.7 18.5z"/><path opacity=".1" fill="#010101" d="M373.1 324l20.6-36.6 4.4 3.1zM382.9 344.8L414 296l3.4 2.5z"/><path opacity=".34" fill="#FFF" d="M373.1 324l-25.7-22.6c-13.4 4.5-27.5 2-37.9-5.1-10.4-7.1-17.4-14.7-25.1-16.5-4.2-1-9.5-2.6-13-5.8-2.2-1.8-4-3.8-5.2-5.9.5.5 1.4 1.3 2.5 2.2 2.9 2.3 7.4 5.5 11.6 5.9 6.8.6 11.4-1.9 11.4-1.9s.7 2.1 3.5 5.5c1.1 1.4 2.6 3 4.6 4.7 6.8 6.1 15 12 23 14.3 8 2.3 23.8-.3 24.1 0 .4.1 25.4 24.4 26.2 25.2z"/></svg>