<svg id="Layer_1" xmlns="http://www.w3.org/2000/svg" viewBox="0 0 625.2 575.2" enable-background="new 0 0 625.2 575.2"><ellipse opacity=".28" fill="#FFF" cx="318.3" cy="324.4" rx="318.3" ry="233.4"/><defs><filter id="Adobe_OpacityMaskFilter" filterUnits="userSpaceOnUse" x="526.6" y="266.8" width="98.6" height="135.5"><feFlood result="back" flood-color="#fff" flood-opacity="1"/><feBlend in="SourceGraphic" in2="back"/></filter></defs><mask maskUnits="userSpaceOnUse" x="526.6" y="266.8" width="98.6" height="135.5" id="SVGID_1_"><g filter="url(#Adobe_OpacityMaskFilter)"><defs><filter id="Adobe_OpacityMaskFilter_1_" filterUnits="userSpaceOnUse" x="526.6" y="266.8" width="98.6" height="135.5"><feFlood result="back" flood-color="#fff" flood-opacity="1"/><feBlend in="SourceGraphic" in2="back"/></filter></defs><linearGradient id="SVGID_2_" gradientUnits="userSpaceOnUse" x1="534.515" y1="288.678" x2="627.502" y2="368.64"><stop offset="0" stop-color="#fff"/><stop offset="1"/></linearGradient><path mask="url(#SVGID_1_)" fill="url(#SVGID_2_)" d="M625.2 402.3l-98.6-75.6 30-59.9 68.6 55z"/></g></mask><linearGradient id="SVGID_3_" gradientUnits="userSpaceOnUse" x1="534.515" y1="288.678" x2="627.502" y2="368.64"><stop offset="0" stop-color="#010101"/><stop offset="1"/></linearGradient><path opacity=".1" fill="url(#SVGID_3_)" d="M625.2 402.3l-98.6-75.6 30-59.9 68.6 55z"/><defs><filter id="Adobe_OpacityMaskFilter_2_" filterUnits="userSpaceOnUse" x="502.6" y="142.3" width="122.5" height="168.5"><feFlood result="back" flood-color="#fff" flood-opacity="1"/><feBlend in="SourceGraphic" in2="back"/></filter></defs><mask maskUnits="userSpaceOnUse" x="502.6" y="142.3" width="122.5" height="168.5" id="SVGID_4_"><g filter="url(#Adobe_OpacityMaskFilter_2_)"><defs><filter id="Adobe_OpacityMaskFilter_3_" filterUnits="userSpaceOnUse" x="502.6" y="142.3" width="122.5" height="168.5"><feFlood result="back" flood-color="#fff" flood-opacity="1"/><feBlend in="SourceGraphic" in2="back"/></filter></defs><linearGradient id="SVGID_5_" gradientUnits="userSpaceOnUse" x1="471.626" y1="158.427" x2="594.864" y2="264.402"><stop offset="0" stop-color="#fff"/><stop offset="1"/></linearGradient><path mask="url(#SVGID_4_)" fill="url(#SVGID_5_)" d="M603 310.9l-94-72-6.4-96.6 122.6 99.9z"/></g></mask><linearGradient id="SVGID_6_" gradientUnits="userSpaceOnUse" x1="471.626" y1="158.427" x2="594.864" y2="264.402"><stop offset="0" stop-color="#010101"/><stop offset="1"/></linearGradient><path opacity=".1" fill="url(#SVGID_6_)" d="M603 310.9l-94-72-6.4-96.6 122.6 99.9z"/><path opacity=".23" fill="#010101" d="M546.4 221.4l-28.7 17.9c-1.6 1-3.5 1.3-5.3 1-.5-.1-1-.2-1.5-.4-1.5-.6-2.8-1.6-3.7-3.1L467 172.3c-2.2-3.6-1.1-8.3 2.5-10.6l28.7-17.9c1.3-.8 2.7-1.2 4.1-1.2 2.5 0 5 1.3 6.4 3.6l40.2 64.5c2.1 3.7 1 8.5-2.5 10.7z"/><path fill="#333" d="M542.8 220.3l-28.7 17.9c-1.6 1-3.5 1.3-5.3 1-.5-.1-1-.2-1.5-.4-1.5-.6-2.8-1.6-3.7-3.1l-40.2-64.5c-2.2-3.6-1.1-8.3 2.5-10.6l28.7-17.9c1.3-.8 2.7-1.2 4.1-1.2 2.5 0 5 1.3 6.4 3.6l40.2 64.5c2.2 3.7 1.1 8.4-2.5 10.7z"/><path fill="#FFF" d="M494.3 142.4l-28.7 17.9c-3.8 2.3-4.9 7.3-2.6 11.1l40.2 64.5c2.3 3.8 7.3 4.9 11.1 2.6l28.7-17.9c3.8-2.3 4.9-7.3 2.6-11.1L505.4 145c-2.3-3.8-7.3-4.9-11.1-2.6zm50.6 67.5c2.1 3.4 1.1 7.9-2.3 10.1l-28.7 17.9c-3.4 2.1-7.9 1.1-10.1-2.3L463.7 171c-2.1-3.4-1.1-7.9 2.3-10.1l28.7-17.9c3.4-2.1 7.9-1.1 10.1 2.3l40.1 64.6z"/><path transform="rotate(148.081 504.46 190.592)" fill="#FFF" d="M483.9 157.3H525v66.6h-41.1z"/><path fill="#010101" d="M504.5 230l35.3-22-35.4-56.9-35.3 22 35.4 56.9zm-.3-78.2l35 56.1-34.5 21.5-35-56.1 34.5-21.5z"/><path transform="rotate(148.081 502.795 167.056)" fill="#FBB03B" d="M497 160.7h11.5v12.7H497z"/><path transform="rotate(148.081 484.334 172.706)" opacity=".67" fill="#02B4EA" d="M474.8 171.3h19.1v2.7h-19.1z"/><path transform="rotate(148.081 487.004 176.991)" opacity=".56" fill="#B4B4B4" d="M477.4 175.6h19.1v2.7h-19.1z"/><path transform="rotate(148.081 489.602 181.161)" fill="#B4B4B4" d="M480 179.8h19.1v2.7H480z"/><path transform="rotate(148.081 499.851 183.526)" opacity=".67" fill="#02B4EA" d="M482.8 182.2h34v2.7h-34z"/><path transform="rotate(148.081 521.057 196.372)" opacity=".25" fill="#FBB03B" d="M515.3 190h11.5v12.7h-11.5z"/><path transform="rotate(148.081 502.552 201.95)" opacity=".67" fill="#02B4EA" d="M493 200.6h19.1v2.7H493z"/><path transform="rotate(148.081 505.222 206.236)" opacity=".56" fill="#B4B4B4" d="M495.7 204.9h19.1v2.7h-19.1z"/><path transform="rotate(148.081 507.82 210.406)" fill="#B4B4B4" d="M498.3 209h19.1v2.7h-19.1z"/><path transform="rotate(148.081 517.715 211.593)" opacity=".48" fill="#67C9D0" d="M499.8 210.3h35.9v2.7h-35.9z"/><path transform="rotate(148.081 521.22 217.503)" fill="#02B4EA" d="M500.9 215.9h40.7v3.2h-40.7z"/><path transform="rotate(148.081 487.66 163.636)" fill="#02B4EA" d="M467.3 162.3H508v2.6h-40.7z"/><circle fill="#010101" cx="524.7" cy="223.4" r="3.5"/><path opacity=".48" fill="#FFF" d="M508.8 239.2l-1.5-.4c-1.5-.6-2.8-1.6-3.7-3.1l-40.2-64.5c-2.2-3.6-1.1-8.3 2.5-10.6l28.7-17.9c1.3-.8 2.7-1.2 4.1-1.2l.2.4 9.9 97.3z"/><circle fill="#FBB03B" cx="515.1" cy="183.6" r="3.6"/><circle opacity=".63" fill="#FBB03B" cx="503.7" cy="190.8" r="3.6"/><circle opacity=".23" fill="#FBB03B" cx="492.7" cy="197.5" r="3.6"/><circle fill="#EFA979" cx="540.3" cy="295.4" r="34"/><path fill="#FFF" d="M559.5 308l12.3 13c1.2 1.3 1.1 3.3-.1 4.5l-1.6 1.5c-1.3 1.2-3.3 1.1-4.5-.1l-12.3-13c-1.2-1.3-1.1-3.3.1-4.5l1.6-1.5c1.3-1.3 3.3-1.2 4.5.1z"/><circle fill="#FFF" cx="540.1" cy="295" r="29.4"/><path fill="#7B4739" d="M552.6 313.3c-11.1 7.6-26.3 3.7-32.4-8.4-5-9.9-1.8-22.2 7.4-28.4 11.1-7.6 26.3-3.7 32.4 8.4 5 9.9 1.8 22.2-7.4 28.4z"/><path fill="#603A17" d="M538 317.1c13.5 1.2 24.8-9.6 24.3-23-.2-6.5-3.4-12.4-8.2-16.4.6 4.2.1 8.6-1.9 12.6-5.2 10.6-18 15-28.7 9.8-2.2-1.1-4.1-2.4-5.7-4 .6 10.9 9.3 20 20.2 21z"/><path opacity=".13" fill="#FFF" d="M249.9 111.8l-59.2 115.4 46.1-119.4z"/><path opacity=".07" fill="#010101" d="M467.9 453l-181.2-15.9 7.9-243.1 169.2 2z"/><path transform="rotate(1.865 373.857 314.793) scale(1.00003)" fill="#04A2CE" d="M287.7 193.2h172.2v243.3H287.7z"/><path opacity=".23" fill="#FFF" d="M463.8 196l-16.9 7.1-163.1 230.5 7.9-243.2z"/><path fill="#CCC" d="M437.2 433.5l-142.7-4.7 7.4-227.4 157 5.1-6.9 211.6z"/><path fill="#FFF" d="M434.3 430.4l-142.6-4.6 7.4-227.5 156.9 5.1-6.9 211.7z"/><path transform="rotate(1.865 379.23 198.089) scale(1.00003)" fill="#6B6662" d="M349 186.9h60.4v22.5H349z"/><path fill="#6B6662" d="M379.1 200.5c-10.7-.3-19.1-9.3-18.8-20 .3-10.7 9.3-19.1 20-18.8 10.7.3 19.1 9.3 18.8 20-.3 10.7-9.3 19.2-20 18.8zm1.1-33.9c-8-.3-14.8 6.1-15 14.1-.3 8 6.1 14.8 14.1 15 8 .3 14.8-6.1 15-14.1.3-8-6-14.8-14.1-15z"/><path transform="rotate(1.865 379.26 197.221) scale(1.00003)" fill="#837C79" d="M355.1 194.5h48.3v5.5h-48.3z"/><path transform="rotate(1.865 378.253 228.205) scale(1.00003)" fill="#676767" d="M335.8 225.9h84.9v4.7h-84.9z"/><g fill="#676767"><path transform="rotate(1.865 383.83 246.193) scale(1.00003)" d="M320.8 244.2h126.1v3.9H320.8z"/><path transform="rotate(1.865 375.592 255.885) scale(1.00003)" d="M304.6 253.9h141.9v3.9H304.6z"/><path transform="rotate(1.865 383.22 266.091) scale(1.00003)" d="M320.1 264.1h126.1v3.9H320.1z"/><path transform="rotate(1.865 374.984 275.784) scale(1.00003)" d="M304 273.8h141.9v3.9H304z"/><path transform="rotate(1.865 382.612 285.99) scale(1.00003)" d="M319.5 284h126.1v3.9H319.5z"/><path transform="rotate(1.865 374.379 295.68) scale(1.00003)" d="M303.4 293.7h141.9v3.9H303.4z"/><path transform="rotate(1.865 382 305.885) scale(1.00003)" d="M318.9 303.9H445v3.9H318.9z"/><path transform="rotate(1.865 373.774 315.578) scale(1.00003)" d="M302.8 313.6h141.9v3.9H302.8z"/><path transform="rotate(1.865 381.39 325.784) scale(1.00003)" d="M318.3 323.8h126.1v3.9H318.3z"/><path transform="rotate(1.865 373.165 335.476) scale(1.00003)" d="M302.2 333.5h141.9v3.9H302.2z"/><path transform="rotate(1.865 380.778 345.682) scale(1.00003)" d="M317.7 343.7h126.1v3.9H317.7z"/><path transform="rotate(1.865 403.08 358.721) scale(1.00003)" d="M362.3 356.8h81.5v3.9h-81.5z"/></g><g fill="#676767"><path transform="rotate(1.865 331.63 388.46) scale(1.00003)" d="M306.1 386.5h51v3.9h-51z"/><path transform="rotate(1.865 328.106 398.304) scale(1.00003)" d="M299.4 396.4h57.4v3.9h-57.4z"/></g><path fill="#CCC" d="M434.3 430.4l.6-15.9 14.2.6z"/><path opacity=".21" fill="#010101" d="M418.5 429.9l22.9 2.4 9.6-7.6-.6-47.8-1.3 38.2-14.8 15.3z"/><g fill="#212121"><path d="M424.7 404c.5-.1 1.1-.3 1.6-.4-.3-.1-.6-.2-.8-.3-.3.2-.6.4-.8.7zM406 402.3c-.1.1-.2.2-.3.4 1.3-.1 2.6 0 3.8.4v-1.4c-1.2.1-2.3.3-3.5.6zM402.9 403.9c.9-.1 1.9-.4 2.5-1l.3-.3c-1.1.1-2.3.3-3.3.6.1.3.3.5.5.7z"/><path d="M405.7 402.6c.1-.1.2-.2.3-.4-1.2.3-2.5.6-3.7 1 1.1-.3 2.2-.5 3.4-.6zM388.4 400.8c.7-.4 1.2-.9 1.5-1.6-.7.1-1.4.1-2.2.2.2.5.4 1 .7 1.4zM410.1 385.3c.6 0 1.2-.1 1.8-.1.1-.9-1.6-.5-1.8.1zM392.7 400.9c.5-.4.9-1 1.3-1.6-.7.1-1.4.2-2 .3.2.5.4.9.7 1.3zM382.3 400.2c.6-.5 1.2-1.1 1.7-1.8h-2.2c0 .7.2 1.3.5 1.8zM412 385.2l-2.4 8.1c-.1 2.8-.2 5.6-.1 8.4.7-.1 1.5-.2 2.2-.2-.3-5.5-.2-10.9.3-16.3z"/><path d="M394 398.7c-.3-.7-1.8-.1-2 .3-.3.7-.8 1-1.7.8-.1-.4-.2-.7-.4-1-.3-.7-1.9-.5-2.2.2-.8 1.8-3.7 1.3-3.7-.8 0-1.1-1.8-.6-2.2 0-3.9 5.1-12 4.6-15.6-.6-1.7-2.4-1.8-5.6-1.2-8.3.6-2.8 3.7-8.2 7.4-6.6.3.1 1.4-.3.9-.7-3.2-2.3-7.3 1.4-9 4-2.2 3.3-2.5 8.1-.6 11.6 3.6 6.8 13.3 7.2 18.7 2.5-.4-.5-.6-1.1-.6-1.8h2.2c-.5.7-1.1 1.3-1.7 1.8 1.2 1.6 4.1 1.8 6 .6-.2-.4-.4-.9-.7-1.5.7-.1 1.4-.1 2.2-.2-.3.7-.8 1.2-1.5 1.6.4.7.9 1.1 2.1 1 .9-.1 1.7-.4 2.3-1-.3-.4-.5-.8-.8-1.3.7-.1 1.4-.2 2-.3-.4.6-.8 1.2-1.3 1.6.7.9 1.7 1.5 3.1 1.4.6 0 1-.2 1.5-.5-.4-.6-.6-1.3-.9-2.2.2 3.4-2.1-.1-2.3-.6zM396.5 399.5c.7-.2 1.4-.3 2.1-.5-.2-.9-2.2-.4-2.1.5zM409.5 403.2c.2 0 .3 0 .5-.1-.2-.1-.3-.1-.5-.1v.2zM410 403.2c.6.2 1.2.5 1.8.8 0-.3 0-.6-.1-1-.5.1-1.1.1-1.7.2z"/><path d="M410 403.2c-.2 0-.3 0-.5.1v.5c0 .5 0 .9.1 1.4 1 .6 1.8 1.4 2.5 2.4l-.3-3.6c-.6-.3-1.2-.6-1.8-.8z"/><path d="M411.8 404l.3 3.6c1.3 2 2 4.5 1.6 7 .4.5.9.9 1.5 1.1-.7.3-1.4.5-2 .8.3-.6.4-1.3.5-2-.9-1.1-1.1-2.8-1.3-4.2-.1-.9-.2-1.9-.3-2.8-.7-1-1.5-1.8-2.5-2.4.1 2.5.2 5 .7 7.4.4 2.1 1.4 3.8 3.4 4.6.5.2 1.7 0 2-.6 1.7-3.8 1-8.2-2-11.1-.7-.6-1.3-1-1.9-1.4zM411.7 401.5c-.7 0-1.5.1-2.2.2v1.4c.2 0 .3.1.5.1.6-.1 1.2-.1 1.8-.1v-.6c-.1-.4-.1-.7-.1-1z"/><path d="M413.6 414.6c-.1.7-.3 1.3-.5 2 .7-.3 1.4-.5 2-.8-.6-.3-1.1-.7-1.5-1.2zM411.7 401.5v1.6c4.4-.2 8.9.4 13.2 1.9.5.2 1.7-.3 2.1-.7 2-2.1-10.7-3.1-15.3-2.8zM402.6 402.8c-2.5.2-3.7-1.6-4-3.8.1 1.1-.4 2.1-1.2 2.7.6 1 1.6 1.7 3 2.1.4.1.8.2 1.2.2 0-.2.2-.5.8-.7 1.2-.4 2.4-.7 3.7-1 1.5-1.7 2.1-4.1 2.8-6.3.3-.9.5-1.8.8-2.7.1-2.7.3-5.3.6-8l-3.9 12.9c-.7 1.9-1.6 4.4-3.8 4.6z"/><path d="M409.6 393.3l2.4-8.1c-.6 0-1.2.1-1.8.1-.3 2.7-.5 5.3-.6 8zM396.5 399.5c.2.9.5 1.6.9 2.2.9-.6 1.4-1.6 1.2-2.7-.7.2-1.4.3-2.1.5zM401.6 404h1.3c-.2-.2-.3-.4-.5-.7-.6.2-.8.4-.8.7zM409.5 403.2c-2.1.3-4.1.7-6.1 1.3 2.4-.8 4.5-.4 6.2.6 0-.5 0-.9-.1-1.4v-.5z"/><path d="M401.6 404c.1.5 1 .9 1.8.6-.2-.2-.3-.4-.5-.7-.5.1-.9.1-1.3.1z"/><path d="M405.7 402.6l-.3.3c-.7.6-1.6.9-2.5 1 .2.2.3.4.5.7 2-.7 4.1-1.1 6.1-1.3v-.2c-1.2-.4-2.5-.5-3.8-.5z"/></g><path fill="#212121" d="M416.8 396.6c-.8.6-1.7 1.3-2.3 2.2-.1.2 0 .3.2.3.3.1.6 0 .8-.2.8-.6 1.3-1.4 1.8-2.2.2-.3-.4-.2-.5-.1z"/><path opacity=".48" fill="#FFF" d="M347.6 215.7l2.3-19.8 56.4.1-58-1.9z"/><path opacity=".48" fill="#FFF" d="M353.7 206.9l1.3-4.4 45.2.6-46.3-1.5z"/><path fill="#838BC5" d="M474.5 517.6l-2.6-1.2c-2.2-1-3.2-3.6-2.2-5.8l9.9-22.3c1-2.2 3.6-3.2 5.8-2.2l2.6 1.2c2.2 1 3.2 3.6 2.2 5.8l-9.9 22.3c-1 2.1-3.6 3.2-5.8 2.2zm10-29.7c-1.2-.5-2.6 0-3.1 1.2l-9.9 22.3c-.5 1.2 0 2.6 1.2 3.1l2.6 1.2c1.2.5 2.6 0 3.1-1.2l9.9-22.3c.5-1.2 0-2.6-1.2-3.1l-2.6-1.2z"/><path fill="#838BC5" d="M486.6 507.2l-1.9-.8 9.5-21.5c.5-1.1-.4-2.7-2-3.4l-3.4-1.5c-1.6-.7-3.3-.3-3.9.8l-9.5 21.5-1.9-.8L483 480c1-2.2 3.9-3 6.5-1.9l3.4 1.5c2.6 1.2 4 3.9 3 6.1l-9.3 21.5z"/><g><path fill="#BA9BC9" d="M526.1 519.3l-2.2.6c-1.9.5-3.9-.6-4.4-2.5l-5.2-19.2c-.5-1.9.6-3.9 2.5-4.4l2.2-.6c1.9-.5 3.9.6 4.4 2.5l5.2 19.2c.5 1.9-.6 3.9-2.5 4.4zm-9-24c-1 .3-1.6 1.3-1.4 2.4l5.2 19.2c.3 1 1.3 1.6 2.4 1.4l2.2-.6c1-.3 1.6-1.3 1.4-2.4l-5.2-19.2c-.3-1-1.3-1.6-2.4-1.4l-2.2.6z"/><path fill="#BA9BC9" d="M528.4 506.4l-1.6.4-5.1-18.5c-.3-1-1.6-1.5-3-1.1l-2.9.8c-1.4.4-2.3 1.5-2 2.5l5.1 18.5-1.6.4-5.1-18.5c-.5-1.9.9-3.9 3.2-4.6l2.9-.8c2.3-.6 4.5.4 5.1 2.3l5 18.6z"/></g><defs><filter id="Adobe_OpacityMaskFilter_4_" filterUnits="userSpaceOnUse" x="221" y="376.3" width="264" height="198.8"><feFlood result="back" flood-color="#fff" flood-opacity="1"/><feBlend in="SourceGraphic" in2="back"/></filter></defs><mask maskUnits="userSpaceOnUse" x="221" y="376.3" width="264" height="198.8" id="SVGID_7_"><g filter="url(#Adobe_OpacityMaskFilter_4_)"><defs><filter id="Adobe_OpacityMaskFilter_5_" filterUnits="userSpaceOnUse" x="221" y="376.3" width="264" height="198.8"><feFlood result="back" flood-color="#fff" flood-opacity="1"/><feBlend in="SourceGraphic" in2="back"/></filter></defs><linearGradient id="SVGID_8_" gradientUnits="userSpaceOnUse" x1="204.601" y1="435.108" x2="402.542" y2="605.322"><stop offset="0" stop-color="#fff"/><stop offset="1"/></linearGradient><path mask="url(#SVGID_7_)" fill="url(#SVGID_8_)" d="M242.5 399.1L221 575.2h264.1L282.7 376.3l-5.8 18.4-12.9-14.4-8.6 30.4z"/></g></mask><path opacity=".1" fill="#3A3A3A" d="M242.5 399.1L221 575.2h264.1L282.7 376.3l-5.8 18.4-12.9-14.4-8.6 30.4z"/><defs><filter id="Adobe_OpacityMaskFilter_6_" filterUnits="userSpaceOnUse" x="422.4" y="395.9" width="202.8" height="179.3"><feFlood result="back" flood-color="#fff" flood-opacity="1"/><feBlend in="SourceGraphic" in2="back"/></filter></defs><mask maskUnits="userSpaceOnUse" x="422.4" y="395.9" width="202.8" height="179.3" id="SVGID_9_"><g filter="url(#Adobe_OpacityMaskFilter_6_)"><defs><filter id="Adobe_OpacityMaskFilter_7_" filterUnits="userSpaceOnUse" x="422.4" y="395.9" width="202.8" height="179.3"><feFlood result="back" flood-color="#fff" flood-opacity="1"/><feBlend in="SourceGraphic" in2="back"/></filter></defs><linearGradient id="SVGID_10_" gradientUnits="userSpaceOnUse" x1="436.537" y1="379.414" x2="612.772" y2="530.962"><stop offset="0" stop-color="#fff"/><stop offset="1"/></linearGradient><path mask="url(#SVGID_9_)" fill="url(#SVGID_10_)" d="M422.4 403.1l23.6 12.4s2.5 19.4 14.6 27.1c12.1 7.7 24.9 20.4 38 22.5 13.1 2.1 26.3 17.6 26.3 17.6l-3.1 5.5L625.2 575v-62.4L505.6 395.9l-83.2 7.2z"/></g></mask><linearGradient id="SVGID_11_" gradientUnits="userSpaceOnUse" x1="436.537" y1="379.414" x2="612.772" y2="530.962"><stop offset="0" stop-color="#010101"/><stop offset="1"/></linearGradient><path opacity=".1" fill="url(#SVGID_11_)" d="M422.4 403.1l23.6 12.4s2.5 19.4 14.6 27.1c12.1 7.7 24.9 20.4 38 22.5 13.1 2.1 26.3 17.6 26.3 17.6l-3.1 5.5L625.2 575v-62.4L505.6 395.9l-83.2 7.2z"/><path fill="#FBBA87" d="M304.5 452.5s-.7 1.4-1.9 3.7c-.3.5-.6 1.1-.9 1.7-5.1 9.9-15.7 30.2-19.7 35.9-5.3 7.7-13.9 17.6-22 13.8l.2-.2h-.1l-.1.2-3.4 12.8-.4 1.6-38.4-10 2-7.5 1.9-7.2c-5.3-2.7-7.3-8.8-5.7-14.9l8.8-39.7c0-.2.1-.3.1-.5l10.3-38.9c.7-2.6 2.9-4.3 5.5-4.4.6 0 1.2 0 1.8.2 3.2.8 5 4.1 4.2 7.2l-5.3 26.5h.1v-.1l14.3-47.9c.9-3.4 4.5-5.5 7.9-4.6h.2c3.4.9 5.5 4.5 4.6 7.9l-10.3 48.1.2.1 16.4-55.5c.9-3.4 4.4-5.4 7.8-4.5 3.4.9 5.4 4.4 4.5 7.8l-13 55.4.5.1 12.4-41.2c.9-3.4 4.5-5.5 7.9-4.6h.2c3.4.9 5.5 4.5 4.6 7.9L284.8 458l-1.2 4.3-.4 1.6 9.7-17.8c1.7-3.1 5.6-4.3 8.8-2.6l.2.1c1.3.7 2.3 1.8 2.8 3.1.8 1.9.8 4-.2 5.8z"/><path fill="#1A1A1A" d="M211.4 520.7l3.3-12.8 45.7 13.7-2.6 11z"/><path fill="#564291" d="M193.6 536.8l-10.1 38.4h76.3l5.2-19.5z"/><path transform="scale(-1) rotate(14.821 4120.676 -1779.074)" fill="#FFF" d="M201.5 525.4h59.9v21h-59.9z"/><path fill="#564291" d="M625.2 453.3v86L562 491.9l4.4-5.9 29.6-39.8 3-4 1.8-2.5 3.7-4.9z"/><path fill="#FFF" d="M600.8 439.7l-1.8 2.5-3 4-29.6 39.8-16.3-12.1 6.5-8.7 21.7-29.2 1.9-2.4 1.3-1.9 3.1-4.1z"/><path fill="#FBBA87" d="M581.5 431.7l-1.4 1.9-1.8 2.5-21.7 29.2-25.7-22.6c-13.4 4.5-27.5 2-37.9-5.1-10.4-7.1-17.4-14.7-25.1-16.5-4.2-1-9.5-2.6-13-5.8-1.1-1-2.1-2.3-2.7-3.7-1.1-2.3-1.4-5.1-.5-8.5 2-8 6.8-7.7 10.1-7.6 1.7.1 2.9.1 3.2-1.1 2.2-12.2-27.5 13.3-16.1-6.9 6.5-11.5 8.7-23.7 19.1-25.3 23.9-3.6 33.1 2.3 41.4 2.5 4.1.1 13.4 8.5 23.3 18.5 12.6 12.9 26 28.5 29.8 32.7 6.8 7.3 19 15.8 19 15.8z"/><path fill="#EEAC7F" d="M461.3 391.1s6.7-7.5 12.8-10.7 27.3 3.8 27.3 3.8l-40.1 6.9zM468.7 397.1s12.2 5.8 19 6.3c6.8.6 20.5-15.8 20.5-15.8l-39.5 9.5z"/><circle fill="#1A1A1A" cx="227.7" cy="518.1" r="14.2"/><circle fill="#FFF" cx="227.5" cy="518.1" r="12.3"/><path transform="rotate(13.674 230.848 503.677)" fill="#1A1A1A" d="M229.8 502.9h2.2v1.7h-2.2z"/><path fill="#1A1A1A" d="M234.3 510.6l-7.9 8 1.3.5z"/><circle fill="#456AB3" cx="255.4" cy="544" r="2.2"/><circle fill="#456AB3" cx="561.4" cy="475.3" r="2.2"/><circle fill="#FEDDC7" cx="281.1" cy="382.5" r="4.2"/><circle fill="#FEDDC7" cx="293.5" cy="400.1" r="4.2"/><path fill="#FEDDC7" d="M304.5 452.5s-.7 1.4-1.9 3.7c-.6-.1-1.1-.3-1.7-.6-2.1-1-3.5-2.5-2.2-5.4 1.3-2.7 4-4.2 6.1-3.4.7 1.8.7 3.9-.3 5.7z"/><circle fill="#FEDDC7" cx="261.8" cy="386.8" r="4.2"/><circle fill="#FEDDC7" cx="240.7" cy="405.2" r="3.4"/><g><path fill="#1A1A1A" d="M552.6 369.8c17.4-3.5 27.7-5.1 33.9-5.5.7 0 1.4-.1 2-.1 2 0 3.5.1 4.5.4 2.1.6 2.6 1.7 2.9 3 .3 1.3.2 2.4-1.6 3.6-.9.6-2.2 1.3-4 2-.6.2-1.2.4-1.9.7-5.9 2-16.3 4.5-34.1 8.1-6.8 1.4-17.7 3.6-21.3 4.3-1.5.3-3.2.6-5.7 1.1l-.1-.4c-34.4 6.5-66.2 13.1-81.9 15-15.6 2-23 .9-23 .9s5.5-4 21.4-8.6c14.7-4.3 46.1-10.5 81.2-18.2l-.1-.4c2.4-.5 4.2-.9 5.7-1.2 3.8-1 14.9-3.3 22.1-4.7z"/><path fill="#FEF59F" d="M443.8 394.3l1.6 7.8c-15.6 2-23 .9-23 .9s5.5-4.1 21.4-8.7zM530.6 374.4l2.4 11.9c-1.5.3-3.2.6-5.7 1.1l-2.4-11.8c2.4-.5 4.1-.9 5.7-1.2zM593 364.6c2.1.6 2.6 1.7 2.9 3 .3 1.3.2 2.4-1.6 3.6l-1.3-6.6zM586.4 364.3c.7 0 1.4-.1 2-.1l1.8 9c-.6.2-1.2.4-1.9.7l-1.9-9.6z"/><path transform="scale(-1) rotate(78.504 444.947 -718.264)" fill="#FEF59F" d="M582.1 363h9.5v1.1h-9.5z"/><path transform="scale(-1) rotate(78.504 447.559 -683.818)" fill="#FEF59F" d="M557.2 337.1h3v57.1h-3z"/></g><path fill="#FCC498" d="M480.3 420.3c-.5.2-1 .4-1.6.5-6.2 1.6-17.6-.8-23.7-5.7-2.2-1.8-4-3.8-5.2-5.9-2.5-4.3-2.7-8.9.8-12.2 2.9-2.9 6.1-3.1 11.3-1.7 2.7.7 5.9 1.8 9.8 3.2 16.5 5.6 14.3 19.2 8.6 21.8z"/><path fill="#FEDDC7" d="M451.1 399.4c-3.3 4.7-1.5 8.6 1.5 9.9 2.2.9 3.2-4 5.9-6.9 5.8-6.4-2.1-10.5-7.4-3z"/><path opacity=".24" fill="#FFF" d="M240.7 399s-3.9 1.7-5 7.3-15.7 75.4-16.2 80.2c-.4 4.8 5.5 9.6 5.5 9.6l-5.3 8.4 1.9-7.2c-5.3-2.7-7.3-8.8-5.7-14.9l8.8-39.7c0-.2.1-.3.1-.5l10.3-38.9c.9-2.5 3.1-4.2 5.6-4.3zM234.3 547.6l-40.7-10.8-10.1 38.4h20.9l7-31.2zM264 380.3s-6 .5-7.5 5.8c-1.5 5.1-14.1 44.2-14.9 46.7l14.3-47.9c.9-3.4 4.5-5.5 7.9-4.6h.2z"/><path opacity=".14" fill="#010101" d="M263 533.5l-18.9-5-6.7 19.9 12.8 3.4-6.2 23.4h15.8l5.2-19.5-7.4-1.9z"/><path opacity=".14" fill="#010101" d="M199.8 538.5l58.8 11.7-1 3.6z"/><path opacity=".05" fill="#010101" d="M301.7 458c-5.1 9.9-15.7 30.2-19.7 35.9-5.3 7.7-13.9 17.6-22 13.8l-3.4 12.8-3.4-1 4.3-14.6s10.2 1.5 16.9-5.5c6.6-6.8 26.7-40.3 27.3-41.4z"/><path opacity=".1" fill="#010101" d="M625.2 453.3V468L599 442.2l-3 4-15.8-12.6-1.8 2.5s-18.1-16-21.5-19.5c-3.3-3.6-19.5-23.4-23.9-25.5-4.4-2.1-33.9 0-33.9 0l33.5-8.1c12.6 12.9 26 28.5 29.8 32.7 6.9 7.5 19.1 16 19.1 16l3.1-4.1 16.2 12.1 3.7-4.9 20.7 18.5z"/><path opacity=".1" fill="#010101" d="M556.6 465.2l20.6-36.6 4.3 3.1zM566.4 486l31-48.8 3.4 2.5z"/><path opacity=".34" fill="#FFF" d="M556.6 465.2l-25.7-22.6c-13.4 4.5-27.5 2-37.9-5.1-10.4-7.1-17.4-14.7-25.1-16.5-4.2-1-9.5-2.6-13-5.8-2.2-1.8-4-3.8-5.2-5.9.5.5 1.4 1.3 2.5 2.2 2.9 2.3 7.4 5.5 11.6 5.9 6.8.6 11.4-1.9 11.4-1.9s.7 2.1 3.5 5.5c1.1 1.4 2.6 3 4.6 4.7 6.8 6.1 15 12 23 14.3 8 2.3 23.8-.3 24.1 0 .4.1 25.4 24.4 26.2 25.2z"/><g><path opacity=".2" fill="#231F20" d="M196.6 250.7l-34.7-13.8 3.1-7.9c1.5.1 3-1 3.7-2.8l3.4-8.5c.8-2.1.1-4.4-1.6-5.1l-7.5-3c-1.7-.7-3.8.5-4.7 2.6l-3.4 8.5c-.7 1.7-.3 3.6.8 4.6l-3.1 7.9-34.7-13.8c-2.1-.8-4.5.2-5.4 2.3L100 253.2 95.7 264l-1.4 3.5c-.8 2.1.2 4.5 2.3 5.4l78.8 31.2c2.1.8 4.5-.2 5.4-2.3l1.4-3.5 4.3-10.7 12.5-31.5c.7-2.2-.3-4.6-2.4-5.4z"/><path fill="#FFF" d="M194.2 245.3l-78.8-31.2c-2.1-.8-4.5.2-5.4 2.3l-18 45.7c-.8 2.1.2 4.5 2.3 5.4l78.8 31.2c2.1.8 4.5-.2 5.4-2.3l18.1-45.7c.8-2.1-.2-4.5-2.4-5.4z"/><path transform="rotate(-158.373 157.905 222.024)" fill="#FFF" d="M152.9 213.8h10v16.5h-10z"/><path fill="#A8AAAD" d="M168.1 207.4l-7.5-3c-1.7-.7-3.8.5-4.7 2.6l-3.4 8.5c-.8 2.1-.1 4.4 1.6 5.1l7.5 3c1.7.7 3.8-.5 4.7-2.6l3.4-8.5c.8-2.1.1-4.4-1.6-5.1z"/><path fill="#D2D3D4" d="M166.5 206.8l-6.4-2.6c-1.5-.6-3.3.4-4 2.2l-2.9 7.2c-.7 1.8-.1 3.8 1.4 4.3l6.4 2.6c1.5.6 3.3-.4 4-2.2l2.9-7.2c.7-1.8.1-3.7-1.4-4.3z"/><path fill="#788EA9" d="M124.9 229.7c-.7-.9-2.1 0-4.1-.6l-3.8-1.5c-.2.6.1 1.2.6 1.4l.5.2c-.2.5.1 1.1.7 1.3l.3.1c0 .5.2.9.7 1.1l1.3.5c0 .4.5.9 1.3 1.3.8.3 1.6.3 1.8 0l.3-.7.1-.3.2-.6v-.1l.4-.9c.2.1.4-.3-.3-1.2zM128.6 231.2c-1.1.2-1.3.6-1.3.6l-.4.9v.1l-.2.6-.1.3-.3.7c0 .4.5.9 1.3 1.3.8.3 1.6.3 1.8 0l1.3.5c.5.2 1 0 1.3-.3l.3.1c.5.2 1.1 0 1.4-.5l.5.2c.6.2 1.2-.1 1.4-.6l-3.8-1.5c-1.7-1-2.1-2.6-3.2-2.4z"/><path fill="#788EA9" d="M127.5 228.4c-.6-.3-1.4.1-1.6.7-.2.4-.1.9.2 1.3-.2.6-.5 1.4-.9 2.3-.4 1-.9 2.2-1.3 3.4-.2.4-.3.9-.5 1.4h.4l.7.1c.2-.5.3-.7.5-1.1.5-1.2 1-2.4 1.4-3.4.4-.9.7-1.7.9-2.3.4 0 .8-.3 1-.8.2-.7-.1-1.4-.8-1.6zM126.2 241.2c0-.1 0-.1 0 0 .1-.4.1-.6 0-.8 0-.1-.1-.3-.1-.4h-.2c-.4 0-.8-.1-1.2-.1-.2 0-.5-.1-.7-.1h-.3l.2.2c.2.1.3.3.4.4.1.1.2.3.3.4v.1l-.1.1c-.1.1-.2.1-.3.2-.2 0-.3.1-.5.1h-.6-.6-1.6c-.2 0-.3 0-.5.1-.1 0-.2.1-.3.1-.2.1-.3.1-.5.3-.2.1-.3.3-.4.5l-.1.1v.1l-.1.2c0 .2-.1.3-.1.5 0 .4.1.7.3 1l.1.1c.1-.1.3-.1.4-.2.3-.1.7-.1.9-.2h1.2c.1-.2.2-.4.2-.6 0-.1.1-.2.1-.3l.2.2c.1.1.2.3.3.4v.2l-.1.1c-.1.1-.1.1-.3.2-.1 0-.3.1-.5.1H121.1h-.6-.1c-.2 0-.5 0-.8.1-.1 0-.2.1-.3.1l-.1.1-.1.1c-.1.1-.2.2-.2.3-.1.1-.2.3-.2.4v.8c.1 0 .3-.1.4-.1H120.9c0-.1 0-.1.1-.2.1.1.1.1.1.2 0 0 0 .2-.3.3h-1.5c-.8 0-.9.7-.9.7s-.1.5.2 1c0 .1.2.3.2.3.2 0 .2 0 .4-.1.1 0 .1 0 .2-.1.1 0 .2-.1.3-.1h.1c.1 0 .5-.2.5-.2l.1-.3c-.2 0-.9-.1-.9-.1-.1.2-.1.2-.1.4 0 0 0-.1-.1-.2 0-.1-.1-.2-.1-.3 0-.1.2-.1.2-.1H121.2c.1 0 .2 0 .4-.1.1 0 .2-.1.3-.1.1 0 .1-.1.2-.1l.2-.2.1-.1.1-.1c.1-.1.1-.3.1-.4 0-.1.1-.3.1-.5l-2.3-.1s-.1.2-.1.3c-.1-.2 0-.3 0-.4 0-.1.1-.1.2-.1h2.5c.3-.1.6-.2.9-.5.1-.1.2-.3.3-.4 0-.1.1-.2.1-.2v-.1-.2c.1-.2.1-.4 0-.6 0-.2-.1-.4-.2-.5h-1.7-1.2c-.1.2-.1.4-.2.6 0 .1-.1.2-.1.3l-.1-.1c-.1-.1-.2-.3-.3-.4-.1-.1-.1-.2-.1-.3v-.1s.1 0 .1-.1c.1 0 .3-.1.5-.1h3.3c.1 0 .3 0 .4-.1.3-.1.6-.2.9-.4l.4-.4s0-.1.1-.1l.1-.1v-.1c0-.2-.1-.2 0-.2zM121 250.2l-.2-.2c-.1-.2-.3-.4-.6-.7-.2 0-.4.1-.6.1h-.4-.4-.1c-.1.1-.1.3-.2.4l-.3.9c-.1.2 0 .4.2.5.2.1.4 0 .5-.2 0 0 .1-.3.4-.9.1-.2.2-.4.3-.7l.2.2c.3.3.5.5.7.6.1.1.2.1.2.2l.1.1h.2v-.3z"/><path fill="#788EA9" d="M122 236.5c-.3-.2-.5-.4-.7-.6-.1-.1-.2-.2-.2-.3 0 0 0-.1-.1-.1 0-.1 0-.1.1-.1H121.4c.1 0 .3 0 .5.1.3.1.6.2.7.3.2.1.3.1.2.1.3.2.8.1 1-.2.2-.3.1-.8-.2-1 0 0-.1-.1-.3-.2-.2-.1-.5-.3-1-.4-.2-.1-.5-.1-.9-.1-.2 0-.4 0-.6.1-.2.1-.4.2-.6.4-.2.2-.3.4-.4.6 0 .1 0 .1-.1.2v.7c0 .3.2.6.3.8.1.2.3.4.4.5l.6.6c.4-.1.6-.1.9-.1h.8c.3 0 .6 0 .9.1-.1-.1-.3-.2-.4-.3-.6-.7-.9-.9-1.2-1.1z"/><path fill="#788EA9" d="M128.8 237c-.1-.2-.2-.3-.4-.5-.3-.2-.5-.4-.7-.5-.4-.2-.8-.3-1-.4-.2-.1-.4-.1-.4-.1-.4-.1-.7.2-.8.5-.1.4.2.8.5.8 0 0 .1 0 .3.1.2.1.4.2.7.3.1.1.3.2.4.3.1 0 .1.1.1.1v.2H126c-.3 0-.7-.1-1.1-.1-.2 0-.3 0-.5-.1h-.1c-.2 0-.4 0-.6-.1h-.1c-.2 0-.3 0-.5-.1-.3 0-.5-.1-.8-.1h-.7c-.2 0-.4 0-.6.1-.1 0-.1 0-.2.1-.1 0-.1 0-.2.1-.1 0-.2.1-.3.2-.2.1-.4.3-.5.5v1.2c.1.4.2.7.4.9.1.1.1.2.2.3.3-.1.5-.1.7-.1h2.4c0-.1.1-.2.1-.4.1-.1.1-.3.2-.4 0-.1.1-.2.1-.3-.2 0-.4 0-.6-.1-.2 0-.4 0-.6-.1-.1.1-.1.3-.2.4 0 .1-.1.2-.1.4 0 .1-.1.2-.1.3l-.4-.4c-.1-.1-.2-.3-.3-.4-.1-.1-.1-.3-.1-.3v-.1h.1c.1 0 .3-.1.5-.1H123.1c.2 0 .4 0 .6.1.2 0 .4 0 .6.1.3 0 .7.1 1 .1.4 0 .8.1 1.1.1H127.6c.2 0 .4-.1.6-.1.2-.1.5-.2.7-.4.1 0 .1-.1.2-.2v-.1l.1-.1v-.1l.1-.1v-.1c0-.1 0-.1.1-.2.1-.2.1-.5.1-.7-.5.1-.6-.2-.7-.4zM121.5 248v-.1-.4c-.2.1-.3.1-.5.1h-.5s.1.2 0 .3c-.1.1-.2.1-.3.2-.1 0-.1.1-.2.1s-.1.1-.2.1-.2.1-.3.1c-.2 0-.3.1-.5.1h-.2c-.1 0-.2 0-.3.1-.4.1-.7.1-.9.1h-.3c-.1 0-.1.1-.1.1 0 .1.1.2.1.2h2c.1 0 .3 0 .5-.1H120.1c.1 0 .1 0 .2-.1.1 0 .2-.1.3-.1.2-.1.3-.1.5-.3.1-.1.2-.1.3-.2 0 0 0-.1.1-.1v-.1c0 .1 0 .1 0 0z"/><path transform="rotate(-158.373 138.72 270.42)" fill="#424143" d="M92.2 264.7h93v11.5h-93z"/><path transform="rotate(-158.373 164.722 250.766)" fill="#788EA9" d="M145.3 248.9h38.8v3.7h-38.8z"/><path transform="rotate(-158.373 161.63 258.567)" fill="#788EA9" d="M142.2 256.7H181v3.7h-38.8z"/><path opacity=".1" fill="#231F20" d="M194.2 245.3L92 262.1c-.8 2.1.2 4.5 2.3 5.4l78.8 31.2c2.1.8 4.5-.2 5.4-2.3l18.1-45.7c.8-2.1-.2-4.5-2.4-5.4z"/></g><g><linearGradient id="SVGID_12_" gradientUnits="userSpaceOnUse" x1="380.292" y1="200.563" x2="237.412" y2="52.438" gradientTransform="rotate(-12.992 109.625 481.528)"><stop offset="0" stop-color="#fff"/><stop offset="1"/></linearGradient><path opacity=".1" fill="url(#SVGID_12_)" d="M182.8 21.7l-24.6 1.9-42.8 4.2s-9.1 19.3-4.7 38.2c24.5 103.4 95 102.1 95 102.1l73.1 45.7L380 90.4 221.6.3l-38.8 21.4z"/><linearGradient id="SVGID_13_" gradientUnits="userSpaceOnUse" x1="416.968" y1="319.693" x2="372.412" y2="269.196" gradientTransform="rotate(-12.992 109.625 481.528)"><stop offset="0" stop-color="#fff"/><stop offset="1"/></linearGradient><path opacity=".1" fill="url(#SVGID_13_)" d="M311.3 159.3l9.3 44.8-1.1 20.6-10.2 16.5-16.4 7.1-30.4 7-33.7-2.9 106.7 66.7 80.8-133.8-98.2-61.4z"/><path opacity=".2" fill="#231F20" d="M306 124.2c-12.4 2.9-20.2 15.2-17.3 27.6 2.6 11.3 13.3 18.7 24.6 17.7l8.6 37.4c4.2 18-7.1 36-25.1 40.1l-33 7.6c-18 4.2-36-7.1-40.1-25.1l-13.4-58.2c12-4 21.9-14 28.7-29.1 5.5-12.2 7.1-23.3 7.1-23.8l-1.4-.2c1.5-7.4 3.4-18.6 4-31.7 1-21.5-1.4-52.7-18.1-78.9-1.5-2.4-3.8-3.9-6.7-4.5-9.6-2-24.4 6.1-30.2 9.6-1.2-.7-2.7-.7-3.9.1l-5.8 3.8c-1.7 1.1-2.2 3.4-1.1 5.2 1.1 1.7 3.4 2.3 5.2 1.1l5.8-3.8c1.1-.7 1.7-2 1.7-3.2 5.4-3.2 19.3-10.9 27.6-9.2 2 .4 3.4 1.4 4.4 2.9 16.1 25.3 18.4 55.6 17.5 76.6-.6 13.1-2.4 24.3-3.9 31.5l-1.8-.2c-.1.4-6.1 41.7-33.9 48.1-27.7 6.4-51.3-28-51.6-28.4l-1.5 1c-4.5-5.8-11.1-15.1-17.3-26.6-10-18.5-21.3-46.7-17.8-76.5.2-1.8 1.1-3.3 2.7-4.5 6.6-5.2 22.6-4.4 28.8-3.8.5 1.1 1.6 2 3 2.1l6.9.8c2.1.2 3.9-1.2 4.2-3.3.2-2.1-1.2-3.9-3.3-4.2l-6.9-.8c-1.4-.2-2.8.5-3.6 1.6-6.7-.6-23.6-1.4-31.3 4.6-2.4 1.9-3.7 4.2-4.1 7-3.5 30.8 8 59.9 18.3 78.8 6.3 11.5 12.9 20.8 17.5 26.8l-1.5.8c.3.4 6.6 9.7 16.8 18.3 12.8 10.6 26.1 15.3 38.6 13.6l13.4 58.2c5 21.7 26.7 35.3 48.4 30.3l33-7.6c21.7-5 35.3-26.7 30.3-48.5l-8.7-37.5c10.2-4.2 16.2-15.3 13.6-26.4-2.6-12.3-15-20.1-27.4-17.2z"/><path fill="#E6E7E7" d="M113.1 24.9c-2.4 1.9-3.7 4.2-4.1 7-3.5 30.8 8 59.9 18.3 78.8 11.1 20.5 23.3 33.9 23.4 34l2.7-2.5c-.1-.1-12-13.3-22.9-33.4-10-18.5-21.3-46.7-17.9-76.5.2-1.8 1.1-3.3 2.7-4.5 8.3-6.5 31.1-3.6 31.3-3.6l.5-3.7c-.9-.1-24.5-3.1-34 4.4z"/><path fill="#FFF" d="M113.1 24.9c-2.4 1.9-3.7 4.2-4.1 7-3.4 29.5 7 57.3 17 76.3-3.6-8.7-7.8-17.2-9.8-26.4-12.6-56.4-2.7-56.3 5.3-58.4 7.7-2 15.4-1.8 23.2-1.8.8 0 1.6.1 2.3.3l.2-1.3c-1-.2-24.6-3.2-34.1 4.3z"/><path fill="#E6E7E7" d="M154.9 19.4l-6.9-.8c-2.1-.2-3.9 1.2-4.2 3.3-.2 2.1 1.2 3.9 3.3 4.2l6.9.8c2.1.2 3.9-1.2 4.2-3.3.2-2.1-1.3-3.9-3.3-4.2z"/><path fill="#FFF" d="M151.1 20l-4.3-.5c-1.3-.2-2.5.8-2.6 2.1-.2 1.3.8 2.5 2.1 2.6l4.3.5c1.3.2 2.5-.8 2.6-2.1.2-1.2-.8-2.4-2.1-2.6z"/><path fill="#E6E7E7" d="M219.4.3c-11.8-2.5-31.7 10.5-32.5 11.1l2 3.1c.2-.1 19.4-12.7 29.7-10.5 2 .4 3.4 1.4 4.4 2.9 16.1 25.3 18.4 55.6 17.5 76.6-1 22.9-5.9 39.9-6 40.1l3.5 1c.1-.2 5.1-17.6 6.1-40.9 1-21.5-1.4-52.7-18.1-78.9-1.4-2.3-3.6-3.8-6.6-4.5z"/><path fill="#FFF" d="M226.1 4.8c-1.5-2.4-3.8-3.9-6.7-4.5-11.8-2.5-31.7 10.5-32.5 11.1l1.4 2.1c5.8-8.1 19.8-10.8 28.7-11 3.6-.1 6.4 3 7.3 6.4 15 24.9 17.1 54.1 16.2 74.5-.5 12.4-2.2 23-3.7 30.2.7-1.4 1.2-3 1.5-5 .5-3.8 6.8-28 2.3-59.3-1.1-8-3.8-15.7-6.4-23.3-.6-2-4.8-16.1-8.1-21.2z"/><path fill="#E6E7E7" d="M185.3 10l-5.8 3.7c-1.7 1.1-2.3 3.4-1.1 5.2 1.1 1.7 3.4 2.3 5.2 1.1l5.8-3.8c1.7-1.1 2.2-3.4 1.1-5.2-1.1-1.6-3.4-2.1-5.2-1z"/><path fill="#FFF" d="M183.3 12.3l-3.6 2.3c-1.1.7-1.4 2.2-.7 3.2.7 1.1 2.2 1.4 3.2.7l3.6-2.3c1.1-.7 1.4-2.2.7-3.2-.7-1.1-2.1-1.4-3.2-.7z"/><path fill="#F05761" d="M200.9 162.8c-27.7 6.4-51.3-28-51.6-28.4L147 136l-3.4 2.3c.3.4 6.6 9.7 16.8 18.3 13.9 11.6 28.5 16.1 42 13 13.5-3.1 24.6-13.5 32.1-30.1 5.5-12.2 7.1-23.3 7.1-23.8l-6.9-1c.1.4-6 41.7-33.8 48.1z"/><path fill="#CC4651" d="M230.7 139.1c-21.4 38.6-51.9 27.7-63.9 20.6-3.2-1.9-6.6-3.9-9.8-6.1 1.1 1 2.2 2 3.4 3 13.9 11.6 28.5 16.1 42 13 13.5-3.1 24.6-13.5 32.1-30.1 5.5-12.2 7.1-23.3 7.1-23.8l-4.4-.6c-.3 8.3-2.5 16.7-6.5 24z"/><path fill="#F05761" d="M317.5 204.1c4.2 18-7.1 36-25.1 40.1l-33 7.6c-18 4.2-36-7.1-40.1-25.1L205.8 168l-6.7 1.6 13.5 58.7c5 21.7 26.7 35.3 48.5 30.3l33-7.6c21.7-5 35.3-26.7 30.3-48.4l-9-38.8-6.7 1.6 8.8 38.7z"/><path fill="#CC4651" d="M205.7 168.1l-2.6.6c.9 1 12 47.6 13.1 52.7 1.1 4.9 4.4 15.3 7.5 16.1-2.1-3.2-3.6-6.8-4.5-10.7l-13.5-58.7zM314 169.8c3 19.2 16.6 39 1.1 63.3-8.7 13.7-46 19.2-56.4 21.4-8.2 1.7-15.9 2.1-23.9 1.4 7.9 3.7 17 4.8 26 2.7l33-7.6c21.7-5 35.3-26.7 30.3-48.4l-9-38.8-4 .9c1.6 1.1 2.6 2.8 2.9 5.1z"/><ellipse transform="rotate(-102.997 306.701 143.811)" fill="#E6E7E7" cx="306.7" cy="143.8" rx="20.4" ry="20.5"/><path fill="#6E6F72" d="M301.5 121.4c-12.4 2.9-20.2 15.2-17.3 27.6 2.8 12.3 15.3 20 27.7 17.2 12.4-2.9 20.2-15.2 17.3-27.6-2.9-12.3-15.3-20-27.7-17.2zm9.2 39.8c-9.7 2.2-19.3-3.8-21.6-13.4-2.2-9.6 3.8-19.2 13.5-21.5 9.7-2.2 19.3 3.8 21.6 13.4 2.3 9.7-3.8 19.3-13.5 21.5z"/><path fill="#818285" d="M303.6 130.5c-7.8 1.8-12.8 9.3-11.1 16.6 1.7 7.4 9.4 11.9 17.2 10.1s12.8-9.3 11.1-16.6c-1.6-7.4-9.4-11.9-17.2-10.1zm5.6 23.9c-6.3 1.5-12.6-2.1-13.9-8-1.4-5.9 2.7-11.8 9-13.3s12.6 2.1 13.9 8c1.3 5.9-2.7 11.9-9 13.3z"/><path opacity=".1" fill="#010101" d="M290.1 159.1c5.3 5.7 13.5 8.5 21.7 6.6 12.2-2.8 19.8-14.9 17-27-.9-4-2.9-7.5-5.5-10.3-9.3 27-31.7 29.9-33.2 30.7z"/></g></svg>