<svg id="Layer_1" xmlns="http://www.w3.org/2000/svg" viewBox="0 0 23.8 37.2"><path fill="#502E88" d="M15.7 30.7c-5.3.5-7.8-2.4-9.6-4.4-1-1.1-1.7-2-2.7-2.2-.6-.1-.8-.1-1.2-2-.2-1 .1-1.7.9-2.2 1.1-.7 1.6-1.8 2-3.5.8-3.2 3.7-5.1 6-6.6.4-.3.8-.5 1.1-.8 3.4-2.4 5-6.8 5-9H15c0 1.6-1.2 5.3-4.1 7.4-.3.2-.7.5-1.1.7C7.4 9.7 4 12 3 15.9c-.4 1.6-.7 2-1 2.2C.4 19-.2 20.7.1 22.5c.4 1.8.9 3.3 2.9 3.7.3.1 1 .9 1.5 1.5 1.4 1.6 3.4 3.9 7 4.8.6.8 2 3.1 2 4.7h2.1c0-1.5-.7-3.1-1.4-4.3h.3c.4 0 .9 0 1.3-.1 4.2-.5 8-4 7.9-7-.3.4-1.7 4.4-8 4.9"/><path fill="#009B94" d="M15.1 9.3c-.4.3-2.6 1.8-3 2.1-2 1.4-4.6 3.1-5.2 5.5-.1.4-.2.9-.4 1.3.4-.3.9-.7 1.6-1.2.4-.3.7-.6 1.1-.8.2-1.3.8-1.4.6-2.2 0 0 .4.5.3 1.6.4-.3.8-.5 1.1-.6.5-.2 1-.3 1.3-.3.9-.1 1.6-1 2.2-1.1-.2.2-.4.6-.5.7-.3.4-.8 1.1-1.7 1.2-.2 0-.5.1-.8.2.5.2.8 1.1 1.3 1 0 0-.4.6-1.2 0-.1-.1-.5-.6-1.1-.5-.6.3-1.3.8-2.2 1.5C6.9 19 6.4 19.2 5.6 20c-.4.5-.8 1-1.5 1.4-.1.1-.2.1-.1.3.1.4.2.8.3.8 1.4.1 2-.5 2-1.3.1.4.3 1.2-.1 1.6.8.1 2.2.2 3.5 0 .7-.3.9-1.3.9-1.8.1-1.1-1.2-1.4-1.2-1.4.1 0 .6-.1 1 .1.2-1.2 1.1-1.7 1.1-1.7s-.6 1.1-.3 2.2c.1.2.2.5.2.7.1.7-.1 1.3-.4 1.6h.2c1.9-.6 2.2-1 2.9-1.5.1-.1.3-.2.4-.3.5-.5.2-1.6.5-2.1.1.8.4 1.6.3 2.2.6.1.9.8 1.6.6.8-.3 2.1-.3 2.4.1-1.4.3-1.1.2-2.1.6-.2.1-.4.1-.7.1-1 0-1.1-1.1-2-.5-.4.4-.8.7-1.5 1 .5.3 1.1 1.3 2.1 1.3 2.1 0 2.4.6 2.4.6-1.9-.3-1.7.2-3 0-.1 0-.2-.1-.3-.1-.1.6-.8.9-.8.9s.3-1-.1-1.4c-.5-.4-.8-.9-1.3-.9-.2.1-.4.1-.6.2-1 .4-2.3.5-3.4.5-.7 0-1.4 0-1.8-.1L7.5 25c1.2 1.1 4.7 2.7 6.3 2.5.5-.1 1.9-.6 2.3-1.6 0 .5-.2.9-.4 1.2.4.1.8.2 1.3.7-1.5-.3-1.8-.1-2.2.1-.6.3-1.3.3-1.6.3-1.2 0-2.6-.5-3.7-1 1.3 1.1 2.8 1.8 5 1.8h1c5-.5 7.2-5.5 7.7-8.4.4-2.3.4-10.1-.5-13.1-.7-2.1-1.6-2.9-2.1-2.9-.1 0-.2 0-.4.3-.8 1.3-1.2 1.6-5.1 4.4z"/></svg>