<svg id="Layer_1" xmlns="http://www.w3.org/2000/svg" viewBox="0 0 31.8 31.8"><path fill="#009B94" d="M16.4.6c-2-.1-4 .2-6 1-7.9 3-11.9 11.9-8.9 19.8s11.9 11.9 19.8 8.9c6.2-2.4 10-8.3 9.9-14.6 0-1.8-.3-3.5-1-5.3C28 4.5 22.4.8 16.4.6"/><path fill="none" stroke="#FFF" stroke-width="1.1" stroke-miterlimit="10" d="M16.4.6c-2-.1-4 .2-6 1-7.9 3-11.9 11.9-8.9 19.8s11.9 11.9 19.8 8.9c6.2-2.4 10-8.3 9.9-14.6 0-1.8-.3-3.5-1-5.3C28 4.5 22.4.8 16.4.6z"/><path fill="#FFF" d="M21.7 12.5l-2.4-2.4 2.9-2.9 2.3 2.4zM17.1 15.7L15 13.6l-.5.4 2.1 2.1c.1.1.3.1.4 0 .2-.1.2-.3.1-.4M14.4 18.4l-2.1-2.1-.4.4 2.1 2.1c.1.1.3.1.4 0 .2-.1.2-.3 0-.4M17.1 13.1l-.8-.8-.4.4.8.8c.1.1.3.1.4 0 .1-.1.1-.3 0-.4M14.5 15.7l-.8-.8-.4.4.8.8c.1.1.3.1.4 0 .1-.1.1-.3 0-.4M19.7 13l-2.1-2.1-.4.4 2.1 2.1c.1.1.3.1.4 0 .1 0 .1-.2 0-.4M25.3 9.9c-.1.1-.3.1-.4 0l-3-3c-.1-.1-.1-.3 0-.4s.3-.1.4 0l3 3c.1.1.1.3 0 .4M11.3 19.6l-1 1c-.2.2-.2.7 0 .9.2.2.7.2.9 0l1-1-.9-.9z"/><path fill="#FFF" d="M6.5 25.4v-.2l3.9-3.9h.2v.2l-3.9 3.9h-.2M11.9 19.9c-.9-.9-.9-2.4 0-3.3l6.9-7 3.3 3.3-6.9 7c-.9.9-2.4.9-3.3 0m11.6-6.5l-5.1-5.2c-.1-.1-.3-.1-.4 0-.1.1-.1.3 0 .4l.6.6-7 7c-1.1 1.1-1.1 2.8 0 3.9s2.8 1.1 3.9 0l7-7 .6.6c.1.1.3.1.4 0 .2 0 .2-.2 0-.3"/></svg>