<svg id="Layer_1" xmlns="http://www.w3.org/2000/svg" viewBox="0 0 790.4 299.8"><path opacity=".25" fill-rule="evenodd" clip-rule="evenodd" fill="#8ED5DE" d="M790.4 83.7c-.7 5.3-1.2 10.6-2.1 15.9-1.2 6.9-3.5 12.7-11.4 14.8-6.9 1.9-10.6 7.9-14.3 13.4-9.1 13.9-19.4 13.7-33.3 9.2-3.8-1.2-7.3-3.4-11-4.8-3.8-1.4-7.8-1.6-11.7.2-.6.3-1.5.8-1.5 1.2 0 1.1.3 2.3.8 3.3.2.5 1.1.8 1.6 1.1 12.9 7.1 12.5 6.9 7.4 19-2.6 6.2-7.7 10.6-10.9 16.4 1.7.8 3.1 1.9 3.9 1.7 4.4-1.4 10-5.7 12.7-4.3 6.8 3.7 14.7 1.3 21 5.2 2.6 1.6 4.3 3.7 2.1 6.3-9.1 10.6-18.4 21.1-27.7 31.5-1.9 2.1-4.7 2.9-7.3 1.7-7.6-3.3-15.6-3.2-23.6-3.6-14.6-.8-27.8 1.6-38.6 12.6-3.6 3.7-9 5.7-13.7 8.3-20.6 11.6-36.1 27.5-43.4 50.4-.6 1.9-1.3 3.8-2 5.7-4.4 11.8-4.4 11.9-17 9.4-9.3-1.9-18.7-2.3-27.8.3-10.3 3-18.1-.4-25.2-7.7-16.9-17.2-34-34.1-51-51.1-10.4-10.4-21-20.7-31.2-31.2-8-8.2-17.1-11.1-28.8-10.9-24 .5-48-.8-72.1-1.4-5.7-.2-10.4-1.8-11.9-8.4-4.1-19.1-19.8-25.2-35.7-27.1-31.8-3.8-63.9-5.1-96-4.8-12.2.1-23.8 3-35.2 7-5 1.8-10.1 3.5-15.1 5.3-30.3 10.9-61.8 9.3-93.1 8.8-11.4-.2-22.7-.2-34.1-.9-8.5-.5-12.2-3.8-13-9.9-1.2-8.7 1.8-15.5 9.7-17.4 9.4-2.2 15.1-6.3 18.5-15.8 4.4-12.4 14.9-19.5 27.5-20.3 14-.9 25.9-5.8 37.1-13.4 2.2-1.5 4.6-2.7 7-3.8 12.5-6 25.9-10.4 33.8-23.4 2.3-3.7 7.2-5.9 11-8.6 4.1-2.9 8.6-4 13.1-1.1 5.7 3.6 9.9 2 13.9-2.8 7-8.3 16.1-11.8 26.8-10.3 7 1 11.5-1.7 15.2-7.2 1.9-2.7 3.5-6.1 6.1-7.9 10.2-6.9 18.5-14.9 21.2-27.7.9-4.1 5.2-6 9.4-6.3 4.6-.3 9.5-.8 14 .1 19.2 4 38.7 2.3 58 2.8 24.7.6 49.4-.7 74.1 2.2 7.2.8 14.7-2 21.9-1.4 28.7 2.2 57.4-2.2 86.1.6 8.6.8 17.4-1.3 26-.8 36.1 2.1 72.1-1 108.1-.5 36.3.7 72.5.3 108.6.4 27 0 27 .4 34.1 26 2.4 8.9 0 16.8-.3 24.6-4.4 1.6-6.1-.6-8.1-2.3-3.3-2.8-7.3-3.8-11.3-2.6-12.1 3.7-24.1 7.8-36 12-.9.3-1.8 2.3-1.6 3.3.2 1.1 1.5 2.2 2.5 2.8 4.6 2.5 9.1 1.2 13.5-.5 7.3-2.7 14.3-3.5 20.8 1.9 2.3 1.9 4.7 2.3 7.5 1.1 7.5-3.5 12.8.6 17.8 5.4 1.4 2.7 2.8 5.5 4.2 8.3z"/></svg>