<svg id="Layer_1" xmlns="http://www.w3.org/2000/svg" viewBox="0 0 30.7 35.3"><path fill="#009B94" d="M17.4 18.4v-2.9c.6-.6.9-1.3.9-2.1v-2c0-1.2-.7-2.2-1.7-2.7.4-.4.7-.9.7-1.5 0-1.1-.9-2-2-2s-2 .9-2 2c0 .6.3 1.2.7 1.5-1 .5-1.7 1.5-1.7 2.7v2c0 .8.3 1.6.9 2.1v2.9c0 .8.7 1.5 1.5 1.5.2 0 .3 0 .5-.1.2.1.3.1.5.1 1 0 1.7-.6 1.7-1.5zM7.5 13.1c0 .8.7 1.5 1.5 1.5.2 0 .3 0 .5-.1.2.1.3.1.5.1.8 0 1.5-.7 1.5-1.5v-2.9c.6-.5.9-1.3.9-2.1v-2c0-1.2-.7-2.2-1.7-2.7.4-.4.7-.9.7-1.5 0-1.1-.9-2-2-2s-2 .9-2 2c0 .6.3 1.2.7 1.5-.8.5-1.5 1.6-1.5 2.7v2c0 .8.3 1.6.9 2.1v2.9zM19.2 13.1c0 .8.7 1.5 1.5 1.5.2 0 .3 0 .5-.1.2.1.3.1.5.1.8 0 1.5-.7 1.5-1.5v-2.9c.6-.6.9-1.3.9-2.1v-2c0-1.2-.7-2.2-1.7-2.7.4-.4.7-.9.7-1.5 0-1.1-.9-2-2-2s-2 .9-2 2c0 .6.3 1.2.7 1.5-1 .5-1.7 1.5-1.7 2.7v2c0 .8.3 1.6.9 2.1v2.9z"/><path fill="#502E88" d="M14.5 27.2c.1-1.4.5-5-5.1-7.7 0 0-1.6-.7-2.5-1.8-.1-.2-.3-.4-.4-.6l-.1-.1c-.1-.7-.4-3.4-.7-4.2-.3-.8-1-1.5-1.4-1.8-.1-.5-.5-1.5-1.5-1.7-.5-.1-1 0-1.4.3-.5.4-.9 1-1.1 1.9 0 .2-1.1 6.2.6 10.9.4 1 1.2 2.2 2.2 3l4.7 3.5c.4.3 1 1.1 1 1.2l-.3 4.6c0 .2 0 .3.2.5.1.1.3.2.4.2h4.8c.2 0 .3-.1.4-.2.1-.1.2-.3.2-.4V27.2zm-9.9-14c.1.4.3 1.4.5 2.5-.3-.1-.5-.2-.8-.3l-.2-2.9c.2.2.4.5.5.7zm8.7 13.9V34H9.8l.3-4c-.1-.8-1.2-1.9-1.5-2.1l-4.7-3.5c-.8-.7-1.5-1.7-1.8-2.5-1.6-4.4-.6-10-.5-10.3.1-.7.4-1 .6-1.1.1-.1.3-.1.5-.1s.4.4.5.7l.3 4.3c-.2.1-.4.1-.6.3-.7.6-.7 1.7 0 2.9 1.3 2.4 4.4 5.6 4.5 5.7.2.2.6.2.8 0 .2-.2.2-.6 0-.8 0 0-3.1-3.2-4.4-5.5-.5-.9-.4-1.4-.3-1.5.1-.1.6-.1 1.4.5.2.1.4.4.6.7.2.3.3.5.5.7 1.1 1.4 2.9 2.2 2.9 2.2 4.8 2.4 4.5 5.2 4.4 6.5zM30.3 11.4c-.2-.9-.5-1.5-1.1-1.9-.4-.3-.9-.4-1.4-.3-1 .2-1.4 1.3-1.5 1.7-.3.3-1 1.1-1.3 1.9-.3.8-.7 3.5-.7 4.2l-.1.1c-.1.2-.3.4-.4.6-.9 1.2-2.5 1.8-2.5 1.9-5.6 2.8-5.2 6.4-5.1 7.7v7.4c0 .2.1.3.2.4.1.1.3.2.4.2h4.8c.2 0 .3-.1.4-.2.1-.1.2-.3.2-.5l-.3-4.5c0-.2.6-1 1-1.3l4.7-3.6c1-.8 1.8-2 2.2-3 1.6-4.7.5-10.6.5-10.8zm-4.2 1.8c.1-.2.3-.5.5-.7l-.2 2.9c-.2.1-.5.1-.8.3.2-1.1.4-2.2.5-2.5zm2.5 8.7c-.3.8-1 1.8-1.8 2.5l-4.7 3.5c-.3.2-1.4 1.3-1.5 2.2l.3 3.9h-3.5v-6.9c-.1-1.3-.4-4.1 4.4-6.5.1 0 1.8-.8 2.9-2.2.2-.2.3-.4.5-.6.2-.3.4-.6.6-.7.8-.6 1.2-.6 1.4-.5.1.1.2.6-.3 1.5-1.3 2.3-4.3 5.5-4.4 5.5-.2.2-.2.6 0 .8.2.2.6.2.8 0 .1-.1 3.2-3.3 4.5-5.7.7-1.3.7-2.4 0-2.9-.2-.2-.4-.2-.6-.3l.3-4.3c.1-.3.3-.7.5-.7s.3 0 .5.1.4.4.6 1.1c.1.1 1.1 5.7-.5 10.2z"/></svg>