<svg id="Layer_1" xmlns="http://www.w3.org/2000/svg" viewBox="0 0 61.5 61.5"><circle fill="#FFF" cx="30.8" cy="30.8" r="30.8"/><g fill="#6B6662"><path d="M43 29.5l11.7-2.7V24.7L43 27.4zM30.4 32.6v-2.2L19 33.2l-.5.1-.3-.2-11.8-6.4v2l12.3 6.6zM43 32.6l11.7-2.8v-2.1L43 30.5z"/><path d="M30.4 35.6v-2.1L19 36.2l-.5.1-.3-.2-11.8-6.3v1.9l12.3 6.7zM43 35.8L54.7 33v-2.1L43 33.7z"/><path d="M30.4 38.8v-2.1L19 39.4l-.5.1-.3-.2L6.4 33v2l12.3 6.6zM43 39.1l11.7-2.8v-2.1L43 37z"/><path d="M19 42.7l-.5.1-.3-.2-11.8-6.4v2l12.3 6.7 11.7-2.8V40zM43 25.9v.4l11.7-2.8-12.3-6.6-11.2 2.7 1.5.8 6.7-1.6s.1 0 .1.1c.5.3 1.4.4 2.3.4.5 0 1-.1 1.5-.2l6.2 3.3c-1.2.3-1.6.9-.8 1.3L42 25.4l1 .5zM29.9 29.4l-1.5-.8-6.6 1.6c-.5-.3-1.4-.4-2.3-.4-.5 0-1 .1-1.5.2h-.1l-6.2-3.4h.1c1.2-.3 1.6-.9.8-1.3h-.1l6.6-1.6-1.5-.8-11.2 2.5L18.7 32l11.2-2.6z"/><path d="M19.6 22.5l12 6.4v12.7l10.2-2.5V26.7l-12.1-6.6z"/></g></svg>