<svg id="Layer_1" xmlns="http://www.w3.org/2000/svg" viewBox="0 0 71.2 31.8"><path fill="#A8A29F" d="M55.9.6c-2-.1-4 .2-6 1C42 4.6 38 13.5 41 21.4s11.9 11.9 19.8 8.9c6.2-2.4 10-8.3 9.9-14.6 0-1.8-.3-3.5-1-5.3C67.4 4.5 61.9.8 55.9.6"/><path fill="none" stroke="#FFF" stroke-width="1.1" stroke-miterlimit="10" d="M55.9.6c-2-.1-4 .2-6 1C42 4.6 38 13.5 41 21.4s11.9 11.9 19.8 8.9c6.2-2.4 10-8.3 9.9-14.6 0-1.8-.3-3.5-1-5.3C67.4 4.5 61.9.8 55.9.6z"/><path fill="#FFF" d="M59.1 23.8c0 .6.5 1.2 1.2 1.2s1.2-.5 1.2-1.2c0-.6-.5-1.2-1.2-1.2-.6 0-1.2.5-1.2 1.2"/><path fill="#FFF" d="M60.3 25.7c-1.1 0-2-.9-2-1.9 0-1.1.9-1.9 2-1.9s2 .9 2 1.9c0 1-.9 1.9-2 1.9m0-4.9c-1 0-1.9.5-2.5 1.3l-1.6-.6v1.3l1.1.4c0 .2-.1.4-.1.6 0 1.6 1.4 3 3 3s3-1.3 3-3c.1-1.7-1.2-3-2.9-3m-.8-5.7c1.2-1.5 1.9-3.4 1.9-5.2 0-.8-.1-1.5-.3-2.1-.3-.9-1.1-1.4-2-1.6-.3-.1-.7-.1-1.1-.2-.2-.3-.6-.5-1-.5-.7 0-1.2.5-1.2 1.2s.6 1.2 1.2 1.2c.5 0 .9-.3 1.1-.7.6.1 1 .1 1.2.3.3.2.4.3.6.7.1.3.2.9.2 1.6 0 1.5-.7 3.2-1.7 4.5-1 1.3-2.3 2.1-3.4 2.1s-2.4-.8-3.4-2.1-1.7-3-1.7-4.5c0-.8.1-1.3.2-1.6.2-.5.5-.7 1.1-.9.2 0 .4-.1.7-.1.4.5.8.8 1.3.8.7 0 1.2-.5 1.2-1.2s-.6-1.2-1.2-1.2c-.4 0-.8.2-1 .5-.7.1-1.4.2-1.9.5s-.9.7-1.1 1.3c-.2.6-.3 1.2-.3 2.1 0 1.9.8 3.8 2 5.2 1 1.2 2.2 2.2 3.6 2.5v5.6c0 1.1-.9 1.9-2 1.9s-2-.9-2-1.9c0-1.1.9-1.9 2-1.9.2 0 .5 0 .7.1.2.1.3.1.3.1l.2.1v-1.3c-.3-.1-.7-.2-1.2-.2-1.7 0-3.2 1.4-3.2 3.1 0 1.7 1.4 3.1 3.2 3.1 1.7 0 3.2-1.4 3.2-3.1v-5.5c1.4-.3 2.8-1.3 3.8-2.7"/><g><path fill="#A8A29F" d="M16.4.6c-2-.1-4 .2-6 1-7.9 3-11.9 11.9-8.9 19.8s11.9 11.9 19.8 8.9c6.2-2.4 10-8.3 9.9-14.6 0-1.8-.3-3.5-1-5.3C28 4.5 22.4.8 16.4.6"/><path fill="none" stroke="#FFF" stroke-width="1.1" stroke-miterlimit="10" d="M16.4.6c-2-.1-4 .2-6 1-7.9 3-11.9 11.9-8.9 19.8s11.9 11.9 19.8 8.9c6.2-2.4 10-8.3 9.9-14.6 0-1.8-.3-3.5-1-5.3C28 4.5 22.4.8 16.4.6z"/><path fill="#FFF" d="M19.7 23.8c0 .6.5 1.2 1.2 1.2s1.2-.5 1.2-1.2c0-.6-.5-1.2-1.2-1.2s-1.2.5-1.2 1.2"/><path fill="#FFF" d="M20.9 25.7c-1.1 0-2-.9-2-1.9 0-1.1.9-1.9 2-1.9s2 .9 2 1.9c-.1 1-.9 1.9-2 1.9m0-4.9c-1 0-1.9.5-2.5 1.3l-1.6-.6v1.3l1.1.4c0 .2-.1.4-.1.6 0 1.6 1.4 3 3 3s3-1.3 3-3c.1-1.7-1.3-3-2.9-3m-.8-5.7c1.2-1.5 1.9-3.4 1.9-5.2 0-.8-.1-1.5-.3-2.1-.3-.9-1.1-1.4-2-1.6-.3-.1-.7-.1-1.1-.2-.2-.3-.6-.5-1-.5-.7 0-1.2.5-1.2 1.2 0 .8.6 1.3 1.3 1.3.5 0 .9-.3 1.1-.7.6.1 1 .1 1.2.3.3.2.4.3.6.7.1.3.2.9.2 1.6 0 1.5-.7 3.2-1.7 4.5-1 1.3-2.3 2.1-3.4 2.1s-2.4-.8-3.4-2.1-1.7-3-1.7-4.5c0-.8.1-1.3.2-1.6.2-.5.5-.7 1.1-.9.2 0 .4-.1.7-.1.2.4.7.7 1.2.7.6 0 1.2-.5 1.2-1.2s-.6-1.2-1.2-1.2c-.4 0-.8.2-1 .5-.7.1-1.4.2-1.9.5s-.9.7-1.1 1.3c-.3.5-.4 1.2-.4 2 0 1.9.8 3.8 2 5.2 1 1.2 2.2 2.2 3.6 2.5v5.6c0 1.1-.9 1.9-2 1.9s-2-.9-2-1.9c0-1.1.9-1.9 2-1.9.2 0 .5 0 .7.1.2.1.3.1.3.1l.2.1v-1.3c-.3-.1-.7-.2-1.2-.2-1.7 0-3.2 1.4-3.2 3.1 0 1.7 1.4 3.1 3.2 3.1 1.7 0 3.2-1.4 3.2-3.1v-5.5c1.4-.2 2.8-1.2 3.9-2.6"/></g><g><path fill="#6B6662" d="M36.2.6c-2-.1-4 .2-6 1-7.9 3-11.9 11.9-8.9 19.8s11.9 11.9 19.8 8.9c6.2-2.4 10-8.3 9.9-14.6 0-1.8-.3-3.5-1-5.3C47.7 4.5 42.1.8 36.2.6"/><path fill="none" stroke="#FFF" stroke-width="1.1" stroke-miterlimit="10" d="M36.2.6c-2-.1-4 .2-6 1-7.9 3-11.9 11.9-8.9 19.8s11.9 11.9 19.8 8.9c6.2-2.4 10-8.3 9.9-14.6 0-1.8-.3-3.5-1-5.3C47.7 4.5 42.1.8 36.2.6z"/><path fill="#FFF" d="M39.4 23.8c0 .6.5 1.2 1.2 1.2s1.2-.5 1.2-1.2c0-.6-.5-1.2-1.2-1.2s-1.2.5-1.2 1.2"/><path fill="#FFF" d="M40.6 25.7c-1.1 0-2-.9-2-1.9 0-1.1.9-1.9 2-1.9s2 .9 2 1.9c0 1-.9 1.9-2 1.9m0-4.9c-1 0-1.9.5-2.5 1.3l-1.6-.6v1.3l1.1.4c0 .2-.1.4-.1.6 0 1.6 1.4 3 3 3s3-1.3 3-3c.1-1.7-1.2-3-2.9-3m-.8-5.7c1.2-1.5 1.9-3.4 1.9-5.2 0-.8-.1-1.5-.3-2.1-.3-.9-1.1-1.4-2-1.6-.3-.1-.7-.1-1.1-.2-.2-.3-.6-.5-1-.5-.7 0-1.2.5-1.2 1.2s.6 1.2 1.2 1.2c.5 0 .9-.3 1.1-.7.6.1 1 .1 1.2.3.3.2.4.3.6.7.1.3.2.9.2 1.6 0 1.5-.7 3.2-1.7 4.5-1 1.3-2.3 2.1-3.4 2.1s-2.4-.8-3.4-2.1-1.7-3-1.7-4.5c0-.8.1-1.3.2-1.6.2-.5.5-.7 1.1-.9.2 0 .4-.1.7-.1.4.5.8.8 1.3.8.7 0 1.2-.5 1.2-1.2s-.6-1.2-1.2-1.2c-.4 0-.8.2-1 .5-.7.1-1.4.2-1.9.5s-.9.7-1.1 1.3c-.2.6-.3 1.2-.3 2.1 0 1.9.8 3.8 2 5.2 1 1.2 2.2 2.2 3.6 2.5v5.6c0 1.1-.9 1.9-2 1.9s-2-.9-2-1.9c0-1.1.9-1.9 2-1.9.2 0 .5 0 .7.1.2.1.3.1.3.1l.2.1v-1.3c-.3-.1-.7-.2-1.2-.2-1.7 0-3.2 1.4-3.2 3.1 0 1.7 1.4 3.1 3.2 3.1 1.7 0 3.2-1.4 3.2-3.1v-5.5c1.4-.3 2.7-1.3 3.8-2.7"/></g></svg>