<svg id="Layer_1" xmlns="http://www.w3.org/2000/svg" viewBox="0 0 61.5 61.5"><circle fill="#FFF" cx="30.8" cy="30.8" r="30.8"/><path fill="#502E88" d="M47.4 16.1l-10.7 8L47.1 38l10.7-8-10.4-13.9zm.9 17.8c-.7 0-1.3-.6-1.2-1.3 0-.7.6-1.3 1.3-1.2.7 0 1.3.6 1.2 1.3 0 .7-.6 1.2-1.3 1.2z"/><path fill="#FFF" d="M21.6 25.3l-6.6-5c-.1-.1-.3-.2-.5-.2-.3 0-.5.1-.6.3l-7.5 9.7c-.1.2-.2.4-.2.6 0 .2.1.4.3.5l6.6 5.1c.1.1.3.2.5.2.3 0 .5-.1.6-.3l7.4-9.7c.5-.4.4-.9 0-1.2z"/><path fill="#502E88" d="M23.7 24.8L15 18.1c-.5-.4-1.3-.3-1.6.2L4.3 30.1c-.4.5-.3 1.3.2 1.6l8.7 6.7c.5.4 1.3.3 1.6-.2l9.1-11.8c.4-.5.3-1.2-.2-1.6zm-10 11.7c-.2 0-.3-.1-.5-.2l-6.6-5.1c-.2-.1-.3-.3-.3-.5s0-.4.2-.6l7.5-9.7c.2-.2.4-.3.6-.3.2 0 .3.1.5.2l6.6 5.1c.4.3.4.8.1 1.1l-7.4 9.7c-.2.2-.5.3-.7.3z"/><circle fill="#424143" cx="13.2" cy="32.8" r="1.3"/><path fill="#FFF" d="M30.2 32.8l-2.4 2.7c-.2.2-.5.3-.8.3-.5 0-1.1-.3-1.6-.7l-.2-.1c-.5-.5-.9-1.1-.9-1.6 0-.3.1-.6.2-.8 2.6-3 3.3-3.6 3.6-3.8 0 0 .9-.6 2.1-1.3l-3.7.9-7.1 9.3.9.7h.3c1 0 1.8.7 1.8 1.7l3.2 2.5c.6.1 1 .5 1.3 1l.6.5h.2c.9 0 1.6.5 1.8 1.3l2.8 2c.1.1.3 0 .5-.2l.1-.2c.1-.2.1-.4 0-.5l-3.6-2.6 1.3-1.8 4.5 3.2h.1c.1 0 .3-.1.4-.2l.1-.2c.1-.2.1-.4 0-.5l-4.4-3.1 1.4-1.8 5.1 3.6c.1.1.3 0 .5-.2l.1-.2c.1-.1.1-.3.1-.4 0 0 0-.1-.1-.2l-5.1-3.6 1.4-1.9 5.9 4.3h.1c.1 0 .3-.1.4-.2l.1-.2c.1-.1.1-.2.1-.4 0-.1-.1-.1-.1-.2L31 32.6l-.8.2z"/><path fill="#502E88" d="M42.3 38.9l-.8-.5 2.7-2.1-6.7-8.9-1.5-2.1s-.5.1-1.4.2c-.2 0-.5.2-.9.4h-.1c-.5-.4-1.1-.6-1.7-.5l-5.8 1.4-.8.2-8.4 11.1 2.3 1.7c-.1.2-.2.3-.2.5 0 .8.7 1.5 1.5 1.5.3 0 .6-.1.8-.2l.4.3c-.3.3-.5.7-.5 1.1 0 .9.7 1.6 1.6 1.6.3 0 .6-.1.9-.3v.3c0 .8.7 1.5 1.5 1.5.4 0 .7-.1 1-.4v.4c0 .9.7 1.6 1.6 1.6.4 0 .8-.2 1.1-.4l.1-.1 2.5 1.8c.3.2.7.3 1.1.3.7 0 1.3-.3 1.8-.9l.1-.2c.2-.3.4-.7.4-1 .2.1.4.1.5.1.7 0 1.3-.3 1.7-.9l.1-.2c.2-.3.4-.7.4-1.1h.4c.7 0 1.3-.3 1.8-.9l.1-.2c.2-.3.4-.7.4-1.1.2.1.4.1.6.1.7 0 1.3-.3 1.8-.9l.1-.2c.3-.5.5-1.1.4-1.6-.2-.6-.5-1.1-.9-1.4zm-1 1.9l-.1.2c-.1.1-.3.2-.4.2h-.1l-5.9-4.3-1.4 1.9 5.1 3.6c.1 0 .1.1.1.2s0 .3-.1.4l-.1.2c-.1.2-.4.3-.5.2l-5.1-3.6-1.4 1.8 4.4 3.1c.1.1.1.3 0 .5l-.1.2c-.1.1-.2.2-.4.2h-.1l-4.5-3.2-1.3 1.8 3.6 2.6c.1.1.1.3 0 .5l-.1.2c-.1.2-.4.3-.5.2l-2.8-2c-.2-.8-1-1.3-1.8-1.3h-.2l-.6-.5c-.3-.5-.7-.9-1.3-1l-3.2-2.5c-.1-.9-.9-1.7-1.8-1.7h-.3l-.9-.7 7.1-9.3 3.7-.9c-1.1.7-2.1 1.3-2.1 1.3-.2.2-.9.8-3.6 3.8-.2.2-.3.5-.2.8 0 .5.4 1.1.9 1.6l.2.2c.5.4 1.1.7 1.6.7.3 0 .6-.1.8-.3l2.4-2.7.8-.2 10.4 7.7s.1.1.1.2c-.2-.3-.2-.2-.3-.1z"/><circle fill="#FFF" cx="48.3" cy="32.7" r="1.3"/></svg>