<svg id="Layer_1" xmlns="http://www.w3.org/2000/svg" viewBox="0 0 61.5 61.5"><circle fill="#FFF" cx="30.8" cy="30.8" r="30.8"/><g fill="#009B94"><path opacity=".5" d="M18.1 11.2c2.8 0 5 2.3 5 5 0 2.8-2.3 5-5 5-2.8 0-5-2.3-5-5s2.2-5 5-5zM43.3 11.2c2.8 0 5 2.3 5 5 0 2.8-2.3 5-5 5-2.8 0-5-2.3-5-5s2.2-5 5-5z"/><path d="M30.7 11.2c2.8 0 5 2.3 5 5 0 2.8-2.3 5-5 5-2.8 0-5-2.3-5-5s2.2-5 5-5zM38 36c.2-.3.4-.6.3-1l-1.1-8.9c-.2-1.3-1.2-2.3-2.5-2.3h-7.8c-1.3 0-2.4 1-2.5 2.2l-1.2 9c0 .4.1.7.3 1 .2.3.6.4.9.4h.8l-2 5.9c-.1.4-.1.8.2 1.1.2.3.6.5 1 .5h1.5l.9 5.5c.2 1.2 1.3 2.1 2.5 2.1h2.9c1.2 0 2.3-.9 2.5-2.1l.9-5.5H37c.4 0 .8-.2 1-.5.2-.3.3-.8.2-1.1l-2-5.9h.8c.4 0 .7-.2 1-.4z"/><path opacity=".5" d="M21.8 25.7c.1-.7.3-1.3.6-1.8-.1 0-.3-.1-.4-.1h-7.8c-1.3 0-2.4 1-2.5 2.3l-1.1 11.5c0 .4.1.7.3 1 .2.3.6.4.9.4h1.4l1 7.8c.1 1.3 1.2 2.3 2.5 2.3h2.8c1.3 0 2.4-1 2.5-2.3l.1-1.1c-.3-.2-.6-.4-.8-.7-.7-1-.9-2.3-.5-3.4L22 38l-.4-.4c-.7-.8-1-1.9-.9-3l1.1-8.9zM49.7 26.1c-.1-1.3-1.2-2.3-2.5-2.3h-7.8c-.2 0-.3.1-.4.1.3.6.6 1.2.7 1.9l1.1 8.9c.1 1.1-.2 2.2-.9 3l-.4.4 1.2 3.5c.4 1.2.2 2.4-.5 3.4-.2.3-.5.5-.8.7l.1 1.1c.1 1.3 1.2 2.3 2.5 2.3h2.8c1.3 0 2.4-1 2.5-2.3l1-7.8h1.4c.4 0 .7-.2.9-.4.2-.3.4-.6.3-1l-1.2-11.5z"/></g></svg>