<svg id="Layer_1" xmlns="http://www.w3.org/2000/svg" viewBox="0 0 85.5 31.7"><path fill="#03547B" d="M51.9.5c-2-.1-4 .2-6 1C38 4.5 34 13.4 37 21.3s11.9 11.9 19.8 8.9c6.2-2.4 10-8.3 9.9-14.6 0-1.8-.3-3.5-1-5.3C63.5 4.5 57.9.7 51.9.5"/><path fill="#97C3C1" stroke="#FFF" stroke-miterlimit="10" d="M51.9.5c-2-.1-4 .2-6 1C38 4.5 34 13.4 37 21.3s11.9 11.9 19.8 8.9c6.2-2.4 10-8.3 9.9-14.6 0-1.8-.3-3.5-1-5.3C63.5 4.5 57.9.7 51.9.5z"/><path fill="#FFF" d="M48.6 9.4c0-.4.3-.8.8-.8h4.1c.4 0 .8.3.8.8v1h.7v-1c0-.9-.7-1.6-1.6-1.6h-4.1c-.9 0-1.6.7-1.6 1.6v1h.9v-1zM57.2 10.4H45.4c-2.1 0-3.7 1.7-3.7 3.7v6.1c0 2.1 1.7 3.7 3.7 3.7H57c2.1 0 3.7-1.7 3.7-3.7v-6.1c.2-2.1-1.4-3.7-3.5-3.7"/><path fill="#009B94" d="M56.3 17.1c0 2.7-2.2 4.9-4.9 4.9s-4.9-2.2-4.9-4.9 2.2-4.9 4.9-4.9 4.9 2.2 4.9 4.9"/><path fill="#FFF" d="M55 16.1h-2.5v-2.6h-2.2v2.6h-2.5v2.1h2.5v2.6h2.2v-2.6H55z"/><g><path fill="#03547B" d="M70.2.5c-2-.1-4 .2-6 1-7.9 3-11.9 11.9-8.9 19.8s11.9 11.9 19.8 8.9c6.2-2.4 10-8.3 9.9-14.6 0-1.8-.3-3.5-1-5.3C81.7 4.5 76.2.7 70.2.5"/><path fill="#009B94" stroke="#FFF" stroke-miterlimit="10" d="M70.2.5c-2-.1-4 .2-6 1-7.9 3-11.9 11.9-8.9 19.8s11.9 11.9 19.8 8.9c6.2-2.4 10-8.3 9.9-14.6 0-1.8-.3-3.5-1-5.3C81.7 4.5 76.2.7 70.2.5z"/><path fill="#FFF" d="M66.8 9.4c0-.4.3-.8.8-.8h4.1c.4 0 .8.3.8.8v1h.9v-1c0-.9-.7-1.6-1.6-1.6h-4.1c-.9 0-1.6.7-1.6 1.6v1h.9v-1zM75.5 10.4H63.8c-2.1 0-3.7 1.7-3.7 3.7v6.1c0 2.1 1.7 3.7 3.7 3.7h11.6c2.1 0 3.7-1.7 3.7-3.7v-6.1c.1-2.1-1.6-3.7-3.6-3.7"/><path fill="#009B94" d="M74.5 17.1c0 2.7-2.2 4.9-4.9 4.9s-4.9-2.2-4.9-4.9 2.2-4.9 4.9-4.9 4.9 2.2 4.9 4.9"/><path fill="#FFF" d="M73.3 16.1h-2.6v-2.6h-2.2v2.6H66v2.1h2.5v2.6h2.2v-2.6h2.6z"/></g><g><path fill="#03547B" d="M16.4.5c-2-.1-4 .2-6 1-7.9 3-11.9 11.9-8.9 19.8s11.9 11.9 19.8 8.9c6.2-2.4 10-8.3 9.9-14.6 0-1.8-.3-3.5-1-5.3C28 4.5 22.4.7 16.4.5"/><path fill="#97C3C1" stroke="#FFF" stroke-miterlimit="10" d="M16.4.5c-2-.1-4 .2-6 1-7.9 3-11.9 11.9-8.9 19.8s11.9 11.9 19.8 8.9c6.2-2.4 10-8.3 9.9-14.6 0-1.8-.3-3.5-1-5.3C28 4.5 22.4.7 16.4.5z"/><path fill="#FFF" d="M13.1 9.4c0-.4.3-.8.8-.8H18c.4 0 .8.3.8.8v1h.9v-1c0-.9-.7-1.6-1.6-1.6H14c-.9 0-1.6.7-1.6 1.6v1h.9v-1zM21.7 10.4H10c-2.1 0-3.7 1.7-3.7 3.7v6.1c0 2.1 1.7 3.7 3.7 3.7h11.6c2.1 0 3.7-1.7 3.7-3.7v-6.1c.1-2.1-1.6-3.7-3.6-3.7"/><path fill="#009B94" d="M20.7 17.1c0 2.7-2.2 4.9-4.9 4.9S11 19.8 11 17.1s2.2-4.9 4.9-4.9 4.8 2.2 4.8 4.9"/><path fill="#FFF" d="M19.5 16.1h-2.6v-2.6h-2.1v2.6h-2.6v2.1h2.6v2.6h2.1v-2.6h2.6z"/></g><g><path fill="#03547B" d="M34.6.5c-2-.1-4 .2-6 1-7.9 3-11.9 11.9-8.9 19.8s11.9 11.9 19.8 8.9c6.2-2.4 10-8.3 9.9-14.6 0-1.8-.3-3.5-1-5.3C46.2 4.5 40.6.7 34.6.5"/><path fill="#009B94" stroke="#FFF" stroke-miterlimit="10" d="M34.6.5c-2-.1-4 .2-6 1-7.9 3-11.9 11.9-8.9 19.8s11.9 11.9 19.8 8.9c6.2-2.4 10-8.3 9.9-14.6 0-1.8-.3-3.5-1-5.3C46.2 4.5 40.6.7 34.6.5z"/><path fill="#FFF" d="M31.3 9.4c0-.4.3-.8.8-.8h4.1c.4 0 .8.3.8.8v1h.9v-1c0-.9-.7-1.6-1.6-1.6h-4.1c-.9 0-1.6.7-1.6 1.6v1h.9v-1zM39.9 10.4H28.1c-2.1 0-3.7 1.7-3.7 3.7v6.1c0 2.1 1.7 3.7 3.7 3.7h11.6c2.1 0 3.7-1.7 3.7-3.7v-6.1c.3-2.1-1.4-3.7-3.5-3.7"/><path fill="#009B94" d="M39 17.1c0 2.7-2.2 4.9-4.9 4.9s-4.9-2.2-4.9-4.9 2.2-4.9 4.9-4.9 4.9 2.2 4.9 4.9"/><path fill="#FFF" d="M37.7 16.1h-2.5v-2.6H33v2.6h-2.5v2.1H33v2.6h2.2v-2.6h2.5z"/></g></svg>