<svg id="Layer_1" xmlns="http://www.w3.org/2000/svg" viewBox="0 0 35.7 28.3"><path fill="#FFF" d="M35.7 17.8c0-5-4.5-9.1-10-9.1s-10 4.1-10 9.1 4.5 9.1 10 9.1c1.7 0 3.4-.4 4.8-1.1l4.4 2.5-1.4-4.7c1.4-1.6 2.2-3.6 2.2-5.8zm-14.4.2c-.3 0-.6-.3-.6-.6s.3-.6.6-.6.6.3.6.6c0 .4-.3.6-.6.6zm2.9 0c-.3 0-.6-.3-.6-.6s.3-.6.6-.6.6.3.6.6c0 .4-.2.6-.6.6zm2.9 0c-.3 0-.6-.3-.6-.6s.3-.6.6-.6.6.3.6.6c0 .4-.3.6-.6.6zm2.7 0c-.3 0-.6-.3-.6-.6s.3-.6.6-.6.6.3.6.6c0 .4-.3.6-.6.6z"/><path fill="#502E88" d="M12 0C5.4 0 0 4.4 0 9.8c0 2.8 1.5 5.3 3.8 7.1l-1.4 5.9L7 18.6c1.6.6 3.3.9 5.1.9 6.6 0 12-4.4 12-9.8C24.1 4.4 18.7 0 12 0z"/><g fill="#FFF"><path d="M10.5 7.8c0-.7-.4-1.2-1.2-1.2-.5 0-1 .3-1.4.7l-.6-.5c.5-.6 1.2-1 2.1-1 1.3 0 2.1.8 2.1 2 0 1.6-2 2.3-1.8 4h-.9c-.3-1.9 1.7-2.7 1.7-4zm-1.2 5c.4 0 .7.3.7.8 0 .4-.3.8-.7.8-.4 0-.7-.3-.7-.8-.1-.5.2-.8.7-.8zM13.8 12.8c.4 0 .7.3.7.8 0 .4-.3.8-.7.8-.4 0-.7-.3-.7-.8s.3-.8.7-.8zm-.4-5.7V5.9h1v1.2l-.1 4.7h-.7l-.2-4.7z"/></g></svg>