<svg id="Layer_1" xmlns="http://www.w3.org/2000/svg" viewBox="0 0 36.2 34.9"><path fill="#502E88" d="M7.3 5.5c1.5 0 2.7-1.2 2.7-2.7C10 1.3 8.8.1 7.3.1 5.8.1 4.6 1.3 4.6 2.8c0 1.5 1.2 2.7 2.7 2.7M15.3 16.9l-3.1-2.5-3.1-7.2c-.3-.6-.9-1-1.4-1H5.5c-.5 0-1 .3-1.2.8 0 .1-.1.1-.1.2C-.6 14 .8 10.7.1 18.7c-.1 1.5 2.1 1.8 2.2.2l.4-5.3 1.4-1.8.1 6-1 9.1L1.5 33c-.5 2 2.4 2.7 2.9.7 0 0 1.4-5.5 1.4-5.8.2-.5.2-.7.3-1.2l.5-4.4c0-.2.2-.2.2 0l.5 4.7v6.4c0 2 3 2 3 0v-6c0-.6-.1-1.3-.1-1.3l-1-9.2v-.1-3.4c.8 1.6 1.1 2.2 1.6 2.8.5.6 1.2 1 3.2 2.6 1.2.9 2.7-.8 1.3-1.9"/><path fill="#009B94" d="M23.9 5.3c1.5 0 2.7-1.2 2.7-2.7 0-1.5-1.2-2.7-2.7-2.7-1.5 0-2.7 1.2-2.7 2.7 0 1.5 1.2 2.7 2.7 2.7M20.1 33.1c-.5 1.9 2 2.6 2.5.6l1.3-5.4h-2.7l-1.1 4.8zM33.2 17l-2.7-2.3-3.3-7.5c-.2-.5-.8-.9-1.4-.9h-2.1c-.5 0-1 .3-1.3.8 0 .1-.1.1-.1.2-4.7 6.7-3.4 3.3-3.8 10.9v.3c0 1.3 2 1.4 2 0l.4-4.9 1.4-1.8.1 3.4-2.7 12.7h9.7c.3 0 .3-.3.3-.4-.3-4.1-1.1-7.6-2.2-10.9v-3.1c.8 1.6 1 1.9 1.4 2.5.5.6 1.2 1 3.3 2.6 1.1.8 2.4-.6 1-1.6M24.3 33.4c0 2 4.2 2 4.2 0l-1.6-5.1h-2.7l.1 5.1z"/><path fill="#502E88" d="M36.2 20.9c0-1.4-1.2-2.6-2.6-2.6-.4 0-.7.3-.7.7 0 .4.3.7.7.7.6 0 1.1.5 1.1 1.1V34c0 .4.3.7.7.7.4 0 .7-.3.7-.7.1.1.1-12 .1-13.1"/></svg>