<svg id="Layer_1" xmlns="http://www.w3.org/2000/svg" viewBox="0 0 181.2 80.8"><g fill="#C4B9D7"><path d="M181.2 39.8v-.2l-.1-.4-.1-.1h-.2l-.1.1h-.5l-.4-.1h-.4l-.5.1h-.1l-.1.1h-.1l-.2.1-1.3.1-.8.1-.5.1h-.2l-.2.1-.3.1-.1.1-.2.1-.2.1-.2.1-.1.2v.4l-.1.9-.1 1-.1 1v1l-.1.1-.2.2h-.2l-.2.1-.2.1-.3.1-.1.1-.3.2-.1.1-.1.1-.1.2-.2.1v.2l-.1.1v.2l-.1.2V47.5h.1v.1h.1v.1l.1.1-.3.4-.2.2-.1.3-.2.2-.2.2-.2.2-.1.2-.2.1-.2.1-.2.2-.1.1-.4.2-.1.1-.1.1-.1.1-.1.1-.1.1-.1.1v.2l-.1.2v.2l.1.1v.1l.1.1v.2l.2.1.1.1.2.1-.6.5-.7.4V53.4l.1.2.1.3-.1.3v.3l-.1.3v1.6l-.2.4-.3.5-.1.3v.6l-.1.7-.1.8-.1.3v.8l-.1.4v.5l.1.3v.4l.1.2v.2l.1.2.1.2.1.2.1.2.1.1h.1l.1.1H168.5l.2-.1.2-.1.2-.1.1-.2.2-.1.1-.2.1-.1.1-.3.1-.2.1-.3.1-.4.1-.3.1-.5v-.3l.1-.3v-.2l.1-.3v-.6l.1-.3v-.7l.1-.2.1-.1v-.1l.1-.2v-.1l.2-.2.1-.1.1-.2.2-.2.2-.2.1-.2.1-.2.2-.3.3-.3.2-.2.2-.3.3-.3.2-.2.3-.3.2-.2.2-.3.2-.3.4-.5.1-.2.2-.3.2-.3.1-.2.2-.4.1-.2.2-.4.1-.3.1-.3.3-.5.1-.2.1-.3.2-.3.2-.4.3-.4.2-.3.2-.3.2-.3.2-.3.2-.3 1.1-1.1.3-.4.2-.2.1-.3.1-.1.2-.2.1-.3.2-.2.1-.2.2-.4.1-.2V43l.1-.2.1-.2v-.2l.1-.2V42l.1-.3v-.3l.1-.4v-.9zM169.5 74.6v-.2l-.2-.2-.1-.3-.1-.2-.2-.2-.1-.2-.1-.1v-.1l-.2-1.5-.1-.7-.2-.7-.3-.1h-1.1l-.2.1h-.2l-.4.1-.1.1h-.3l-.1.1h-.2l-.3.1-.3.1-.3.1-.3.2-.2.1H162l-1 .1-1 .1-.1-.1-.2-.3-.2-.2-.2-.3-.2-.2h-.7l-.3.1-.2.1-.3.1-.2.1-.2.2-.3.2-.2.2-.2.2.1-.4v-.9l-.1-.4v-.4l-.1-.3-.2-.2-.1-.3-.2-.2-.2-.1-.2-.1-.1-.1-.5-.3-.2-.3-.4-.4-.1-.2-.1-.4-.2-.3-.1-.4-.1-.3-.1-.4v-.7l-.1-.4V63.6l-.1-.1v-.1l-.2-.2-.2-.1-.1-.2-.2-.1-.2-.1-.2-.1-.2-.1-.3-.1h-.3l-.4-.1-.9-.1-.9-.2-.9-.2-.8-.2-.2-.2-.2-.1-.1-.1-.1-.1-.2-.1h-.4l-.3-.1h-.8l-.2-.1h-.1l-.2-.1-.1-.1h-.2l-.1-.1-.1-.2-.1-.1-.1-.1-.1-.2-.1-.1v-.2l-.1-.1h-.1v-.1l-.1-.1v-.1l-.1-.1-.2-.1H143l-.1.1-.1.1-.1.1-1-.1-1-.1-.2-.1-.2-.2-.1-.1-.2-.1v-.2l.2-.1h.1l.1-.1h1.1l1.1.1h.8l.8.1.3.2.3.3.3.2.3.3.2.2.3.1.2.1h.3l.9.2h.5l.5.1.2.1h.2l.3.1.2.1.3.2.3.1h.3l.4.1.8.2.9.1h.1l.1.1h.2l.1.1.1.1.1.1.1.1.1.1.6 1 .5.8.2.3v.1l.1.1h.1l.2.2.2.1.3.3.3.2.2.1.3.2.1.1.2.1V65.6l.2.1.2.2.2.2.1.2.2.3.2.3.3.2.2.3.3.2h.2l.3.1h1.2l.3-.1h.2l.1-.1.2-.1.2-.1.2-.1.1-.1.1-.1.1-.1.1-.1v-.2l.1-.1V66l-.1-.1-.1-.1h-.1l-.2-.1h-.2v-.1l.1-.2.2-.2.1-.2.1-.1.1-.2v-.1l.1-.1v-.4l-.1-.2v-.1l-.1-.2-.1-.2-.1-.1-.1-.1-.2-.1-.1-.1-.1-.1h-.2l-.4-.1-.3-.1-.4-.2-.3-.1-.4-.2-.3-.1-.3-.2-.3-.2-.2-.2-.4-.3-.1-.1-.2-.1v-.2l-.6-.2-.2-.1h-.3v-.1l-.1-.1-.3-.1-.2-.1-.3-.2h-.2l-.1-.1-.1-.1-.1-.1-.1-.2-.1-.1-.2-.2-.2-.3-.1-.3-.1-.2-.1-.1-.1-.1-.2-.3v-.2l-.1-.2v-.1l-.4-.6-.2-.3-.2-.3-.2-.3-.2-.2-.5-.6-.2-.2-.2-.2-.2-.2-.2-.2-.3-.2-.2-.2-.3-.2-.2-.1-.3-.1-.2-.2-.3-.1-.3-.1-.3-.1h-.3l-.3-.1h-.3l.1-.2.2-.1h.1l.2-.1h.2l.2-.1h1l.2.1h.2l.7.6.6.6.6.6.7.7.6.6.6.7.6.7.5.7.4.4.4.5.1.2.2.1.3.2h.1l.2.1.3.1.2.1h.8l.2-.1h.2l.2-.1.1-.1v-.7l-.1-.2-.1-.1-.1-.1-.1-.1-.2-.1-.2-.2-.1-.1-.1-.2V57l.1-.1.1-.1.1-.1h.1l.2-.1h.1l.2-.1.1-.1.1-.1.1-.1.2-.2H159.1l.1.1.1.1.1.2.2.3.1.2.2.3.3.2.4.3.2.2.3.1.3.1.2.1.3.1h.5l.1-.2.2-.2v-.2l.1-.1v-.2l.1-.2v-.1l.1-.3v-.7l-.1-.1v-.2l-.1-.1-.1-.1-1.4-1.2-.6-.5-.7-.6.5-.3h.1l.1-.1.1-.1.1-.1v-.5l-.1-.1V52h-.1l-.1-.1-1-.5-.4-.2-.4-.3-.4-.2h-.1l-.1-.1-.1-.1h-.1v-.1h-.1l-.1-.1H157.5l-.3.1h-.2l-.3-.1h-.2l-.3-.1-.2-.1-.2-.1-.2-.1-.4-.3-.4-.2-.4-.3-.3-.3-.4-.3-.3-.3-.3-.3-.3-.4-.3-.3-.3-.4-.2-.3-.3-.4-.2-.4-.2-.4-.2-.4-.2-.3.1-.1V44l.1-.1h.1l.2-.1h.4l.3.1.7.6.8.6.7.6.8.6.1.2.2.2.2.2.1.2.1.3.2.2.2.2.2.2.2.2.2.1.2.1.3.1h.1v-.1l.1-.1v-.1l.1-.1.1-.1h.2l.1.1h.1l.1.2.2.2.2.2.1.2.2.2.2.1.2.1h.3l.2.1h.3l.1-.3.1-.2.1-.2.1-.3.1-.4v-.2l.1-.1V46.2l.1-.2.1-.1.1-.3.1-.3v-.5l-.1-.3v-.3l-.1-.3-.3-.2-.2-.2h-.1l-.2-.1-.2-.1-.2-.1-.1-.1-.2-.1-.1-.1-.1-.2-.1-.1v-.2l-.2-.2V42l-.1-.2-.2-.2-.1-.2-.1-.1-.2-.1-.2-.2-.2-.1-.1-.2-.1-.2-.3-.5-.3-.5-.3-.5-.4-.5-.2-.2-.2-.1-.1-.1-.1-.1-.2-.2-.2-.2-.2-.3-.2-.2-.3-.2-.2-.1-.3-.1-.2-.1H153.6l-.2.1-.2.1-.2.1-.2.1-.1.2H152.4l-.1-.1-.1-.2-.1-.2-.2-.2-.1-.1-.2-.2-.2-.1-.2-.2-.1-.1-.2-.1-.2-.1-.2-.1h-.2l-.3-.1h-1l-.2.1-.3-.4-.3-.4-.3-.3-.4-.3-.3-.3-.4-.3-.4-.3-.4-.3-.1-.1v-.2l-.1-.2v-.7l-.1-.4v-.4l-.1-.4-.1-.4-.1-.4-.2-.4-.1-.4h-.1l-.1-.1-.1.1-.4.1-.3.2-.4.1-.3.1-.4.2-.4.1-.4.2-.3.1-.4.1-.5.1-.4.1-.4.1-.4.1h-.5l-.4.1-.1-.5v-2.3l.1-.5.1-.4.1-.2v-.1l.1-.1.1-.1.3-.2.1-.2.1-.1.1-.1.1-.2.2-.1.1-.2.1-.1V25l.1-.1.1-.2.1-.1v-.2l.1-.2.1-.3.1-.1.1-.2.1-.1.1-.1.2-.2.2-.1.2-.2.1-.1.3-.3.2-.2.2-.2.2-.2.1-.2.1-.1.2-.3.2-.2.2-.1.1-.1.2-.1.1-.1.1-.1.1-.1.1-.2.1-.2.3-.4v-.2l.1-.2.1-.3.1-.2v-.2l.1-.2v-.6l.1-.4v-.5l-.1-.4-.1-.3-.1-.3-.1-.2-.1-.3-.1-.2-.3-.3-.1-.1-.2-.2-.2-.2-.3-.3-.4-.2-.3-.3-.4-.2-.3-.2-.4-.2-.4-.2-.4-.2v-.2l-.2-.4-.1-.2-.1-.2-.1-.1-.1-.1-.1-.2-.2-.1-.2-.1-.1-.1-.1-.1h-.1l-.1-.1h-.4l-.6-.1-.5-.1-.4-.1h-.3l-.3-.2-.3-.1-.3-.1-.3-.2-.2-.1-.1-.1-.1-.1-.1-.1-.2-.2-.1-.2-.2-.2-.1-.2-.1-.2v-.2l.1-.3.1-.2.1-.2.1-.2v-.2l.1-.2v-.5l-.1-.2-.2-.3-.2-.3-.2-.2-.2-.2-.2-.2-.3-.2-.2-.2-.3-.2-.3-.1-.2-.1-.3-.1-.3-.1h-.3l-.4-.1h-.6l-.7.3-.5.3-.4.1-.3.2-.2.2-.2.2-.3.2-.2.2-.1.2-.2.2v.2l-.2.2-.1.3-.2.3-.1.3-.1.1-.5-.1-.4-.1-.4-.1-.4-.2-.5-.1-.4-.2-.4-.2-.3-.2-.4-.3-.4-.3-.3-.2-.3-.3-.3-.3-.3-.4-.4-.3-.2-.4-.5-.6-.2-.3-.3-.2-.5-.6-.3-.2-.2-.2-.3-.3-.3-.2-.3-.2-.3-.2-.3-.2-.3-.2-.6-.3h-.2l-.1.1V.8l-.2 1-.1 1.4-.2.1h-.1l-.2.1h-.1l-.2.1v.1l-.1.1-.1.2-.1.1v.5l-.1.2v.1l-.1.2-.4 1.6-.4 1.5-.2.2-.3.3-.2.2-.3.2-.2.2-.3.2-.3.2-.3.1-.2.4-.2.4-.2.5-.2.3v.3l-.2.3-.2.4h-.1l-.1.1-.2.4-.4.1h-.5l-.2.4-.2.3-.2.4-.2.4h-1.6l-.5.8-.3.4-.2.4-.3.4-.2.4-.2.4-.2.4-.1.3-.2.1H104.5l-.3-.1-.2-.1h-.2l-.2-.1-.2-.1-.2-.1-.2-.1-.2-.1-.2-.2-.1-.1-.2-.2-.1-.1-.2-.2-.1-.1h-.1l-.1.1h-.1l-.2.1-.1.1-.2.8-.8 2.1-.5 1.1-.5 1.2-.3.7-.1.3-.1.3-.2.3-.2.2-.2.4-.2.3-.2.3-.3.4-.3.3-.3.4-.2.3-.4.3-.1.2-.2.2-.2.2-.3.2-.1.1-.2.1-.2.1-.3.1-.2.1-.2.1h-.2l-.2.1h-1l-.3-.1h-.2l-.3-.1-.2-.1-.2-.2v-.2l-.1-.1V26l-.1-.2-.2-.3-.2-.2-.2-.2-.1-.2-.2-.2-.3-.1-.2-.2-.2-.1-.2-.1-.3-.1-.2-.1-.3-.1-.3-.1H87.9l-.1.1h-.1l-.2.2-.1.2-.1.2-.1.2v2.1l-.1.2-.1.1v.2l-.1.1-.1.2-.1.2-.2.1-.1.2-.1.1-.2.1-.2.1-.4.2-.2.2-.1.1-.1.1-.1.1-.1.3-.2.3-.1.4-.2.5-.1.4-.1.5-.1.4v.9l-.3.2-.3.2-.3.1-.2.2-.3.2-.2.2-.1.1-.2.2-.1.3-.1.5-.3.8-.2.7-.1.8-.2.3-.2.4-.2.4-.2.4-.3.5-.3.6-.4.7-.2.3-.2.2-.3.1-.2.2-.3.2-.3.2-.3.3-.4.3-.2.2-.3.4-.3.3-.2.4-.1.2-.3.4-.2.5-.2.3-.2.3-.2.3-.1.3-.3.3-.1.2-.2.1-.1.2-.2.2-.2.1-.2.2-.2.1-.1.1-.2.2-.1.2-.1.2-.1.2-.1.2v.1l.1.2V49.1l.1.2.4.3.4.3.1.2.2.1.1.2v.2l.1.1v.2l-.1.2v.1h-.1l-.1.1H73.8l-.2.1h-.2l-.1.1-.2.2-.1.1v.2l-.1.2v.2l.1.2v.1l.1.1.1.1.1.2.1.2v.2l-.1.1-.2.2-.3.2-.1.2-.2.1-.3.3-.4.2-.3.2-.2.1-.3.1h-.2l-.2.1h-.2l-.2.1H70l-.1-.2v-.1l-.1-.1-.1-.1-.1-.1-.1-.1-.1-.1h-1.5l-.2.1-.4.2-.4.2-.2.1-.2.2-.1.1-.2.1-.2.2-.1.2-.2.1-.2.1-.1.2-.2.1-.2.1-.2.1h-.2l-.2.1-.3.1h-.3l-.2.1h-.2l-.7-.8h-.2l-.2-.1h-.4l-.1.1h-.1l-.2.1h-.1l-.1.1-.1.1v.1l-.1.1v.1l-.1.2V57.9l-.1.3v.4l-.5.2-.3.1-.4.2-.2.1-.3.2h-.1l-.3.1-.3.1-.3.2-.4.1-.4.1-.4.1-.4.1-.4.1-.4.1-.5.1h-.4l-.4.1h-2.2l-.1.1H52l-.1.1v-.1h-.2l-.1-.1-.1-.1-.1-.1v-.1h-.2l-.1-.1v-.1H51l-.1-.1-.3-.6-.3-.4H50l-.4.2-.3.1-.2.1-.1.1-.3.2-.3.2-.3.2-.2.1-.2.3-.2.2-.2.1-.2.1-.3.2-.2.1-.2.1-.3.2h-.2l-.2.1-.2.1-.3.1h-.3l-.3.1h-1.1l-.2-.1H43l-.2-.1-.2-.1-.1-.1-.2-.1-.2-.1-.1-.1-.3-.3-.1-.1-.2-.2-.3-.3-1.1-.9-.4-.3-1.2-1-.4-.3v-.1l-.1-.1v-.1l-.1-.1.1-.1v-.7l-.1-.2v-.2l-.1-.1v-.2l-.2-.3-.1-.2-.1-.3-.1-.3-.1-.1-.1-.1v-.1h-.1v-.1h-.2l-.1-.1h-.2l-.2.1-.2.1-.3.1-.3.1-.3.2-.3.2-.2.2-.3.2-.3.4-.5.5-.6.6-.6.6-.6.6-.3.2-.3.3-.3.3-.5.4-.5.4-.6.5-.5.1-.4.1-.5.1-.5.1-.4.1-.5.2-.5.2-.4.2-.6.3-.5.3-.5.4-.6.4-.6.4-.1.1-.2.1-.3.1h-.2l-.2.1-.2.1-.2.2-.2.1-.2.2-.1.2-.1.1-.1.2-.1.3-.1.2v1.2l-.1.1v.1l-.1.2v.1l-.1.1h-.8l-.2.1-.3.1-.2.1-.1.1-.2.2-.2.2v.1l-.1.1v.2l-.1.3-.1.3-.1.3-.2.2-.1.3-.2.2-.1.2-.1.1-.1.1-.2.2-.2.2-.2.2-.2.2-.2.2-.3.1-.2.2h-.1l-.1.1H15l-.3-.1H14l-.2.1h-.2l-.3.1h-.1l-.2.1-.2.1-.1.2-.2.1-.2.2-.1.2-.1.2-.1.2-.1.1-.1.1-.1.2h-.1l-.1.1-.1.1h-.1l-.2.1-.3.2-.5.2-1 .5-2 1-.2.1-.1.1-.2.1-.2.2-.1.1-.2.1-.2.2-.1.1-.2.1-.3.1-.3.1-.3.1-.3.1h-.1l-.3.1h-.3l-.3.1-.4.1H3l-.5.2-.4.1-.4.2-.3.1-.3.2-.3.2-.3.2-.3.2-.2.2v.1l.1.1.2.1.4.1h.6l.5.1.6.1.6.1H33.3l4.8-.1h4.2l.6-.1v.1l.1.1v.2l.1.2v.1l.1.1.1.1h.2l.2.1 1.4.1h3.2l1.2.1h.8l4.2.1h17l4.2-.1 4.3-.1 4.2-.1 21.2-.1H126.3l.1.1h.2l.2.1h.4l1.6.1h3.1l1.6.1 1.5-.1h1.6l1.6-.1 1.6-.1.1-.1-.1-.1h1.8l.9-.1h8l1.8.1 1.8.1 1.8.1 1.4.1 1.4.1h1.2l1.3.1h2.6l1.4-.1h1.5l.3-.1h.3l.2-.1.2-.1.2-.1h.1l.2-.1.2-.2.1-.1.2-.1.1-.1v-.4l.1-.4v-1.2l.1-.4V77l.1-.2.1-.2.1-.2.1-.3.1-.3v-.3l.1-.3-.1-.3z"/></g></svg>