<svg id="Layer_1" xmlns="http://www.w3.org/2000/svg" viewBox="0.2 110.3 1223.7 496.4"><path fill="#FFF" d="M1174.4 392.7h-5.7c-19.5-2.4-34.2-19.5-32.6-39.1v-.8c0-4.1 1.6-12.2 6.5-20.3 3.3-4.9 3.3-13 3.3-25.2V304c0-4.1-.8-5.7-.8-5.7s-.8-.8-1.6-.8l-11.4-4.9-21.2-42.3 8.1-9.8c-.8-7.3 0-17.9 6.5-28.5l9.8-15.5 17.9-.8h2.4c9.8 0 26.9 3.3 38.2 24.4v.8c2.4 4.9 4.9 9 6.5 13.8 3.3 6.5 5.7 12.2 9 17.9 23.6 40.7 13 81.4 5.7 108.2-2.4 9-7.3 17.1-16.3 24.4-4.8 2.7-12.9 7.5-24.3 7.5z"/><path fill="#FFF" d="M795.1 606c-18.7 0-35.8-7.3-50.5-22.8-17.9-17.9-36.6-36.6-53.7-54.5L673 510.8l-15.5-15.5-29.3-29.3c-3.3-3.3-5.7-4.9-14.6-4.9h-17.1c-20.3 0-40.7-.8-60.2-1.6-9 0-17.9-.8-26.9-.8-38.3-.8-48-30.1-49.6-39.1-.8-4.1-1.6-9-21.2-11.4-37.4-4.1-76.5-6.5-120.4-6.5h-11.4c-11.4 0-23.6 2.4-39.1 8.1l-8.1 2.4c-4.9 1.6-9 3.3-13.8 4.9-36.6 13-74.1 15.5-105 15.5H96c-13.8 0-28.5 0-43.9-1.6-29.3-2.4-48-18.7-51.3-44.8-4.1-30.9 12.2-56.2 39.9-62.7.8 0 .8 0 1.6-.8 10.6-30.1 37.4-49.6 69.2-52.1 12.2-.8 23.6-4.9 35.8-13 4.9-3.3 10.6-5.7 14.6-8.1 3.3-1.6 6.5-3.3 9-4.1 13-5.7 21.2-9.8 24.4-16.3 6.5-10.6 16.3-16.3 22-20.3.8-.8 2.4-1.6 3.3-1.6 9.8-6.5 20.3-10.6 30.9-10.6 3.3 0 7.3.8 10.6.8 13.8-11.4 30.1-17.9 48-17.9h3.3c3.3-4.9 7.3-10.6 14.6-14.6 13-9 14.6-13.8 15.5-17.9 4.1-20.3 22-35 44.8-36.6h2.4c3.3.8 7.3.8 11.4.8 5.7 0 10.6.8 15.5 1.6 13 2.4 26 3.3 42.3 3.3h65.9c24.4 0 49.6 0 75.7 3.3 1.6 0 4.9-.8 7.3-.8 4.9-.8 10.6-1.6 17.1-1.6h5.7c7.3.8 14.6.8 23.6.8 9.8 0 20.3 0 30.9-.8 10.6 0 22-.8 33.4-.8 13 0 24.4.8 35 1.6h2.4c3.3 0 6.5 0 10.6-.8 4.9-.8 10.6-.8 16.3-.8h5.7c11.4.8 23.6.8 37.4.8 16.3 0 33.4-.8 49.6-.8 17.1-.8 34.2-.8 51.3-.8h13c18.7 0 39.9.8 65.9.8H1094.6c53.7 0 67.5 10.6 81.4 61.9 4.1 15.5 2.4 29.3 1.6 38.2 0 2.4-.8 5.7-.8 7.3v6.5l.8.8 13.8 26.9-1.6 10.6c0 2.4-.8 4.1-.8 6.5l-2.4 17.1c-4.9 30.1-22.8 42.3-37.4 48-.8 1.6-2.4 3.3-3.3 4.9l-.8.8c-9.8 14.6-20.3 22.8-30.9 27.7 7.3 7.3 10.6 15.5 11.4 22 1.6 11.4-1.6 22.8-9 31.7-13.8 16.3-27.7 32.6-39.9 45.6-8.1 9-20.3 14.6-32.6 14.6-5.7 0-11.4-.8-17.1-3.3-3.3-1.6-9.8-1.6-17.1-2.4h-9.8c-13 0-18.7 3.3-23.6 8.1-7.3 8.1-16.3 12.2-22.8 15.5-1.6.8-3.3 1.6-4.1 2.4-24.4 13.8-39.1 30.1-45.6 52.1-.8 3.3-2.4 6.5-3.3 9.8-4.9 13-13.8 37.4-43.9 37.4-6.5 0-12.2-.8-18.7-2.4-4.9-.8-9-1.6-13-1.6-3.3 0-6.5.8-9.8 1.6-7.2.7-13.7 1.5-20.2 1.5z"/><path fill="#6BB0AC" d="M1157.3 265c-.8 7.3-1.6 15.5-3.3 22.8-1.6 9.8-4.9 17.9-16.3 21.2-9.8 2.4-15.5 11.4-20.3 18.7-13 19.5-27.7 19.5-47.2 13-5.7-1.6-10.6-4.9-15.5-6.5-5.7-2.4-11.4-2.4-16.3 0-.8 0-2.4.8-2.4 1.6 0 1.6.8 3.3.8 4.9 0 .8 1.6.8 2.4 1.6 17.9 9.8 17.9 9.8 10.6 26.9-4.1 9-10.6 15.5-15.5 23.6 2.4.8 4.1 2.4 5.7 2.4 6.5-1.6 14.6-8.1 17.9-5.7 9.8 4.9 21.2 1.6 30.1 7.3 4.1 2.4 6.5 4.9 3.3 9-13 15.5-26 30.1-39.1 44.8-2.4 3.3-6.5 4.1-10.6 2.4-10.6-4.9-22-4.9-33.4-4.9-20.3-.8-39.1 2.4-54.5 17.9-4.9 4.9-13 8.1-19.5 11.4-29.2 16.3-51.2 39-61.8 71.6-.8 2.4-1.6 5.7-2.4 8.1-6.5 17.1-6.5 17.1-24.4 13-13-2.4-26.9-3.3-39.9.8-14.6 4.1-26-.8-35.8-10.6-23.6-24.4-48-48.8-72.4-72.4-14.6-14.6-30.1-29.3-44.8-43.9-11.4-11.4-24.4-15.5-40.7-15.5-34.2.8-68.4-.8-102.5-1.6-8.1 0-14.6-2.4-17.1-12.2-5.7-26.9-28.5-35.8-50.5-38.2-45.6-5.7-91.1-7.3-136.7-6.5-17.1 0-34.2 4.1-50.5 9.8-7.3 2.4-14.6 4.9-21.2 7.3-43.1 15.5-87.9 13-131.8 12.2-16.3 0-32.6 0-48-1.6-12.2-.8-17.1-5.7-18.7-13.8-1.6-12.2 2.4-22 13.8-24.4 13-3.3 21.2-9 26-22.8 6.5-17.9 21.2-27.7 39.1-28.5 19.5-1.6 36.6-8.1 52.9-18.7 3.3-2.4 6.5-4.1 9.8-5.7 17.9-9 36.6-14.6 48-33.4 3.3-4.9 10.6-8.1 15.5-12.2 5.7-4.1 12.2-5.7 18.7-1.6 8.1 4.9 13.8 2.4 19.5-4.1 9.8-11.4 22.8-17.1 38.2-14.6 9.8 1.6 16.3-2.4 22-9.8 2.4-4.1 4.9-9 9-11.4 14.6-9.8 26-21.2 30.1-39.1 1.6-5.7 7.3-9 13-9 6.5-.8 13.8-.8 19.5 0 27.7 5.7 55.3 3.3 82.2 4.1 35 .8 70-.8 105 3.3 9.8.8 21.2-2.4 30.9-1.6 40.7 3.3 81.4-3.3 122.1.8 12.2.8 24.4-1.6 36.6-.8 51.3 3.3 102.5-1.6 153.8-.8s102.5 0 153.8 0c38.2 0 38.2.8 48 36.6 3.3 12.2 0 23.6-.8 35-6.5 2.4-9-.8-11.4-3.3-4.9-4.1-10.6-5.7-16.3-4.1l-51.3 17.1c-1.6.8-2.4 3.3-2.4 4.9s2.4 3.3 3.3 4.1c6.5 3.3 13 1.6 19.5-.8 10.6-4.1 20.3-4.9 29.3 2.4 3.3 2.4 6.5 3.3 10.6 1.6 10.6-4.9 17.9.8 25.2 7.3 5 2.4 7.4 6.5 9.1 10.6z"/><path fill="#6BB0AC" d="M1157.3 265c-1.6-4.1-4.1-8.1-5.7-12.2 5.7-7.3-1.6-17.1 3.3-24.4 4.9 0 6.5 3.3 8.1 6.5 5.7 10.6 10.6 22 17.1 33.4 15.5 26.9 9.8 55.3 2.4 83-.8 2.4-3.3 4.9-4.9 6.5-.8.8-3.3.8-4.9.8-.8 0-1.6-1.6-1.6-2.4 0-1.6 0-4.1 1.6-5.7 9-14.6 9-30.9 9-47.2-.8-17.2-7.3-31-24.4-38.3z"/><g><path fill="#FFF" d="M835 321.9l-12.2-39.1c-.8-2.4-3.3-4.1-5.7-4.1h-25.2c-2.4 0-4.9 1.6-5.7 4.1L774 321.9c-.8 3.3.8 6.5 4.1 7.3 3.3.8 6.5-.8 7.3-4.1l4.9-15.5v67.5c0 3.3 2.4 5.7 5.7 5.7s5.7-2.4 5.7-5.7v-40.7c0-.8.8-2.4 2.4-2.4.8 0 1.6.8 1.6 1.6v40.7c0 3.3 2.4 5.7 5.7 5.7s5.7-2.4 5.7-5.7v-67.5l4.9 15.5c.8 2.4 3.3 4.1 5.7 4.1h1.6c4.9.1 6.5-3.2 5.7-6.5zm-30.9-48.8c6.5 0 12.2-5.7 12.2-12.2 0-6.5-5.7-12.2-12.2-12.2-6.5 0-12.2 5.7-12.2 12.2 0 7.3 5.7 12.2 12.2 12.2z"/><path fill="#6B6662" d="M723.5 221.8c9.8 0 17.9-8.1 17.9-17.9 0-9.8-8.1-17.9-17.9-17.9s-17.9 8.1-17.9 17.9c.8 9.8 8.1 17.9 17.9 17.9zM935.1 291l-27.7-56.2c-1.6-3.3-4.9-4.9-8.1-4.9h-34.2l-56.2-32.6s-.8 0-.8-.8H800.9L741.4 230h-35c-3.3 0-6.5 2.4-8.1 4.9l-26.9 57c-2.4 4.9 0 9.8 4.1 12.2 1.6.8 2.4.8 4.1.8 3.3 0 6.5-1.6 8.1-4.9l11.4-25.2.8 9.8-3.3 89.5c0 4.9 4.1 9 9 9.8 4.9 0 9-4.1 9-9l2.4-55.3c0-4.1 3.3-8.1 8.1-8.1 4.1 0 8.1 3.3 8.1 8.1l2.4 55.3c0 4.9 4.1 9 9 9s9-4.1 9-9.8l-3.3-89.5 3.3-40.7 52.9-29.3 53.7 31.7c.8 0 .8.8 1.6.8l-.8 13.8-12.2 62.7H918l-9.8-51.3 13 26.9c1.6 3.3 4.9 4.9 8.1 4.9 1.6 0 2.4 0 4.1-.8 1.7-2.5 4.1-8.2 1.7-12.3zm-54.5-69.2c9.8 0 17.9-8.1 17.9-17.9 0-9.8-8.1-17.9-17.9-17.9s-17.9 8.1-17.9 17.9c.8 9.8 8.1 17.9 17.9 17.9zm8.1 152.2c0 4.9 4.1 9 9 9s9-4.1 9-9v-47.2h-17.9V374zm-33.4 0c0 4.9 4.1 9 9 9s9-4.1 9-9v-47.2h-17.9V374z"/><g fill="#FFF"><path d="M690.9 448.1v-40.7h13.8l6.5 27.7 6.5-27.7h13v40.7h-8.1v-30.9l-8.1 30.9h-8.1l-7.3-30.9v30.9h-8.2zM737.3 448.1v-40.7h22v6.5h-13.8v9.8h12.2v6.5h-12.2v12.2h13.8v6.5h-22v-.8zM765.8 407.4h13.8c11.4 0 13 7.3 13 20.3 0 6.5.8 20.3-13.8 20.3H765v-40.7h.8zm8.2 34.2h4.1c4.9 0 6.5-4.1 6.5-13.8 0-7.3 0-13.8-5.7-13.8h-4.1v27.7h-.8zM800 448.1v-40.7h8.1v40.7H800zM814.6 427.7c0-10.6 0-21.2 13.8-21.2 9 0 12.2 4.9 11.4 13.8h-8.1c0-5.7-.8-7.3-3.3-7.3-4.9 0-5.7 4.9-5.7 14.6 0 10.6.8 14.6 5.7 14.6 4.1 0 4.1-4.9 4.1-8.1h8.1c0 10.6-4.1 14.6-12.2 14.6-13.8-.6-13.8-10.4-13.8-21zM843.1 448.1l11.4-40.7h11.4l10.6 40.7h-9l-2.4-9h-11.4l-2.4 9h-8.2zm16.3-33.4l-4.1 17.1h8.1l-4-17.1zM880.6 448.1v-40.7h8.1v40.7h-8.1zM896 407.4h13.8c11.4 0 13 7.3 13 20.3 0 6.5.8 20.3-13.8 20.3h-13.8v-40.7h.8zm9 34.2h4.1c4.9 0 6.5-4.1 6.5-13.8 0-7.3 0-13.8-5.7-13.8h-4.1v27.7h-.8z"/></g></g></svg>