<svg id="Layer_1" xmlns="http://www.w3.org/2000/svg" viewBox="0 0 52 31.8"><path fill="#97C3C1" d="M36.7.6c-2-.1-4 .2-6 1-7.9 3-11.9 11.9-8.9 19.8s11.9 11.9 19.8 8.9c6.2-2.4 10-8.3 9.9-14.6 0-1.8-.3-3.5-1-5.3C48.2 4.5 42.7.8 36.7.6"/><path fill="none" stroke="#FFF" stroke-width="1.1" stroke-miterlimit="10" d="M36.7.6c-2-.1-4 .2-6 1-7.9 3-11.9 11.9-8.9 19.8s11.9 11.9 19.8 8.9c6.2-2.4 10-8.3 9.9-14.6 0-1.8-.3-3.5-1-5.3C48.2 4.5 42.7.8 36.7.6z"/><path fill="#FFF" d="M33.8 20.5c.4 1 1.3 1.6 2.4 1.6 1 0 2-.7 2.4-1.6-.6.2-1.5.4-2.4.4-1 0-1.8-.2-2.4-.4m2.3-7.9c-.2 0-.5-.2-.5-.4l-.9.1c.1.7.6 1.2 1.3 1.2.7 0 1.3-.6 1.3-1.4 0-.7-.6-1.4-1.3-1.4-.2 0-.3 0-.5.1l.3.8h.2c.3 0 .5.2.5.5.1.2-.1.5-.4.5m6.9 5.6c.1-.6.2-1.2.2-1.8v-1.1c.1 0 .3 0 .4.1.3.2.4.5.4 1 0 .7-.3 1.5-1 1.8m-.7-1.8c0 2.1-.7 4.2-1.9 5.8-1.2 1.6-2.7 2.5-4.3 2.5-1.6 0-3.1-.9-4.3-2.5-1.2-1.6-1.9-3.7-1.9-5.8v-2.1c.9-.5 2-.9 3.2-1.2.4 1.2 1.6 2.1 3 2.1s2.5-.9 3-2.1c1.2.2 2.3.6 3.2 1.2v2.1zm-6.2-6.6c1.3 0 2.3 1 2.3 2.3 0 1.3-1 2.3-2.3 2.3-1.3 0-2.3-1-2.3-2.3 0-1.3 1.1-2.3 2.3-2.3m-7.8 6.5c0-.4.2-.8.5-1 .1-.1.2-.1.4-.1v1.1c0 .6.1 1.2.2 1.8-.8-.2-1.1-1-1.1-1.8M44 14.6c-.2-.1-.3-.2-.5-.2v-2.9c0-2.4-4.2-4.9-7.3-4.9-2.7 0-7.3 2.4-7.3 4.9v2.9c-.2 0-.4.1-.5.2-.5.3-.8 1-.8 1.7 0 1.5.8 2.6 2.1 2.8.9 3.5 3.5 6.3 6.6 6.3 3.1 0 5.7-2.8 6.6-6.3 1.3-.2 2.1-1.3 2.1-2.8-.2-.7-.5-1.3-1-1.7"/><g><path fill="#009B94" d="M16.4.6c-2-.1-4 .2-6 1-7.9 3-11.9 11.9-8.9 19.8s11.9 11.9 19.8 8.9c6.2-2.4 10-8.3 9.9-14.6 0-1.8-.3-3.5-1-5.3C28 4.5 22.4.8 16.4.6"/><path fill="none" stroke="#FFF" stroke-width="1.1" stroke-miterlimit="10" d="M16.4.6c-2-.1-4 .2-6 1-7.9 3-11.9 11.9-8.9 19.8s11.9 11.9 19.8 8.9c6.2-2.4 10-8.3 9.9-14.6 0-1.8-.3-3.5-1-5.3C28 4.5 22.4.8 16.4.6z"/><path fill="#FFF" d="M13.5 20.5c.4 1 1.3 1.6 2.4 1.6 1 0 2-.7 2.4-1.6-.6.2-1.5.4-2.4.4-.9 0-1.7-.2-2.4-.4m2.4-7.9c-.2 0-.5-.2-.5-.4l-.9.1c.1.7.6 1.2 1.3 1.2.7 0 1.3-.6 1.3-1.4 0-.7-.6-1.4-1.3-1.4-.2 0-.3 0-.5.1l.3.8h.2c.3 0 .5.2.5.5.1.2-.1.5-.4.5m6.8 5.6c.1-.6.2-1.2.2-1.8v-1.1c.1 0 .3 0 .4.1.3.2.4.5.4 1 0 .7-.3 1.5-1 1.8m-.7-1.8c0 2.1-.7 4.2-1.9 5.8-1.2 1.6-2.7 2.5-4.3 2.5-1.6 0-3.1-.9-4.3-2.5-1.2-1.6-1.9-3.7-1.9-5.8v-2.1c.9-.5 2-.9 3.2-1.2.4 1.2 1.6 2.1 3 2.1s2.5-.9 3-2.1c1.2.2 2.3.6 3.2 1.2v2.1zm-6.1-6.6c1.3 0 2.3 1 2.3 2.3 0 1.3-1 2.3-2.3 2.3-1.3 0-2.3-1-2.3-2.3 0-1.3 1-2.3 2.3-2.3m-7.8 6.5c0-.4.2-.8.5-1 .1-.1.2-.1.4-.1v1.1c0 .6.1 1.2.2 1.8-.8-.2-1.1-1-1.1-1.8m15.6-1.7c-.2-.1-.3-.2-.5-.2v-2.9c0-2.4-4.2-4.9-7.3-4.9-2.7 0-7.3 2.4-7.3 4.9v2.9c-.2 0-.4.1-.5.2-.5.3-.8 1-.8 1.7 0 1.5.8 2.6 2.1 2.8.9 3.5 3.5 6.3 6.6 6.3 3.1 0 5.7-2.8 6.6-6.3 1.3-.2 2.1-1.3 2.1-2.8-.1-.7-.4-1.3-1-1.7"/></g></svg>