<svg id="Layer_1" xmlns="http://www.w3.org/2000/svg" viewBox="0 0 35.1 32.6"><path fill="#009B94" d="M32.2 30.8H20.5V16.2h11.7v14.6zm2.9-19.2H17.6v4.6h1.1v16.4H34V16.2h1.1v-4.6z"/><path fill="#009B94" d="M30.9 27.7v1.8h-9v-1.6-.5-.1h3.3v-1.1h-3.3v-2.3h3.3v-1h-3.3v-2.3h3.3v-1.1h-3.3v-.2-2h9v10.4"/><path fill="#502E88" d="M16.1 16.4v2.9h-3.3v3.4H9.9v-3.4H6.5v-2.9h3.3V13h2.9v3.4z"/><path fill="#502E88" d="M16.1 4.5H14V1.7h2.1v2.8zm-3.7 0h-2.1V1.7h2.1v2.8zm-3.7 0H6.6V1.7h2.1v2.8zm9.1 1.3V1.1c0-.4-.1-.7-.4-.9 0-.2-.2-.2-.3-.2H5.6c-.2 0-.4.1-.5.2-.2.2-.3.5-.3.9v4.7C2.1 5.8 0 7.9 0 10.6v13.9c0 2.6 2.1 4.8 4.8 4.8h12.1v-2.1H4.8c-.5 0-.9-.1-1.3-.3-.7-.4-1.2-1.1-1.4-1.9V10.6c0-1.5 1.2-2.7 2.7-2.7h13.1c1.2 0 2.2.8 2.6 1.9h2.1c-.4-2.3-2.4-4-4.8-4"/></svg>