<svg id="Layer_1" xmlns="http://www.w3.org/2000/svg" viewBox="0 0 33.5 31.5"><path fill="#502E88" d="M28.5 26.2c-.2.9-2-.2-3.7-1.1-.4-.2-1.2-.4-2.1-.6 1.7-2.3 3.1-3.4 5.7-4.1.4 2.1.5 4.1.1 5.8m-9.8-4.8v-4.8c2.7.5 5.4-.1 7.7-1.7.7 1.6 1.4 3.3 1.8 5-2.2.5-4.6 2-6 4.5-1.6-.5-3.5-1.2-3.5-3m-.4-6.1c-.1-.1-.1-.4 0-.5-.1.1-.4.1-.5 0-.1-.1-.1-.4 0-.5l1-1-1 1c-.1.1-.4.1-.5 0l-.1-.1h-.4c-.2 0-.3 0-.5-.1 0 0 0 .1-.1.1-.1.1-.4.1-.5 0 .1.1.1.4 0 .5-.1.1-.4.1-.5 0l-.5-.5.5.5c.1.1.1.4 0 .5-.1.1-.3.1-.5 0v.9c-2.8.5-4.9 0-7.5-1.6 1.7-3.4 4-6.1 5.7-6 1.9.1 1.8 1.2 1.8 3.2v1c.1-.1.2-.1.3 0 0-.2.1-.3.3-.4-.1-.1-.1-.1-.1-.2 0-.2.2-.3.3-.3h.1c-.2 0-.3-.2-.3-.3 0-.2.2-.3.3-.3h.1c-.2 0-.3-.2-.3-.3 0-.2.2-.3.3-.3h.1c-.2 0-.3-.2-.3-.3 0-.2.2-.3.3-.3h.1c-.2 0-.3-.2-.3-.3s.2-.3.3-.3h.1c-.2 0-.3-.2-.3-.3 0-.2.2-.3.3-.3h.1c-.2 0-.3-.2-.3-.3 0-.2.2-.3.3-.3-.2 0-.3-.2-.3-.3s.2-.3.3-.3h1.4c.2 0 .3.2.3.3s-.2.3-.3.3c.2 0 .3.2.3.3 0 .2-.2.3-.3.3h.1c.2 0 .3.2.3.3 0 .2-.2.3-.3.3h.1c.2 0 .3.2.3.3s-.2.3-.3.3h.1c.2 0 .3.2.3.3 0 .2-.2.3-.3.3h.1c.2 0 .3.2.3.3 0 .2-.2.3-.3.3h.1c.2 0 .3.2.3.3 0 .2-.2.3-.3.3h.1c.2 0 .3.2.3.3 0 .1 0 .2-.1.2.1.1.2.3.3.4h.3v-1c0-1.9-.1-3.1 1.8-3.2 1.7-.1 4 2.6 5.7 6-2.6 1.5-4.7 2-7.5 1.6v-.9c-.3.2-.5.2-.6.1m-3.5 6.1c0 1.8-1.8 2.5-3.5 3-1.4-2.4-3.7-4-6-4.5.4-1.7 1-3.4 1.8-5 2.3 1.6 5 2.1 7.7 1.7v4.8zm-6.1 3.7C7 26 5.2 27.2 5 26.2c-.4-1.7-.3-3.8.2-5.9 2.5.7 4 1.8 5.7 4.1-.9.3-1.7.5-2.2.7m7.1-19.3c0-.2.2-.3.3-.3-.2 0-.3-.2-.3-.3 0-.2.2-.3.3-.3h1.4c.2 0 .3.2.3.3 0 .2-.2.3-.3.3.2 0 .3.2.3.3 0 .2-.2.3-.3.3.2 0 .3.2.3.3s-.2.3-.3.3h-1.4c-.2 0-.3-.2-.3-.3s.2-.3.3-.3c-.2 0-.3-.1-.3-.3M32.3 0h-31C.6 0 0 .6 0 1.2v29c0 .7.6 1.2 1.2 1.2h31c.7 0 1.2-.6 1.2-1.2v-29c.1-.6-.5-1.2-1.1-1.2"/></svg>