<svg id="Layer_1" xmlns="http://www.w3.org/2000/svg" viewBox="0 0 44.1 49"><path fill="#502E88" d="M10 24.6H4.7c-2.6 0-4.7-2.1-4.7-4.7V8.1c0-2.6 2.1-4.7 4.7-4.7H10c2.6 0 4.7 2.1 4.7 4.7V20c0 2.5-2.1 4.6-4.7 4.6M4.7 4.8c-1.8 0-3.3 1.5-3.3 3.3V20c0 1.8 1.5 3.3 3.3 3.3H10c1.8 0 3.3-1.5 3.3-3.3V8.1c0-1.8-1.5-3.3-3.3-3.3H4.7z"/><path fill="#502E88" d="M8.9 26.9H5.8l-1.1-2.3H10zM6.1 27.8h2.4v2.5H6.1zM9.9 2.5H8.8c0-.8-.6-1.4-1.4-1.4-.8 0-1.4.6-1.4 1.4H4.8C4.8 1.1 5.9 0 7.3 0s2.6 1.1 2.6 2.5M18.9 33.3h-8.5c-1.3 0-2.5-1-2.6-2.3H7c.2 1.7 1.6 3 3.4 3h8.5c1.3 0 2.5 1 2.6 2.3h.8c-.2-1.7-1.7-3-3.4-3M6.5 7.6c0 .3-.2.5-.5.5H3.4c-.3 0-.5-.2-.5-.5s.2-.5.5-.5h2.5c.3 0 .6.2.6.5M6.5 10.3c0 .3-.2.5-.5.5H3.4c-.3 0-.5-.2-.5-.5s.2-.5.5-.5h2.5c.3 0 .6.3.6.5M6.5 13.1c0 .3-.2.5-.5.5H3.4c-.3 0-.5-.2-.5-.5s.2-.5.5-.5h2.5c.3 0 .6.2.6.5M5.9 16.4H3.4c-.3 0-.5-.2-.5-.5s.2-.5.5-.5h2.5c.3 0 .5.2.5.5.1.3-.2.5-.5.5m0 2.7H3.4c-.3 0-.5-.2-.5-.5s.2-.5.5-.5h2.5c.3 0 .5.2.5.5.1.3-.2.5-.5.5m-3.5-4.7v5.2c0 1.6 1 2.7 2.7 2.7h4.5c1.6 0 2.7-1 2.7-2.7v-5.2H2.4z"/><path fill="#009B94" d="M41 17.9l-4.4 11c-.7 1.7-2 3.9-3.3 5.4-1.5 1.7-2.6 2.3-3 2.2-.4-.2-.8-1.4-.6-3.6.2-2 .7-4.4 1.5-6.2l4.4-11-1-.4-4.4 11C27.9 32.1 27.9 39.5 29 40c1.4.5 6.4-4.9 8.7-10.7l4.4-11-1.1-.4z"/><path fill="#009B94" d="M31.7 26.9c-.1.3-.2.5-.3.8l4.2 1.7c.1-.3.3-.5.4-.8l.1-.2-4.3-1.7-.1.2zM43.8 18.1c-.2.4-.7.6-1.1.5l-9-3.6c-.4-.2-.6-.7-.5-1.1l.2-.5c.2-.4.7-.6 1.1-.5l9 3.6c.4.2.6.7.5 1.1l-.2.5z"/><path transform="rotate(21.952 27.908 42.3)" fill="#009B94" d="M27.4 39h1.1v6.6h-1.1z"/><path fill="#009B94" d="M26.7 48.8c0 .2-.2.2-.3.2l-1.3-.5c-.1-.1-.2-.2-.2-.4l.5-1.3c.1-.1.2-.2.4-.2l1.3.5c.1.1.2.2.2.4l-.6 1.3zM24.2 12.1l-.1 11.8c0 1.9-.4 4.3-1.1 6.3-.7 2.2-1.5 3.1-2 3.1s-1.2-1-1.9-3.1c-.6-1.9-.9-4.4-.9-6.3l.1-11.8h-1.1l-.1 11.8C17 30.1 19.8 37 21 37.1c1.5 0 4.2-6.9 4.2-13.1l.1-11.8-1.1-.1z"/><path fill="#009B94" d="M18.8 23.9v.9h4.6v-1.1h-4.6v.2zM26.9 11.3c0 .5-.4.8-.8.8l-9.8-.1c-.5 0-.8-.4-.8-.8v-.6c0-.5.4-.8.8-.8l9.7.1c.5 0 .8.4.8.8l.1.6z"/><path transform="matrix(1 .00801 -.00801 1 .318 -.166)" fill="#009B94" d="M20.4 36.3h1.1v6.6h-1.1z"/><path fill="#009B94" d="M21.9 46.2c0 .2-.1.3-.3.3h-1.4c-.2 0-.3-.1-.3-.3v-1.4c0-.2.1-.3.3-.3h1.4c.2 0 .3.1.3.3v1.4z"/></svg>