<svg id="Layer_1" xmlns="http://www.w3.org/2000/svg" viewBox="0 0 26.9 33.5"><path fill="#502E88" d="M3.6 4.7c-1.3 2.8-.3 5.9-.3 5.9s-.5.3-.9-.3c0-.1-.1-.1-.1-.1-.1.3.8.9.8.9-1.3 2.3-2.4 3.2-3 4.1-.4.6.1.9.6 1.1.5.2 1.2.4.9 1.1 0 .1-.1.2-.1.3-.4.7-.9.7-.1 1.6.2.2-.7.4-.2 1.3.3.5.6.6.8 1 .3.9-1.4 3 .8 3.6 1.8.5 3.7.6 6.1.3.1 0 .2.1.4.1v7.2c0 .6.4.9 1 .8l8.1-1.7c-1.1-4.2-2.7-18.5-4.1-19.4-.9.7-2.1 1-3 .5s-1.5-1.6-1.4-2.7c-.9.7-2.1 1-3 .5-1.4-.7-1.8-2.6-1-4.3 2.4-4.7 8-5.6 13.1-3 5.1 2.6 7.7 7.7 5.3 12.3-.8 1.7-2.7 2.4-4.1 1.7-1-.5-1.5-1.6-1.4-2.7-1.6.5.2 12.9.3 17 0 0 .3-.1.6-.1s.6-.6.6-1.1v-5.9c4.4-2.4 6.7-7 6.7-11.6C26.9 4.4 20.1 0 13.6 0 8 0 4.8 2.2 3.6 4.7"/></svg>