<svg id="Layer_1" xmlns="http://www.w3.org/2000/svg" viewBox="0 0 56.7 33.2"><path fill="#009B94" d="M47.1 20.2h-15c-.2 0-.4.2-.4.4V23c0 .2.2.4.4.4h15c.2 0 .4-.2.4-.4v-2.4c0-.2-.2-.4-.4-.4m-11.6 2.4h-3v-1.7h3v1.7zm3.8 0h-3.1v-1.7h3.1v1.7zm3.8 0h-3v-1.7h3v1.7zm3.7 0h-2.9v-1.7h2.9v1.7zM55.7 11h-4.9V1c0-.1 0-.3-.1-.4-.1-.4-.4-.6-.8-.6H29.3c-.5 0-.9.4-.9.9v10h-4.9c-.5 0-.9.4-.9.9v19.8c0 .5.4.9.9.9h32.3c.5 0 .9-.4.9-.9V11.9c0-.5-.4-.9-1-.9M29.5 30.8h-5.1v-18H29.5v18zm9.8 0h-3.5v-5.5h3.5v5.5zm4.2 0H40v-5.5h3.5v5.5zm5.5 0h-4.8V25c0-.2-.2-.4-.4-.4h-8.5c-.2 0-.4.2-.4.4v5.8h-4.8V12 1.9H49v28.9zm5.8 0h-5.1v-18H54.8v18zm-7.7-17.7h-15c-.2 0-.4.2-.4.4v5.1c0 .2.2.4.4.4h15c.2 0 .4-.2.4-.4v-5.1c0-.2-.2-.4-.4-.4m-11.6 5.1h-3v-4.3h3v4.3zm3.8 0h-3.1v-4.3h3.1v4.3zm3.8 0h-3v-4.3h3v4.3zm3.7 0h-2.9v-4.3h2.9v4.3zM36 8.8h2.2V11c0 .2.2.4.4.4h2.1c.2 0 .4-.2.4-.4V8.8h2.2c.2 0 .4-.2.4-.4v-2c0-.2-.2-.4-.4-.4H41V3.8c0-.2-.2-.4-.4-.4h-2.1c-.2 0-.4.2-.4.4V6H36c-.2 0-.4.2-.4.4v2.1c0 .1.2.3.4.3"/><path fill="#502E88" d="M36 8.8h2.2V11c0 .2.2.4.4.4h2.1c.2 0 .4-.2.4-.4V8.8h2.2c.2 0 .4-.2.4-.4v-2c0-.2-.2-.4-.4-.4H41V3.8c0-.2-.2-.4-.4-.4h-2.1c-.2 0-.4.2-.4.4V6H36c-.2 0-.4.2-.4.4v2.1c0 .1.2.3.4.3"/><path fill="#009B94" d="M13.7 1.8c1.4 0 2.6 1.1 2.6 2.6 0 1.4-1.2 2.6-2.6 2.6-1.4 0-2.6-1.1-2.6-2.6s1.1-2.6 2.6-2.6"/><path fill="#2396CC" d="M13.8 10.1c.9 0 1.4-.3 1.4-2.7h-2.8c0 2.4.5 2.7 1.4 2.7"/><path fill="#03547B" d="M8.9 20.4h-.1v3.3c0 .9.7 1.3 1.2 1.1v-4.7c-.3.2-.7.3-1.1.3"/><path fill="#502E88" d="M7.3 18.7v-3.3H2.7C1 15.3 0 16.8 0 18.7v5c0 1.5 1.8 1.5 1.8 0v-4.8h.6v12.3c0 .8.6 1.4 1.3 1.4.7 0 1.3-.6 1.3-1.4v-6.7h.6v6.7c0 .8.6 1.4 1.3 1.4.7 0 1.3-.6 1.3-1.4V20.3c-.5-.3-.9-.8-.9-1.6M28.8 17.5l-2.1-6.8c-.3-.8-.9-2.1-2.6-2.1h-4.3c.4.7.6 1.4.6 2.2v7.8c0 .7-.3 1.1-.5 1.3-.3.3-.7.5-1.1.5-.4 0-.7-.1-1-.4v2.9h1.7v8.6c0 1.5 2.2 1.5 2.2 0v-8.6h.9v8.7c0 1.5 2.2 1.5 2.2 0V23h3l-3.2-11h.4l1.9 6.2c.4 1.3 2.3.7 1.9-.7M5.3 10.1c-1.3 0-2.4 1-2.4 2.3s1.1 2.3 2.4 2.3c.8 0 1.6-.4 2-1.1V11c-.4-.5-1.2-.9-2-.9"/><path fill="#009B94" d="M11.7 7.5h-.8c-1.8 0-3 1.5-3 3.3v7.9c0 .8.5 1.1 1 1.1s1-.4 1-1.1V11h.6v20.8c0 .8.6 1.4 1.5 1.4s1.5-.6 1.5-1.4V19.7h.6v12.1c0 .8.7 1.4 1.5 1.4s1.4-.6 1.4-1.4V11h.6v7.7c0 .8.5 1.2 1 1.2s1-.4 1-1.2v-7.8c0-1.7-1-3.4-3-3.4h-.7"/><path fill="#502E88" d="M22 3.3c1.3 0 2.4 1.1 2.4 2.4s-1 2.4-2.4 2.4c-1.3 0-2.4-1.1-2.4-2.4s1.1-2.4 2.4-2.4"/><path fill="#FFF" d="M13.6 5.5c-.6 0-1.2-.1-1.6-.2.3.4.9.6 1.6.6.7 0 1.3-.3 1.6-.6-.4.2-1 .2-1.6.2M22 6.8c-.6 0-1.2-.1-1.6-.2.3.4.9.6 1.6.6.7 0 1.3-.3 1.6-.6-.4.1-1 .2-1.6.2M5.3 13.4c-.6 0-1.2-.1-1.6-.2.3.4.9.6 1.6.6.7 0 1.3-.3 1.6-.6-.4.1-1 .2-1.6.2"/></svg>