<svg id="Layer_1" xmlns="http://www.w3.org/2000/svg" viewBox="0 0 145.8 118.2"><g fill-rule="evenodd" clip-rule="evenodd"><path fill="#FFEAD6" d="M16.5 9.5h112.7v75.4H16.5z"/><path fill="#502E88" d="M72.7 92.2H21.1c-7.4 0-12.2-4.9-12.2-12.2V12.1C8.9 4.9 13.8 0 20.9 0h103.8c7.1 0 12.1 5 12.1 12.1v68c0 7.1-4.9 12-12.1 12.1h-52zm.1-10h49.3c3.4 0 4.7-1.3 4.7-4.6V14.8c0-3.5-1.2-4.7-4.8-4.7H23.8c-3.5 0-4.8 1.2-4.8 4.7v62.8c0 3.4 1.3 4.7 4.7 4.7 16.3-.1 32.7-.1 49.1-.1zM0 101.6h145.8c-.2 3.2.4 6.3-.6 9.3-1.5 4.4-5.6 7.3-10.3 7.3h-124c-6.1 0-10.8-4.8-10.9-10.8v-5.8zm72.9 9.8h14.3c1.6 0 2.6-.8 2.6-2.2 0-1.3-1-2.2-2.6-2.2H58.4c-1.6 0-2.6.9-2.5 2.3 0 1.3 1 2.2 2.6 2.2 4.8-.1 9.6-.1 14.4-.1z"/></g><g fill="#F05761"><path d="M28.2 22.7h4.2c2.1 0 2.9 1.3 2.9 3.3 0 1.3-.4 3.2-3.1 3.2h-1.7v4.5h-2.3v-11zm2.3 4.9h1.3c.7 0 1.2-.7 1.2-1.5 0-.9-.2-1.7-1.3-1.7h-1.2v3.2zM39 33.8h-2.3v-11H41c1.6 0 2.6 1 2.6 2.9 0 1.4-.5 2.5-2 2.7.5.1 2 .2 2 2.2 0 .7 0 2.8.3 3.2h-2.3c-.3-.7-.2-1.4-.2-2.1 0-1.3.1-2.4-1.6-2.4H39v4.5zm0-6.3h1c.9 0 1.2-.9 1.2-1.6 0-1.1-.4-1.4-1.2-1.4h-1v3zM45.1 28.3c0-2.9 0-5.7 3.8-5.7s3.8 2.8 3.8 5.7c0 2.9 0 5.7-3.8 5.7-3.8-.1-3.8-2.9-3.8-5.7zm5.2 0c0-2.8-.2-4-1.5-4s-1.5 1.2-1.5 4 .2 4 1.5 4 1.5-1.2 1.5-4zM53.6 22.7H56l1.7 8 1.9-8H62l-2.9 11h-2.7l-2.8-11zM63 33.8v-11h2.3v11H63zM67.3 22.7h3.8c3 0 3.6 2 3.6 5.4 0 1.7.3 5.6-3.7 5.6h-3.8v-11zm2.3 9.4h1.1c1.4 0 1.7-1.1 1.7-3.8 0-2 0-3.8-1.6-3.8h-1.2v7.6zM76.5 33.8v-11h6v1.7h-3.7v2.7h3.4v1.7h-3.4v3.2h3.8v1.7h-6.1zM86.4 33.8h-2.3v-11h4.3c1.6 0 2.6 1 2.6 2.9 0 1.4-.5 2.5-2 2.7.5.1 2 .2 2 2.2 0 .7 0 2.8.3 3.2H89c-.3-.7-.2-1.4-.2-2.1 0-1.3.1-2.4-1.6-2.4h-.6v4.5zm0-6.3h1c.9 0 1.2-.9 1.2-1.6 0-1.1-.4-1.4-1.2-1.4h-1v3zM28.1 46.6c0-2.9 0-5.7 3.8-5.7 2.4 0 3.3 1.3 3.2 3.7h-2.3c0-1.5-.3-2-.9-2-1.3 0-1.5 1.2-1.5 4s.2 4 1.5 4c1.1 0 1-1.4 1.1-2.2h2.3c0 2.9-1.2 3.9-3.3 3.9-3.9 0-3.9-2.9-3.9-5.7zM36.6 46.6c0-2.9 0-5.7 3.8-5.7s3.8 2.8 3.8 5.7c0 2.9 0 5.7-3.8 5.7s-3.8-2.9-3.8-5.7zm5.3 0c0-2.8-.2-4-1.5-4s-1.5 1.2-1.5 4 .2 4 1.5 4 1.5-1.2 1.5-4zM46 52.1v-11h3.1l2.9 7.6v-7.6h2.2v11h-3l-3-8.1v8.1H46zM56.2 52.1v-11h3.1l2.9 7.6v-7.6h2.2v11h-3l-3-8.1v8.1h-2.2zM66.4 52.1v-11h6v1.7h-3.7v2.7h3.4v1.7h-3.4v3.2h3.8v1.7h-6.1zM73.9 46.6c0-2.9 0-5.7 3.8-5.7 2.4 0 3.3 1.3 3.2 3.7h-2.3c0-1.5-.3-2-.9-2-1.3 0-1.5 1.2-1.5 4s.2 4 1.5 4c1.1 0 1-1.4 1.1-2.2H81c0 2.9-1.2 3.9-3.3 3.9-3.8 0-3.8-2.9-3.8-5.7zM89 41.1v1.8h-2.6v9.2h-2.3v-9.2h-2.6v-1.8H89zM90.1 52.1v-11h2.3v11h-2.3zM94.2 46.6c0-2.9 0-5.7 3.8-5.7s3.8 2.8 3.8 5.7c0 2.9 0 5.7-3.8 5.7s-3.8-2.9-3.8-5.7zm5.3 0c0-2.8-.2-4-1.5-4s-1.5 1.2-1.5 4 .2 4 1.5 4 1.5-1.2 1.5-4zM103.7 52.1v-11h3.1l2.9 7.6v-7.6h2.2v11h-3l-3-8.1v8.1h-2.2zM28.2 59.4h4.2c2.1 0 2.9 1.3 2.9 3.3 0 1.3-.4 3.2-3.1 3.2h-1.7v4.5h-2.3v-11zm2.3 4.8h1.3c.7 0 1.2-.7 1.2-1.5 0-.9-.2-1.7-1.3-1.7h-1.2v3.2zM36.6 64.9c0-2.9 0-5.7 3.8-5.7s3.8 2.8 3.8 5.7c0 2.9 0 5.7-3.8 5.7s-3.8-2.8-3.8-5.7zm5.3 0c0-2.8-.2-4-1.5-4s-1.5 1.2-1.5 4 .2 4 1.5 4 1.5-1.2 1.5-4zM48.3 70.4H46v-11h4.3c1.6 0 2.6 1 2.6 2.9 0 1.4-.5 2.5-2 2.7.5.1 2 .2 2 2.2 0 .7 0 2.8.3 3.2h-2.3c-.3-.7-.2-1.4-.2-2.1 0-1.3.1-2.4-1.6-2.4h-.6v4.5zm0-6.3h1c.9 0 1.2-.9 1.2-1.6 0-1.1-.4-1.4-1.2-1.4h-1v3zM61.1 59.4v1.8h-2.6v9.2h-2.3v-9.2h-2.6v-1.8h7.5zM60.4 70.4l3.1-11h3l3 11H67l-.6-2.4h-3.1l-.6 2.4h-2.3zm4.4-8.9l-1.1 4.8h2.2l-1.1-4.8zM70.6 70.4v-11h2.3v9.2h3.4v1.8h-5.7z"/></g><path fill-rule="evenodd" clip-rule="evenodd" fill="#4E4E4E" d="M91.8 70.5c-1 1.8-1.9 3.4-3 5.2-2.1-5.7-4.2-11.2-6.3-16.9 5.8 2.2 11.3 4.2 16.9 6.3-1.8 1-3.4 2-5.1 2.9 2.4 2.3 4.6 4.6 7 6.9-1 .9-1.8 1.6-2.7 2.5-2.2-2.1-4.4-4.4-6.8-6.9z"/></svg>