<svg id="Layer_1" xmlns="http://www.w3.org/2000/svg" viewBox="0 0 54.2 31.8"><path fill="#1A96CC" d="M16.4.6c-2-.1-4 .2-6 1-7.9 3-11.9 11.9-8.9 19.8s11.9 11.9 19.8 8.9c6.2-2.4 10-8.3 9.9-14.6 0-1.8-.3-3.5-1-5.3C28 4.5 22.4.8 16.4.6"/><path fill="#9683B6" d="M38.9.6c-2-.1-4 .2-6 1-8 3-11.9 11.9-8.9 19.8s11.9 11.9 19.8 8.9c6.2-2.4 10-8.3 9.9-14.6 0-1.8-.3-3.5-1-5.3C50.4 4.5 44.8.8 38.9.6"/><path fill="none" stroke="#FFF" stroke-width="1.1" stroke-miterlimit="10" d="M38.9.6c-2-.1-4 .2-6 1-8 3-11.9 11.9-8.9 19.8s11.9 11.9 19.8 8.9c6.2-2.4 10-8.3 9.9-14.6 0-1.8-.3-3.5-1-5.3C50.4 4.5 44.8.8 38.9.6z"/><path fill="#FFF" d="M38.3 11.6c-1.6 0-2.8-1.2-2.8-2.8 0-1.5 1.3-2.8 2.8-2.8 1.6 0 2.8 1.2 2.8 2.8.1 1.6-1.2 2.8-2.8 2.8M38.3 17.4h3v-2.1l2.3 2.3c1 1 2.4-.3 1.4-1.3l-3.8-3.7c-.3-.3-.6-.5-1.2-.5h-3.4c-.5 0-.9.2-1.2.5l-3.8 3.8c-1 1 .5 2.3 1.4 1.3l2.4-2.3v2.1h2.9zM35.4 18.5l2.2 2.2-1.6 1.6 1.7 1.7c1 1-.4 2.4-1.4 1.4l-2.7-2.7c-.6-.6-.7-1.6-.1-2.2 0-.1 1.9-2 1.9-2M41.3 18.5l-2.2 2.2 1.6 1.6L39 24c-1 1 .4 2.4 1.4 1.4l2.7-2.7c.6-.6.7-1.6.1-2.2 0-.1-1.9-2-1.9-2"/><g><path fill="#502E88" stroke="#FFF" stroke-width="1.1" stroke-miterlimit="10" d="M16.4.6c-2-.1-4 .2-6 1-7.9 3-11.9 11.9-8.9 19.8s11.9 11.9 19.8 8.9c6.2-2.4 10-8.3 9.9-14.6 0-1.8-.3-3.5-1-5.3C28 4.5 22.4.8 16.4.6z"/><path fill="#FFF" d="M15.9 11.6c-1.6 0-2.8-1.2-2.8-2.8 0-1.5 1.3-2.8 2.8-2.8 1.6 0 2.8 1.2 2.8 2.8 0 1.6-1.2 2.8-2.8 2.8M15.9 17.4h3v-2.1l2.3 2.3c1 1 2.4-.3 1.4-1.3l-3.8-3.7c-.3-.3-.6-.5-1.2-.5h-3.4c-.5 0-.9.2-1.2.5l-3.8 3.8c-1 1 .5 2.3 1.4 1.3l2.4-2.3v2.1h2.9zM12.9 18.5l2.2 2.2-1.7 1.6 1.7 1.7c1 1-.4 2.4-1.4 1.4L11 22.7c-.6-.6-.7-1.6-.1-2.2l2-2M18.9 18.5l-2.2 2.2 1.6 1.6-1.7 1.7c-1 1 .4 2.4 1.4 1.4l2.7-2.7c.6-.6.7-1.6.1-2.2 0-.1-1.9-2-1.9-2"/></g></svg>