<svg id="Layer_1" xmlns="http://www.w3.org/2000/svg" viewBox="0 0 50.2 50.2"><path fill="#FFE4AD" d="M26 7.5c-.1.4.1.9.6 1.1h.2c.4 0 .7-.2.8-.6l2.1-6.9c.1-.4-.1-.9-.6-1.1-.4-.1-.9.1-1.1.6l-2 6.9zm15.7 16.1c.1.4.4.6.8.6h.2l6.9-2.1c.4-.1.7-.6.6-1.1-.1-.4-.6-.7-1-.6l-6.9 2.1c-.5.2-.8.7-.6 1.1zm-7.6-7.5c.2.2.4.2.6.2.2 0 .4-.1.6-.2l6.1-6.1c.3-.3.3-.9 0-1.2-.3-.3-.9-.3-1.2 0L34.1 15c-.4.3-.4.8 0 1.1zm-16.3-5.2l1.3 1.3L3.5 42l-.6-.6c-.7-.7-1.7-.7-2.4 0s-.7 1.7 0 2.4l6 6c.7.7 1.7.7 2.4 0s.7-1.7 0-2.4l-.6-.6 3.7-1.9c1.2 2.1 3.4 3.3 5.6 3.3 1 0 1.9-.2 2.8-.7 3.2-1.6 4.6-5.5 3-8.7L38 31.1l1.3 1.3c.7.7 1.7.7 2.4 0s.7-1.7 0-2.4L20.2 8.5c-.7-.7-1.7-.7-2.4 0-.6.7-.6 1.7 0 2.4zm2.7 29.4c.7 1.5 0 3.3-1.5 4.1-1.5.7-3.2.2-4-1.2l5.5-2.9zm6-18.4L7.1 43.2 6 42.1l15.6-25 4.9 4.8z"/></svg>