<svg id="Layer_1" xmlns="http://www.w3.org/2000/svg" viewBox="0 0 74.6 66.1"><circle fill="#8FD4DD" cx="61.3" cy="42" r="7.7"/><path fill="#8FD4DD" d="M68.5 47.8c-1.7 2.1-4.3 3.5-7.2 3.5-2.9 0-5.5-1.4-7.2-3.5-3.6 2.4-6 6.5-6 11.1v7h26.5v-7c0-4.6-2.4-8.7-6.1-11.1z"/><circle fill="#8FD4DD" cx="13.3" cy="42.2" r="7.7"/><path fill="#8FD4DD" d="M20.5 48c-1.7 2.1-4.3 3.5-7.2 3.5S7.7 50.1 6 48c-3.6 2.4-6 6.5-6 11.1v7h26.5v-7c0-4.7-2.4-8.8-6-11.1z"/><circle fill="#8FD4DD" cx="37.3" cy="7.7" r="7.7"/><path fill="#8FD4DD" d="M50.6 24.6c0-4.7-2.4-8.8-6-11.1-1.7 2.1-4.3 3.5-7.2 3.5-2.9 0-5.5-1.4-7.2-3.5-3.6 2.4-6 6.5-6 11.1v7h26.5v-7z"/><path fill="#E4F4F6" d="M27.7 59.6h19.2v2.6H27.7zM44.3 32.7l8.9 5.7c.4-.8.8-1.5 1.4-2.2l-5.5-3.5h-4.8zM20.9 37.7l8.6-5.1h-5.1l-5.1 3c.6.7 1.2 1.4 1.6 2.1z"/></svg>