<svg id="Layer_1" xmlns="http://www.w3.org/2000/svg" viewBox="0 0 68.2 76" preserveAspectRatio="xMinYMin slice"><path fill="#CCC" d="M18.9 75.9l47-13.5c1.6-.5 2.6-2.2 2.1-3.8l-9-31.5L6.1 42.2l9 31.5c.5 1.7 2.2 2.7 3.8 2.2z"/><path fill="#E64A27" d="M53.1 6.3c-.5-1.6-2.2-2.6-3.8-2.1l-47 13.5c-1.6.5-2.6 2.2-2.1 3.8l4.3 15 52.9-15.2-4.3-15z"/><path transform="rotate(74.008 31.192 29.94)" fill="#BE3827" d="M30.1 2.4h2.2v55.1h-2.2z"/><path transform="rotate(74.008 31.797 32.052)" fill="#BE3827" d="M30.7 4.5h2.2v55.1h-2.2z"/><path fill="#DBDBDB" d="M14.1 70.1c.5 1.6 2.2 2.6 3.8 2.1l6.7-1.9-12.5-6.9 2 6.7z"/><path fill="#F7F7F7" d="M5 38.6l7.1 24.8 6.7-1.9c1.6-.5 3.3.5 3.8 2.1l1.9 6.7 40.3-11.5c1.6-.5 2.6-2.2 2.1-3.8l-9-31.5L5 38.6z"/><path fill="#E8E8E8" d="M18.9 61.4l-6.7 1.9 12.5 6.9-1.9-6.7c-.6-1.6-2.3-2.5-3.9-2.1z"/><path transform="rotate(74.008 31.647 31.53)" fill="#E6E6E6" d="M31.1 4h1.1v55.1h-1.1z"/><circle fill="#F4A999" cx="41" cy="11.4" r="3.1"/><circle fill="#F4A999" cx="13" cy="19.5" r="3.1"/><circle fill="#742516" cx="41" cy="11.1" r="2.8"/><path fill="#2E3D51" d="M37.8.1l3.8 13.1c1.1-.3 1.8-1.5 1.5-2.6l-2.6-9C40.2.4 39-.2 37.8.1zM37.8.1c-1.1.3-1.8 1.5-1.5 2.6l2.6 9c.3 1.1 1.5 1.8 2.6 1.5L37.8.1z"/><path opacity=".1" fill="#FFF" d="M37.8.1c-1.1.3-1.8 1.5-1.5 2.6l2.6 9c.3 1.1 1.5 1.8 2.6 1.5L37.8.1z"/><g><circle fill="#742516" cx="12.9" cy="19.2" r="2.8"/></g><g><path fill="#2E3D51" d="M9.8 8.1l3.8 13.1c1.1-.3 1.8-1.5 1.5-2.6l-2.6-9c-.4-1.1-1.6-1.8-2.7-1.5zM9.8 8.1c-1.2.3-1.8 1.5-1.5 2.7l2.6 9c.3 1.1 1.5 1.8 2.6 1.5L9.8 8.1z"/><path opacity=".1" fill="#FFF" d="M9.8 8.1c-1.2.3-1.8 1.5-1.5 2.7l2.6 9c.3 1.1 1.5 1.8 2.6 1.5L9.8 8.1z"/></g><g fill="#2E3D51"><path d="M15.7 55.5c2.2-2.8 4-5.2 4.5-6.8.1-.4.2-.9 0-1.5-.3-1.1-1.2-1-1.7-.9-1.3.4-1.1 1.5-1 1.8l-3.4 1c-.1-.4-.3-1.3.2-2.6.7-1.5 2.7-2.3 3.8-2.6 1.9-.5 3.3-.4 4.4.4.6.4 1 1.1 1.2 1.8.7 2.5-1.2 4.9-3.8 8.3l5.8-1.7.7 2.4-10 2.9-.7-2.5zM25.9 43.5c.7-1.6 2.2-2.3 3.3-2.6 2.3-.7 3.6 0 4.3.5 1.1.7 2.1 1.9 2.8 4.4 1 3.5.5 6.8-3.4 7.9-1.4.3-2.9.3-4.1-.5-1.8-1.1-2.6-3.3-2.9-4.5-.4-1.2-.8-3.4 0-5.2zm6.3 7.8c.5-.2 1-.6 1.1-1.1.3-1.1-.3-3.1-.4-3.4-.2-.6-.6-2-1.1-2.8-.2-.4-.8-1.1-1.9-.8-1 .3-1.7.9-.7 4.6.8 2.6 1.6 3.9 3 3.5zM39.6 41.6c-.7 1-2 2-2.5 2.4l-.8-2.7c1.3-.8 2-1.5 2.9-2.9l2.8-.8 3.5 12.2-3.4 1-2.5-9.2zM50.8 44.8c.2.7 1 1 2 .7 1.9-.5 1.6-2.1 1.1-4.3-.4.9-1 1.6-2.5 2.1-1.6.5-2.6.2-3.4-.2-.9-.5-1.6-1.4-1.9-2.5-.7-2.5.8-4.8 3.9-5.7 3.2-.9 4.7.5 5.4 1.5.8 1 1.4 2.2 1.7 3.5.4 1.4.7 3.3 0 5-.7 1.8-2.2 2.5-3.7 2.9-1.6.4-3.1.5-4.4-.2-.9-.5-1.2-1.3-1.3-1.8l3.1-1zm2.1-6.3c-.2-.8-1-1.8-2.4-1.4-1.3.4-1.7 1.4-1.4 2.4.3.9 1 1.8 2.4 1.4 1.3-.3 1.7-1.3 1.4-2.4z"/></g></svg>