<svg id="Layer_1" xmlns="http://www.w3.org/2000/svg" viewBox="0 0 26.5 26"><path fill="#FFF" d="M13.6 5.6v-.8h-.7v15.4h.7v-.1-.1-.1-.1-.1-.1-.2V5.6z"/><path fill="#FFF" d="M13.2 20.6c-.6 0-1.2-.3-1.7-.7-.5-.4-.9-1-1.3-1.8-.7-1.4-1.2-3.4-1.2-5.6 0-3.3 1-6.1 2.5-7.4.5-.4 1.1-.7 1.7-.7.6 0 1.2.3 1.7.7.5.4.9 1 1.3 1.8.7 1.5 1.2 3.4 1.2 5.6 0 3.3-1 6.1-2.5 7.4-.5.4-1 .7-1.7.7zM11.9 5.7c-.4.4-.8.9-1.1 1.5-.7 1.3-1.1 3.2-1.1 5.3 0 3.1 1 5.8 2.2 6.8.4.4.8.5 1.3.5.4 0 .9-.2 1.3-.5.4-.4.8-.9 1.1-1.5.7-1.3 1.1-3.2 1.1-5.3 0-3.1-1-5.8-2.2-6.8-.4-.4-.8-.5-1.3-.5-.4 0-.8.1-1.3.5z"/><path fill="#FFF" d="M5.2 12.5c0-4.4 3.6-8 8-8s8 3.6 8 8-3.6 8-8 8c-4.4.1-8-3.5-8-8zM8 7.3c-1.3 1.3-2.2 3.2-2.2 5.2s.8 3.9 2.2 5.2c1.3 1.3 3.2 2.2 5.2 2.2s3.9-.8 5.2-2.2c1.3-1.3 2.2-3.2 2.2-5.2s-.8-3.9-2.2-5.2c-1.3-1.3-3.2-2.2-5.2-2.2S9.4 6 8 7.3z"/><path fill="#FFF" d="M13.2 12.9H5.5v-.7h15.4v.6c0 .1-3.4.1-7.7.1zm7.7-.4v-.3.3zm0-.3v.3-.3zM18.8 8.4l.6-.3c-.1-.2-.3-.4-.4-.6-1.3.8-3.4 1.4-5.8 1.4-2.1 0-4-.4-5.3-1.1-.1-.1-.3-.1-.4-.2-.2.2-.3.3-.4.5 1.5.9 3.7 1.5 6.1 1.5 2.2 0 4.2-.4 5.6-1.2zM13.2 15.4c-2.5 0-4.7.6-6.2 1.5.1.2.3.4.4.6.1-.1.3-.2.5-.3 1.3-.7 3.2-1.1 5.3-1.1 2.4 0 4.5.6 5.8 1.4.1-.2.3-.4.4-.6-.2-.1-.4-.2-.6-.4-1.4-.6-3.4-1.1-5.6-1.1z"/><g fill="#FFF"><path d="M26.3 16.2c-.2-.6-.4-1.1-.6-1.4.1-.7.2-1.3.2-2C25.9 5.7 20.2 0 13.2 0 6.2 0 .6 5.7.6 12.8c0 .7.1 1.4.2 2.1-.2.3-.4.8-.6 1.4-.3.8-.1 4.7.3 5.2.7 1 2.5 1.7 3.6 1.9.1.2.4.3.6.2.4 0 .7-.4.6-.7l-.6-7c0-.4-.4-.6-.8-.6-.2 0-.3.1-.4.2h-.2c-.4 0-1-.4-1.2-.9-.1-.6-.2-1.2-.2-1.8 0-6.3 5-10.7 11.3-10.7 6.2 0 11.3 4.3 11.3 10.7 0 .6 0 1.2-.1 1.7-.2.4-.8.8-1.1.8h-.2c-.1-.1-.3-.2-.4-.2-.4 0-.7.2-.8.6l-.6 7c0 .4.2.7.6.7.2 0 .4-.1.6-.2 1.2-.1 3-.9 3.6-1.9.3-.4.5-4.3.2-5.1z"/><path d="M25.7 18.8c-.8-.6-1 0-1 0-.4.7-2.7 4-7.8 5.4-.3-.4-1-.7-1.8-.7-1.1 0-2.1.5-2.1 1.2s.9 1.2 2.1 1.2c1.1 0 2-.5 2.1-1.2 1.7-.4 6.1-2.1 8.5-5.9z"/></g></svg>