<svg id="Layer_1" xmlns="http://www.w3.org/2000/svg" viewBox="0 0 50.7 31.8"><path fill="#A8A29F" d="M35.4.6c-2-.1-4 .2-6 1-7.9 3-11.9 11.9-8.9 19.8s11.9 11.9 19.8 8.9c6.2-2.4 10-8.3 9.9-14.6 0-1.8-.3-3.5-1-5.3C46.9 4.5 41.3.8 35.4.6"/><path fill="none" stroke="#FFF" stroke-width="1.1" stroke-miterlimit="10" d="M35.4.6c-2-.1-4 .2-6 1-7.9 3-11.9 11.9-8.9 19.8s11.9 11.9 19.8 8.9c6.2-2.4 10-8.3 9.9-14.6 0-1.8-.3-3.5-1-5.3C46.9 4.5 41.3.8 35.4.6z"/><path fill="#FFF" d="M39.1 18.9c-.2.4-.3.8-.4 1.2.1-.3.3-.8.6-1.2.1-.2.3-.5.4-.6-.1.2-.1.4-.1.7-.1 1.4.1 4.2.3 6 .1.8-1.4 1.5-2.5 1.4h-.2c-.2-.1-.4-.2-.5-.3l-.1-.1c-.1-.2-.2-.4-.1-.7.2-1.7-.3-5.3-1.5-6.4-.9-.8-2.3-1.6-2.4-3.3 0 0 .4-.1.7 0 .1 0 .3.1.4.2.5 2.2 1.6 2 2.6 3.3.8 1.1 1.2 2.9 1.4 4.2-.2-1.9-.5-4-1.9-5.2-.3-.3-.6-.5-.9-.8-.4-.3-.6-.8-.7-1.2 0-.1-.1-.2-.1-.3.6-1.4 3.9.4 4.6-3 0 0 .6-.5.9-.6.1 0 .2 0 .2.1.3.6.2 1.6.3 2.2.3 1.7-.1 2.5-.6 3.4-.1.4-.3.7-.4 1"/><path fill="#FFF" d="M39 11.1c0 .2-.1.4-.1.5 0 0 0 .1-.1.1-.2.2-.5.4-.8.3 0 .8-.7 1.4-1.5 1.8-.2.1-.5.2-.7.3-.7.2-1.5.3-2 .3-.4 0-.8-.1-1.2-.2-.3-.1-.5-.2-.8-.4-.2-.2-.4-.4-.5-.7l-.3-.6c0-.4-.1-.8-.1-1.1 0-.2-.1-.4-.1-.5 0-.1 0-.1-.1-.2-.1-.5-.4-1-.7-1.4.2.4.3.8.4 1.2V11.3c0-.1-.1-.1-.1-.2-.2-.3-.4-.7-.7-1-.6-.9-1.6-1.6-3.4-2-.2-.1-.4-.1-.5-.3-.7-.8.5-2.6 1.6-2.5h.1c.1 0 .2.1.3.1.2.1.4.2.5.3 1.6 1 2.4 1.4 4.7 2.7.5.3 1 .6 1.4.8.7.3 1.1.5 1.6.7l.6.3c.2.1.4.3.6.5.2.2.4.4.6.7-.1-.2-.1-.3-.2-.5 0-.1-.1-.1-.1-.2-.7-.9-1.8-1.6-3.1-2.3.9-.1 2-.2 3 .1.3.1.7.3.9.5.1.1.2.2.3.4.3.6.5 1.1.5 1.7"/><g><path fill="#6B6662" d="M16.4.6c-2-.1-4 .2-6 1-7.9 3-11.9 11.9-8.9 19.8s11.9 11.9 19.8 8.9c6.2-2.4 10-8.3 9.9-14.6 0-1.8-.3-3.5-1-5.3C28 4.5 22.4.8 16.4.6"/><path fill="none" stroke="#FFF" stroke-width="1.1" stroke-miterlimit="10" d="M16.4.6c-2-.1-4 .2-6 1-7.9 3-11.9 11.9-8.9 19.8s11.9 11.9 19.8 8.9c6.2-2.4 10-8.3 9.9-14.6 0-1.8-.3-3.5-1-5.3C28 4.5 22.4.8 16.4.6z"/><path fill="#FFF" d="M20.2 18.9c-.2.4-.3.8-.4 1.2.1-.3.3-.8.6-1.2.1-.2.3-.5.4-.6-.1.2-.1.4-.1.7-.1 1.4.1 4.2.3 6 .1.8-1.4 1.5-2.5 1.4h-.2c-.2-.1-.4-.2-.5-.3l-.1-.1c-.1-.2-.2-.4-.1-.7.2-1.7-.3-5.3-1.5-6.4-.9-.8-2.3-1.6-2.4-3.3 0 0 .4-.1.7 0 .1 0 .3.1.4.2.5 2.2 1.6 2 2.6 3.3.8 1.1 1.2 2.9 1.4 4.2-.2-1.9-.5-4-1.9-5.2-.3-.3-.6-.5-.9-.8-.4-.3-.6-.8-.7-1.2 0-.1-.1-.2-.1-.3.6-1.4 3.9.4 4.6-3 0 0 .6-.5.9-.6.1 0 .2 0 .2.1.3.6.2 1.6.3 2.2.3 1.7-.1 2.5-.6 3.4-.2.4-.3.7-.4 1"/><path fill="#FFF" d="M20 11.1c0 .2-.1.4-.1.5 0 0 0 .1-.1.1-.2.2-.5.3-.8.3 0 .8-.7 1.4-1.5 1.8-.2.1-.5.2-.7.3-.7.2-1.5.3-2 .3-.4 0-.8-.1-1.2-.2-.3-.1-.5-.2-.8-.4-.2-.2-.4-.4-.5-.7l-.3-.6c0-.4-.1-.8-.1-1.1 0-.2-.1-.4-.1-.5 0-.1 0-.1-.1-.2-.1-.5-.4-1-.7-1.4.2.4.3.8.4 1.2V11.3c0-.1-.1-.1-.1-.2-.2-.3-.4-.7-.7-1-.6-.8-1.7-1.5-3.4-1.9l-.4-.4c-.7-.8.5-2.6 1.6-2.5h.1c.1 0 .2.1.3.1.2.2.4.3.5.4 1.6 1 2.4 1.4 4.7 2.7.5.3 1 .6 1.4.8.7.3 1.1.5 1.6.7l.6.3c.2.1.4.3.6.5.2.2.4.4.6.7-.1-.2-.1-.3-.2-.5 0-.1-.1-.1-.1-.2-.7-.9-1.8-1.6-3.1-2.3.9-.1 2-.2 3 .1.3.1.7.3.9.5.1.1.2.2.3.4.3.5.4 1 .4 1.6"/></g></svg>