<svg id="Layer_1" xmlns="http://www.w3.org/2000/svg" viewBox="0 0 35 37.1"><path fill="#009B94" d="M30.9 6.2c1.7 0 3.1-1.4 3.1-3.1C34 1.4 32.6 0 30.9 0c-1.7 0-3.1 1.4-3.1 3.1 0 1.7 1.4 3.1 3.1 3.1M7.7 0c1.7 0 3.1 1.4 3.1 3.1 0 1.7-1.4 3.1-3.1 3.1-1.7 0-3.1-1.4-3.1-3.1C4.6 1.4 6 0 7.7 0M14.4 20.1h-2.1v-8.2c0-.3-.2-.5-.5-.5s-.5.2-.5.5v12.3H4.1V11.8c0-.3-.2-.5-.5-.5s-.5.2-.5.5V20H1v-9.3c0-1.2.8-2.6 2.6-2.6h2.2v2.6c0 .2-.3.6-.6.8-.4.4-.4.7-.4 1.3v1.5c0 .2.2.4.4.4s.4-.2.4-.4v-1.5c0-.5 0-.5.2-.7 0 0 .2-.1.4-.4l.5.5c.2.1.2.2.2.7v1.5c0 .2.2.4.4.4s.4-.2.4-.4v-1.5c0-.5 0-.9-.5-1.3-.2-.2-.6-.6-.6-.8V8.2H9v2.4c-.2.1-.4.4-.4.7 0 .4.3.8.8.8s.8-.3.8-.8c0-.3-.2-.5-.4-.7V8.2H12c1.8 0 2.6 1.3 2.6 2.6l-.2 9.3zM11.8 7.2H3.6C1.2 7.2 0 9 0 10.8v9.3h.5c0 .9.7 1.5 1.5 1.5.4 0 .8-.2 1-.4v4h.5v10c0 1 .8 1.8 1.8 1.8s1.8-.8 1.8-1.8v-10h1v10c0 1 .8 1.8 1.8 1.8s1.8-.8 1.8-1.8v-10h.5v-4c.3.2.6.4 1 .4.9 0 1.5-.7 1.5-1.5h.5v-9.3c.2-1.8-1-3.6-3.4-3.6M27.8 21.1h2.6c-.3-.4-.5-1-.5-1.5v-8.7h1v8.7c0 .9.7 1.5 1.5 1.5s1.5-.7 1.5-1.5v-9.2c0-1.7-1.4-3.1-3.1-3.1-1.7 0-3.1 1.4-3.1 3.1v8.2h-5.4c-1 0-1.8.8-1.8 1.8v9c.1.9.9 1.5 1.8 1.5h.3v-7.2c0-1.4 1.2-2.6 2.6-2.6h2.6z"/><path fill="#502E88" d="M33.4 22.1h-8.2c-.9 0-1.5.7-1.5 1.5V37H35V23.7c0-.9-.7-1.6-1.6-1.6"/></svg>