<svg id="Layer_1" xmlns="http://www.w3.org/2000/svg" viewBox="0 0 256.1 56.8"><g fill="#3B2C89"><path d="M11.3 26.2c7.5 0 11.3 5.5 11.3 11.8 0 6.4-3.4 12.3-11.3 12.3S0 44.4 0 38c0-6.3 3.8-11.8 11.3-11.8zm0 23.2c4.8 0 5.3-5.3 5.3-11.2 0-7.1-1-11-5.3-11s-5.3 4-5.3 11c0 5.9.5 11.2 5.3 11.2zM23.5 55.9h1.2c1.1 0 1.4-1 1.4-2.7V39.1c0-3.4.1-4.6-1.6-4.6h-.9v-.9h3.1c1.5 0 3.1-.2 4.3-.5v3c1-2.1 3-3 5.3-3 5.2 0 6.9 4.5 6.9 8.7 0 3.9-1.9 8.6-6.8 8.6-2.2 0-4.3-.9-5.1-2.6h-.1v4.6c0 2.7 0 3.5 1.5 3.5h1.1v.9H23.5v-.9zm11.4-7.2c2.7 0 2.7-5.9 2.7-7.5 0-1.6 0-6.5-2.7-6.5-3.4 0-3.7 4.5-3.7 6.7.1 2.1.1 7.3 3.7 7.3zM57 48.8h1.2c1.1 0 1.4-.4 1.4-2.2v-9.9c0-1.8-.4-2.2-1.4-2.2H57v-.9h3.7c1.4 0 3.1-.2 4.2-.5-.3 2.6-.2 5.1-.2 7.5v6.1c0 1.8.4 2.2 1.4 2.2h1.2v.9H57v-1zm5.2-23.2c1.6 0 3 1.2 3 2.7 0 1.5-1.4 2.7-3 2.7s-3-1.2-3-2.7c0-1.4 1.4-2.7 3-2.7zM82 49.8V38.5c0-1.6 0-3.4-2.3-3.4-3.4 0-3.4 3.6-3.4 5.6v6c0 1.8.4 2.2 1.4 2.2h.8v.9h-10v-.9h1.2c1.1 0 1.4-.4 1.4-2.2v-9.9c0-1.8-.4-2.2-1.4-2.2h-1.2v-.9h3.7c1.3 0 2.6-.2 3.8-.5v2.9h.1c1.4-1.9 3.1-2.9 5.8-2.9 2.4 0 4.2.8 4.9 2.9 1.5-2 3-2.9 6-2.9 3.5 0 5.2 1.9 5.2 4.6v9c0 1.8.4 2.2 1.4 2.2h.8v.9h-7.3V38.5c0-1.6 0-3.4-2.3-3.4-3.4 0-3.4 3.6-3.4 5.6v6c0 1.8.4 2.2 1.4 2.2h.8v.9H82zM56 46.7c-.1 1.1-.6 2-1.9 2-2 0-2-1.8-2-3.8V34.5h3.7v-.9h-3.7v-6.2H51c-.8 2.9-3 6-6.6 6.2v.9H47v11.6c0 2.2 1.4 4.2 5.1 4.2 2.9 0 4.3-1.1 4.6-3.7l-.7.1zM119.2 46.6c-.1 1.2-.4 2.3-1.3 2.3-.7 0-1.1-.7-1.1-1.6v-9.7c0-3.8-3.9-4.6-7.3-4.6-2.5 0-7.2.7-7.2 3.7 0 1.5 1.1 2.4 2.7 2.4 1.4 0 2.7-.8 2.7-2.2 0-.9-.8-1.5-.8-1.8 0-.8 1.6-1 2.4-1 1.9 0 2.4 1.2 2.4 2.6v3.4h-1.6c-3.9 0-9 1.4-9 5.6 0 3 2.5 4.5 5.6 4.5 2 0 4.2-.6 5.2-2.2.6 1.5 2.5 2.2 3.9 2.2 3.5 0 4.2-1.8 4.4-3.7l-1 .1zm-7.5-1.3c0 2.8-1.9 3.3-2.8 3.3-1.8 0-2.5-1.5-2.5-3 0-2.9 1.3-4.6 4.2-4.6.3 0 .6 0 1.1.1v4.2z"/></g><g fill="#009B94"><path d="M123 48.8h1.4c1.3 0 1.6-.6 1.6-2.4V31c0-3.2 0-3.5-2-3.5h-1v-.9h9.1v.9h-1.2c-1.7 0-1.7.7-1.7 3.1v6.7h11.4v-6.7c0-2.4 0-3.1-1.7-3.1h-1.2v-.9h9.1v.9h-.9c-2 0-2 .3-2 3.5v15.5c0 1.8.3 2.4 1.6 2.4h1.4v.9h-9.1v-.9h1.1c1.7 0 1.8-.5 1.8-2.8v-7.8h-11.4V46c0 2.4.1 2.8 1.8 2.8h1.1v.9H123v-.9zM150.8 41.7c0 2.8.1 7.6 4.5 7.6 3.2 0 5.2-2.4 5.4-5.2h1.5c-.3 3.8-2.9 6.1-7.2 6.1-5.4 0-7.7-3.7-7.7-8.2 0-4.5 2-9 7.7-9 5.2 0 7.4 4.6 7.4 8.7h-11.6zm8.1-.9c0-2.4-.2-6.8-3.9-6.8-3.7 0-4.2 4.3-4.2 6.8h8.1zM181.8 46.8c-.3 2.3-1.4 3.3-3 3.5-1.6.2-3-.6-3.2-2.2h-.1c-1 1.5-2.7 2.2-4.7 2.2-3.2 0-6-1.3-6-4.4 0-5 5.6-5.9 10.6-5.9v-3c0-1.6-1.2-3-2.9-3-1.2 0-2.6.2-2.9 1.4.4.5.6.9.6 1.4 0 .9-.9 1.6-1.9 1.6-1.4 0-2.1-1-2.1-2.2 0-2.5 3.9-3.2 6.3-3.2 3.7 0 5.9 1.4 5.9 4.2v9.5c0 .9 0 2.4 1.1 2.4s1.3-1.1 1.5-2.3h.8zm-10.1 2.4c2.5 0 3.6-2 3.6-4V41c-4.2 0-7.1.9-7.1 4.8.1 2 1.3 3.4 3.5 3.4zM188.4 46.3c0 2.5.3 2.5 1.7 2.5h1.3v.9h-8.9v-.9h1.2c1.4 0 1.7 0 1.7-2.5V28.9c0-1.7 0-2.6-1.9-2.6h-1.1v-.9h5.9v20.9zM196.7 28.4v5.2h4.4v1.1h-4.4l.1 12.5c0 1.1.3 1.8 1.1 1.9 1.5.1 2.2-1.1 2.4-2.4h.8c-.4 2.9-2.9 3.5-3.8 3.6-3.3.1-3.6-1.8-3.6-4.1V34.7h-3.2v-1.1c3.1-.1 4.6-2.4 5-5.2h1.2z"/><path d="M201.1 48.8h1.2c1.4 0 1.7 0 1.7-2.5V28.9c0-1.7 0-2.6-1.9-2.6H201v-.9h5.9v10.4h.1c1.3-1.8 3.3-2.8 5.4-2.8 5.2 0 5.9 2.3 5.9 4.9v8.3c0 2.5.3 2.5 1.7 2.5h1.2v.9h-8.9v-.9h1.2c1.4 0 1.7 0 1.7-2.5v-7.4c0-2.7-.7-4.5-3.5-4.5-3.3 0-4.9 2.5-4.9 5.2v6.6c0 2.5.3 2.5 1.7 2.5h1.2v.9h-8.9v-.7z"/></g><path fill="#009B94" d="M234.7 9c-7.4 0-13.3 3.2-13.3 7.3 0 1.8 1.6 3.5 4.1 4.7-2.5 1.3-4.1 3.2-4.1 5.2 0 3.5 5.9 6.5 13.3 6.5h1.4l.2 3.5H238c7.4 0 13.3-3.2 13.3-7.3 0-1.8-1.6-3.5-4.1-4.7 2.5-1.3 4.1-3.2 4.1-5.2 0-3.5-5.9-6.5-13.3-6.5h-.2l.2-3.4c-.7-.1-2.7-.1-3.3-.1zm.3 3.9l.3 5.2v.8h-.6c-2.6 0-5.1.4-7.1 1.1-.9-.7-1.4-1.5-1.4-2.4-.1-2.3 3.6-4.4 8.8-4.7zm-8.9 14.7c0-2.4 3.9-4.6 9.4-4.8l.5 9.5c-5.4-.1-9.9-2.2-9.9-4.7zm10.5 4.7l.4-6.1h1c2.6 0 5.1-.4 7.1-1.1.9.7 1.4 1.5 1.4 2.4 0 2.5-4.2 4.8-9.9 4.8zm.6-9.9l.6-9.5c4.9.3 8.7 2.3 8.7 4.7 0 2.4-3.9 4.6-9.3 4.8zM236.4 6.7c1.8 0 3.3-1.5 3.3-3.3 0-1.8-1.5-3.3-3.3-3.3-1.8 0-3.3 1.5-3.3 3.3-.1 1.8 1.4 3.3 3.3 3.3z"/><g><path fill="#009B94" d="M256.1 33.8c0 1.3-1.1 2.4-2.4 2.4-1.3 0-2.4-1.1-2.4-2.4 0-1.3 1.1-2.4 2.4-2.4 1.3 0 2.4 1.1 2.4 2.4zm-4.5 0c0 1.2.9 2.1 2.1 2.1 1.2 0 2.1-.9 2.1-2.1 0-1.2-.9-2.1-2.1-2.1-1.1 0-2.1.9-2.1 2.1zm2.2-1.2c.5 0 .9.2.9.7 0 .3-.2.6-.7.7.3.2.4.3.8 1.2h-.4c-.5-1-.6-1.1-1.2-1.1h-.1v1.1h-.3v-2.5h1zm-.3 1.1c.6 0 .8-.1.8-.5 0-.3-.2-.4-.8-.4h-.5v.9h.5z"/></g></svg>