<svg id="Layer_1" xmlns="http://www.w3.org/2000/svg" viewBox="0 0 112.4 49.7"><path d="M5.8 41.1c-.1-.7-.1-1.4-.1-2.1-.5-.1-1.7-.2-2.2-.2-1.9 0-3.3 1.2-3.3 3.1 0 3.6 4.4 2.8 4.4 5.4 0 1.1-.8 1.7-1.8 1.7-1.4 0-2.1-1.1-2.3-2.4l-.5.1c.1.8.2 1.5.3 2.3.7.4 1.5.7 2.4.7 1.9 0 3.6-1.1 3.6-3.1 0-3.6-4.5-2.8-4.5-5.3 0-1.2.7-1.9 1.8-1.9 1 0 1.7.9 1.8 1.9l.4-.2M13.8 49.5c.9 0 2.6-.1 4-.1 1.3 0 3.1.1 4 .1.1-.8.3-1.6.5-2.4l-.4-.1c-.4 1.7-1.2 1.8-3 1.8-1 0-1.8 0-1.8-1v-3.5h1.8c1 0 1.1.6 1.2 1.5l.4-.1V44v-1.8H20c-.1.8-.3 1.3-1.2 1.3H17v-3.9h2.1c1.6 0 1.8.8 1.8 1.8l.4-.1c0-.7-.1-1.6 0-2.3-1 0-2.6.1-3.8.1-1.3 0-2.8-.1-3.7-.1v.4h.2c.5 0 1.1.1 1.1.9v7.9c0 .8-.6.9-1.1.9h-.2v.4M32.6 39c-.4 0-.9.1-1.3.1-.6 0-1.2-.1-1.7-.1v.4h.2c.7 0 1.4.5 1.4 1.3V47c0 1.2-.3 1.9-1.3 1.9h-.2v.4c.7 0 1.4-.1 2-.1.6 0 1.3.1 1.9.1V49h-.3c-1.2 0-1.4-.4-1.4-1.8V41l7.7 8.6h.6c-.1-.5-.1-1-.1-1.5v-6.8c0-1.8.7-1.9 1.3-1.9h.2V39c-.6 0-1.2.1-1.8.1-.7 0-1.4-.1-2.1-.1v.4h.3c.4 0 1.3.2 1.3 1.4v5.6L32.6 39M53 39.8v8c0 1.2-.4 1.3-1.2 1.3h-.3v.4c.6 0 1.6-.1 2.5-.1.8 0 1.9.1 2.4.1V49h-.3c-.7 0-1.2-.1-1.2-1.3v-8h2.5c1 0 1.1.9 1.1 1.4l.4-.2v-1.2c0-.4.1-.8.2-1.2l-.4-.1c0 .4-.4.5-.8.5h-7.7c-.4 0-.8 0-.9-.4H49c0 .4 0 .9-.1 1.3 0 .4-.1.9-.2 1.3h.4c.2-1.1.3-1.4 1.4-1.4H53M71.1 44.9h-2.8l1.4-4.2 1.4 4.2zm-3.1.9h3.4l.6 1.7c.2.5.3.9.3 1.1 0 .4-.6.4-.9.4h-.2v.4c.8 0 1.5-.1 2.2-.1.7 0 1.4 0 2.1.1V49h-.1c-.5 0-.8-.2-1-.6-.2-.4-.4-1-.6-1.5L71.1 39c0-.1-.1-.3-.1-.4h-.1-.1c-.3.2-.9.5-1.4.6-.1.6-.4 1.3-.6 1.9L66.4 48c-.2.6-.7 1-1.3 1H65v.4c.5 0 1.1-.1 1.6-.1.6 0 1.2 0 1.8.1V49h-.2c-.5 0-1.1-.1-1.1-.5 0-.3.2-.7.3-1.2l.6-1.5M83.4 48.2c0 .6-.5.8-1.1.8H82v.4c.7 0 1.5-.1 2.2-.1.9 0 1.7.1 2.6.1V49h-.3c-.7 0-1.2 0-1.2-1.2v-3.2h1c1 1.7 2 3.3 3.1 4.9.5 0 .9-.1 1.4-.1.5 0 1 .1 1.5.1V49c-.7-.1-1-.3-1.5-.9l-2.6-3.8c1.2-.5 2.1-1.3 2.1-2.6 0-2.1-1.7-2.6-3.6-2.6-.8 0-1.5.1-2.4.1-.9 0-1.8-.1-2.3-.1v.4h.3c.5 0 1.1 0 1.1 1.1v7.6zm1.9-8.6c.2 0 .4-.1.9-.1 1.3 0 2.2.9 2.2 2.2 0 1.8-.8 2.3-2.3 2.3h-.7v-4.4M104.4 44.9h-2.8l1.4-4.2 1.4 4.2zm-3.1.9h3.4l.6 1.7c.2.5.3.9.3 1.1 0 .4-.6.4-.9.4h-.2v.4c.8 0 1.5-.1 2.2-.1.7 0 1.4 0 2.1.1V49h-.1c-.5 0-.8-.2-1-.6-.2-.4-.4-1-.6-1.5l-2.8-7.8c0-.1-.1-.3-.1-.4h-.1-.1c-.3.2-.9.5-1.4.6-.1.6-.4 1.3-.6 1.9L99.7 48c-.2.6-.7 1-1.3 1h-.1v.4c.5 0 1.1-.1 1.6-.1.6 0 1.2 0 1.8.1V49h-.2c-.5 0-1.1-.1-1.1-.5 0-.3.2-.7.3-1.2l.6-1.5"/><g fill="#FFC758"><path d="M64 12.2c-1.4-1.1-3.8-2-6.5-2.4-2-.4-3.4-1-3.8-1.6-.4-.8 1.2-1.5 3.7-1.7 5-.5 10.6.2 15 1.4 3.6.9 6.5 2.3 8 4.2 5.3 6.8-4.6 15-22.7 16.8-12.8 1.3-25.8-1.8-32.2-7.8 15.1 5.4 27.7 3 33 1.2 4.7-1.6 8.9-5 6.9-8.6-.3-.6-.8-1.1-1.4-1.5"/><path d="M45.2 12.4c1 .8 2.7 1.4 4.7 1.8 1.4.3 2.5.7 2.8 1.2.3.6-.9 1.1-2.7 1.2-3.6.3-7.7-.2-11-1-2.6-.6-4.7-1.6-5.8-3-3.9-5 3.3-10.9 16.6-12.3C59.2-.6 68.6 1.6 73.3 6c-11-4-20.2-2.3-24.1-1-3.5 1.2-6.5 3.7-5.1 6.2.3.5.6.8 1.1 1.2"/></g><path d="M110.1 40.8h.3c.3 0 .5-.1.5-.4 0-.2-.1-.4-.5-.4h-.3v.8zm0 1.3h-.4v-2.2c.2 0 .4-.1.6-.1.3 0 .6.1.7.2.1.1.2.2.2.5s-.2.5-.4.5c.2 0 .3.2.4.5.1.3.1.5.1.5h-.4c-.1-.1-.1-.3-.1-.6-.1-.3-.2-.4-.5-.4h-.2v1.1zm.3-2.9c-.9 0-1.6.7-1.6 1.7 0 .9.7 1.7 1.6 1.7.9 0 1.6-.7 1.6-1.7 0-.9-.7-1.7-1.6-1.7zm0-.3c1.1 0 1.9.9 1.9 2s-.9 2-2 2-2-.9-2-2c.2-1.1 1-2 2.1-2"/></svg>