<svg id="Layer_1" xmlns="http://www.w3.org/2000/svg" viewBox="0 0 106.9 54.8"><g fill="#FFF"><path d="M7.8 17.9c5.2 0 7.8 3.8 7.8 8.1 0 4.4-2.4 8.5-7.8 8.5S0 30.4 0 26c0-4.3 2.6-8.1 7.8-8.1zm0 16c3.3 0 3.7-3.7 3.7-7.7 0-4.9-.7-7.6-3.7-7.6s-3.7 2.7-3.7 7.6c0 4 .4 7.7 3.7 7.7zM16.2 38.3h.8c.8 0 .9-.7.9-1.8v-9.8c0-2.4.1-3.2-1.1-3.2h-.6v-.6h2.1c1.1 0 2.1-.2 3-.4v2.1c.7-1.5 2.1-2.1 3.6-2.1 3.6 0 4.8 3.1 4.8 6 0 2.7-1.3 5.9-4.7 5.9-1.5 0-3-.6-3.5-1.8v3.2c0 1.9 0 2.4 1 2.4h.8v.8h-7.1v-.7zm7.9-4.9c1.9 0 1.9-4.1 1.9-5.2 0-1.1 0-4.5-1.9-4.5-2.3 0-2.5 3.1-2.5 4.6 0 1.5 0 5.1 2.5 5.1zM39.4 33.5h.8c.7 0 1-.3 1-1.5v-6.9c0-1.2-.2-1.5-1-1.5h-.8V23H42c1 0 2.1-.1 2.9-.4-.2 1.8-.1 3.5-.1 5.2V32c0 1.2.2 1.5 1 1.5h.8v.6h-7.2v-.6zm3.5-16c1.1 0 2.1.8 2.1 1.9 0 1-.9 1.9-2.1 1.9-1.1 0-2.1-.9-2.1-1.9.1-1.1 1-1.9 2.1-1.9zM56.6 34.1v-7.8c0-1.1 0-2.4-1.6-2.4-2.4 0-2.4 2.5-2.4 3.8V32c0 1.2.2 1.5 1 1.5h.5v.6h-6.9v-.6h.8c.7 0 1-.3 1-1.5v-6.9c0-1.2-.2-1.5-1-1.5h-.8V23h2.6c.9 0 1.8-.2 2.6-.4v2c1-1.3 2.2-2 4-2 1.7 0 2.9.6 3.4 2 1.1-1.4 2.1-2 4.1-2 2.4 0 3.6 1.3 3.6 3.2V32c0 1.2.2 1.5 1 1.5h.5v.6h-5.1v-7.8c0-1.1 0-2.4-1.6-2.4-2.4 0-2.4 2.5-2.4 3.8V32c0 1.2.2 1.5 1 1.5h.5v.6h-4.8zM38.7 32c-.1.8-.4 1.4-1.3 1.4-1.4 0-1.4-1.3-1.4-2.6v-7.2h2.6V23H36v-4.3h-.7c-.5 2-2.1 4.2-4.5 4.3v.6h1.7v8c0 1.5 1 2.9 3.5 2.9 2 0 3-.8 3.2-2.5h-.5zM82.3 31.9c-.1.9-.3 1.6-.9 1.6-.5 0-.7-.5-.7-1.1v-6.7c0-2.6-2.7-3.2-5-3.2-1.7 0-5 .5-5 2.6 0 1 .7 1.7 1.8 1.7 1 0 1.8-.6 1.8-1.5 0-.6-.5-1-.5-1.3 0-.6 1.1-.7 1.7-.7 1.3 0 1.6.8 1.6 1.8v2.3H76c-2.7 0-6.2 1-6.2 3.9 0 2.1 1.7 3.1 3.9 3.1 1.4 0 2.9-.4 3.6-1.5.4 1 1.7 1.5 2.7 1.5 2.4 0 2.9-1.3 3-2.5h-.7zm-5.2-.8c0 1.9-1.3 2.3-1.9 2.3-1.3 0-1.7-1-1.7-2 0-2 .9-3.2 2.9-3.2.2 0 .4 0 .7.1v2.8z"/></g><g fill="#FFF"><path d="M25.3 53.8h1c.9 0 1.1-.4 1.1-1.6V41.4c0-2.2 0-2.4-1.4-2.4h-.6v-.7h6.3v.7h-.8c-1.2 0-1.2.5-1.2 2.1v4.6h7.9v-4.6c0-1.7 0-2.1-1.2-2.1h-.8v-.7h6.3v.7h-.6c-1.4 0-1.4.2-1.4 2.4v10.7c0 1.3.2 1.6 1.1 1.6h.9v.7h-6.3v-.7h.8c1.2 0 1.3-.3 1.3-2v-5.4h-7.9v5.4c0 1.6.1 2 1.3 2h.8v.7h-6.3v-.6zM44.5 48.9c0 2 .1 5.3 3.1 5.3 2.2 0 3.6-1.6 3.7-3.6h1c-.2 2.6-2 4.2-5 4.2-3.7 0-5.3-2.6-5.3-5.7s1.4-6.2 5.3-6.2c3.6 0 5.1 3.2 5.1 6h-7.9zm5.6-.7c0-1.7-.2-4.7-2.7-4.7-2.6 0-2.9 3-2.9 4.7h5.6zM65.9 52.4c-.2 1.6-.9 2.3-2.1 2.4-1.1.1-2.1-.4-2.2-1.5h-.1c-.7 1-1.9 1.5-3.2 1.5-2.2 0-4.1-.9-4.1-3 0-3.5 3.9-4 7.3-4v-2.1c0-1.1-.8-2.1-2-2.1-.9 0-1.8.1-2 1 .3.4.4.6.4 1 0 .6-.7 1.1-1.3 1.1-1 0-1.5-.7-1.5-1.5 0-1.7 2.7-2.2 4.4-2.2 2.5 0 4.1 1 4.1 2.9v6.5c0 .6 0 1.7.7 1.7s.9-.7 1-1.6l.6-.1zM59 54c1.7 0 2.5-1.4 2.5-2.8v-2.8c-2.9 0-4.9.7-4.9 3.3 0 1.4.8 2.3 2.4 2.3zM70.5 52c0 1.8.2 1.8 1.2 1.8h.9v.7h-6.2v-.7h.9c1 0 1.2 0 1.2-1.8V40c0-1.2 0-1.8-1.3-1.8h-.7v-.7h4.1V52zM76.2 39.7v3.6h3.1v.7h-3.1l.1 8.6c0 .8.2 1.3.8 1.3 1 .1 1.5-.8 1.7-1.6h.5c-.3 2-2 2.4-2.6 2.5-2.3 0-2.5-1.2-2.5-2.8v-8H72v-.8c2.2 0 3.2-1.6 3.4-3.6h.8z"/><path d="M79.2 53.8h.9c1 0 1.2 0 1.2-1.8V40c0-1.2 0-1.8-1.3-1.8h-.7v-.7h4.1v7.2h.1c.9-1.2 2.3-1.9 3.7-1.9 3.6 0 4.1 1.6 4.1 3.4V52c0 1.8.2 1.8 1.2 1.8h.9v.7h-6.1v-.7h.9c1 0 1.2 0 1.2-1.8v-5.1c0-1.9-.5-3.1-2.4-3.1-2.3 0-3.4 1.7-3.4 3.6V52c0 1.8.2 1.8 1.2 1.8h.9v.7h-6.1v-.7z"/></g><path fill="#FFF" d="M92.1 6.2c-5.1 0-9.2 2.2-9.2 5 0 1.3 1.1 2.4 2.8 3.2-1.7.9-2.8 2.2-2.8 3.6 0 2.4 4.1 4.5 9.2 4.5h1l.1 2.4H94.4c5.1 0 9.2-2.2 9.2-5 0-1.3-1.1-2.4-2.8-3.2 1.7-.9 2.8-2.2 2.8-3.6 0-2.4-4-4.5-9.2-4.5h-.1l.1-2.3c-.5-.1-1.8-.1-2.3-.1zm.2 2.7l.2 3.6v.6h-.4c-1.8 0-3.5.3-4.9.8-.6-.5-1-1.1-1-1.7 0-1.6 2.5-3.1 6.1-3.3zM86.2 19c0-1.7 2.7-3.2 6.5-3.3l.3 6.6c-3.7 0-6.8-1.5-6.8-3.3zm7.2 3.3l.2-4.2h.7c1.8 0 3.5-.3 4.9-.8.6.5 1 1.1 1 1.7.1 1.7-2.8 3.3-6.8 3.3zm.4-6.8l.4-6.5c3.4.2 6 1.6 6 3.3.1 1.5-2.6 3-6.4 3.2zM93.3 4.6c1.3 0 2.3-1 2.3-2.3 0-1.3-1-2.3-2.3-2.3C92 0 91 1 91 2.3c0 1.3 1 2.3 2.3 2.3z"/><g><path fill="#FFF" d="M106.9 23.3c0 .9-.7 1.7-1.7 1.7-.9 0-1.7-.7-1.7-1.7 0-.9.7-1.7 1.7-1.7.9.1 1.7.8 1.7 1.7zm-3.1 0c0 .8.6 1.4 1.4 1.4.8 0 1.4-.6 1.4-1.4 0-.8-.6-1.4-1.4-1.4-.8 0-1.4.6-1.4 1.4zm1.5-.8c.4 0 .6.2.6.5 0 .2-.1.4-.5.5.2.1.3.2.5.8h-.3c-.3-.7-.4-.8-.8-.8h-.1v.8h-.2v-1.7h.8zm-.2.8c.4 0 .6-.1.6-.3 0-.2-.1-.3-.5-.3h-.3v.6h.2z"/></g></svg>