<svg id="Layer_1" xmlns="http://www.w3.org/2000/svg" viewBox="0 0 307.9 319.1"><linearGradient id="SVGID_1_" gradientUnits="userSpaceOnUse" x1="241.641" y1="210.553" x2="98.761" y2="62.429" gradientTransform="rotate(-12.992 -57.75 353.532)"><stop offset="0" stop-color="#fff" stop-opacity="0"/><stop offset="1"/></linearGradient><path opacity=".1" fill="url(#SVGID_1_)" d="M74.4 21.7l-24.6 1.9L7 27.8S-2.1 47.1 2.3 66c24.5 103.4 95 102.1 95 102.1l73.1 45.7L271.6 90.4 113.3.3 74.4 21.7z"/><linearGradient id="SVGID_2_" gradientUnits="userSpaceOnUse" x1="278.317" y1="329.684" x2="233.761" y2="279.187" gradientTransform="rotate(-12.992 -57.75 353.532)"><stop offset="0" stop-color="#fff" stop-opacity="0"/><stop offset="1"/></linearGradient><path opacity=".1" fill="url(#SVGID_2_)" d="M202.9 159.3l9.4 44.8-1.2 20.6-10.1 16.5-16.5 7.1-30.4 7-33.7-2.9 106.7 66.7 80.8-133.8-98.2-61.4z"/><path opacity=".2" fill="#231F20" d="M197.6 124.2c-12.4 2.9-20.2 15.2-17.3 27.6 2.6 11.3 13.3 18.7 24.6 17.7l8.6 37.4c4.2 18-7.1 36-25.1 40.1l-33 7.6c-18 4.2-36-7.1-40.1-25.1l-13.4-58.2c12-4 21.9-14 28.7-29.1 5.5-12.2 7.1-23.3 7.1-23.8l-1.4-.2c1.5-7.4 3.4-18.6 4-31.7 1-21.5-1.4-52.7-18.1-78.9-1.5-2.4-3.8-3.9-6.7-4.5-9.6-2-24.4 6.1-30.2 9.6-1.2-.7-2.7-.7-3.9.1l-5.8 3.8c-1.7 1.1-2.2 3.4-1.1 5.2 1.1 1.7 3.4 2.3 5.2 1.1l5.8-3.8c1.1-.7 1.7-2 1.7-3.2 5.4-3.2 19.3-10.9 27.6-9.2 2 .4 3.4 1.4 4.4 2.9 16.1 25.3 18.4 55.6 17.5 76.6-.6 13.1-2.4 24.3-3.9 31.5l-1.8-.2c-.1.4-6.1 41.7-33.9 48.1-27.7 6.4-51.3-28-51.6-28.4l-1.5 1c-4.5-5.8-11.1-15.1-17.3-26.6C16.6 93.1 5.3 64.9 8.8 35.1c.2-1.8 1.1-3.3 2.7-4.5 6.6-5.2 22.6-4.4 28.8-3.8.5 1.1 1.6 2 3 2.1l6.9.8c2.1.2 3.9-1.2 4.2-3.3.2-2.1-1.2-3.9-3.3-4.2l-7.1-.8c-1.4-.2-2.8.5-3.6 1.6-6.7-.6-23.6-1.4-31.3 4.6-2.4 1.9-3.7 4.2-4.1 7-3.5 30.8 8 59.9 18.3 78.8 6.3 11.5 12.9 20.8 17.5 26.8l-1.2.8c.3.4 6.6 9.7 16.8 18.3 12.8 10.6 26.1 15.3 38.6 13.6l13.4 58.2c5 21.7 26.7 35.3 48.4 30.3l33-7.6c21.7-5 35.3-26.7 30.3-48.5l-8.7-37.5c10.2-4.2 16.2-15.3 13.6-26.4-2.6-12.3-15-20.1-27.4-17.2z"/><path fill="#E6E7E7" d="M4.7 24.9c-2.4 1.9-3.7 4.2-4.1 7-3.5 30.8 8 59.9 18.3 78.8 11.1 20.5 23.3 33.9 23.4 34l2.7-2.5c-.1-.1-12-13.3-22.9-33.4C12.1 90.4.9 62.1 4.3 32.3c.2-1.8 1.1-3.3 2.7-4.5 8.3-6.5 31.1-3.6 31.3-3.6l.5-3.7c-1-.1-24.6-3.1-34.1 4.4z"/><path fill="#FFF" d="M4.7 24.9c-2.4 1.9-3.7 4.2-4.1 7-3.4 29.5 7 57.3 17 76.3-3.6-8.8-7.8-17.3-9.8-26.5C-4.8 25.4 5 25.4 13.1 23.3c7.7-2 15.4-1.8 23.2-1.8.8 0 1.6.1 2.3.3l.2-1.3c-1-.1-24.6-3.1-34.1 4.4z"/><path fill="#E6E7E7" d="M46.5 19.4l-6.9-.8c-2.1-.2-3.9 1.2-4.2 3.3-.2 2.1 1.2 3.9 3.3 4.2l6.9.8c2.1.2 3.9-1.2 4.2-3.3.2-2.1-1.2-3.9-3.3-4.2z"/><path fill="#FFF" d="M42.8 20l-4.3-.5c-1.3-.2-2.5.8-2.6 2.1-.2 1.3.8 2.5 2.1 2.6l4.3.5c1.3.2 2.5-.8 2.6-2.1.1-1.2-.8-2.4-2.1-2.6z"/><path fill="#E6E7E7" d="M111.1.3C99.2-2.2 79.4 10.8 78.5 11.4l2 3.1c.2-.1 19.4-12.7 29.7-10.5 2 .4 3.4 1.4 4.4 2.9 16.1 25.3 18.4 55.6 17.5 76.6-1 22.9-5.9 39.9-6 40.1l3.5 1c.1-.2 5.1-17.6 6.1-40.9 1-21.5-1.4-52.7-18.1-78.9-1.3-2.3-3.6-3.8-6.5-4.5z"/><path fill="#FFF" d="M117.8 4.8c-1.5-2.4-3.8-3.9-6.7-4.5-11.9-2.5-31.7 10.5-32.6 11.1l1.4 2.1c5.8-8.1 19.8-10.8 28.7-11 3.6-.1 6.4 3 7.3 6.4 15 24.9 17.1 54.1 16.2 74.5-.5 12.4-2.2 23-3.7 30.2.7-1.4 1.2-3 1.5-5 .5-3.8 6.8-28 2.3-59.3-1.1-8-3.8-15.7-6.4-23.3-.5-2-4.8-16.1-8-21.2z"/><path fill="#E6E7E7" d="M77 10l-5.8 3.7c-1.7 1.1-2.3 3.4-1.1 5.2 1.1 1.7 3.4 2.3 5.2 1.1l5.8-3.8c1.7-1.1 2.2-3.4 1.1-5.2-1.2-1.6-3.5-2.1-5.2-1z"/><path fill="#FFF" d="M74.9 12.3l-3.6 2.3c-1.1.7-1.4 2.2-.7 3.2.7 1.1 2.2 1.4 3.2.7l3.6-2.3c1.1-.7 1.4-2.2.7-3.2-.6-1.1-2.1-1.4-3.2-.7z"/><path fill="#F05761" d="M92.6 162.8c-27.7 6.4-51.3-28-51.6-28.4l-2.3 1.5-3.4 2.3c.3.4 6.6 9.7 16.8 18.3 13.9 11.6 28.5 16.1 42 13 13.5-3.1 24.6-13.5 32.1-30.1 5.5-12.2 7.1-23.3 7.1-23.8l-6.9-1c0 .5-6 41.8-33.8 48.2z"/><path fill="#CC4651" d="M122.3 139.1c-21.4 38.6-51.9 27.7-63.9 20.6-3.2-1.9-6.6-3.9-9.8-6.1 1.1 1 2.2 2 3.4 3 13.9 11.6 28.5 16.1 42 13 13.5-3.1 24.6-13.5 32.1-30.1 5.5-12.2 7.1-23.3 7.1-23.8l-4.4-.6c-.2 8.3-2.5 16.7-6.5 24z"/><path fill="#F05761" d="M209.1 204.1c4.2 18-7.1 36-25.1 40.1l-33 7.6c-18 4.2-36-7.1-40.1-25.1L97.4 168l-6.7 1.6 13.5 58.7c5 21.7 26.7 35.3 48.5 30.3l33-7.6c21.7-5 35.3-26.7 30.3-48.4l-9-38.8-6.7 1.6 8.8 38.7z"/><path fill="#CC4651" d="M97.3 168.1l-2.6.6c.9 1 12 47.6 13.1 52.7 1.1 4.9 4.4 15.3 7.5 16.1-2.1-3.2-3.6-6.8-4.5-10.7l-13.5-58.7zM205.7 169.8c3 19.2 16.6 39 1.1 63.3-8.7 13.7-46 19.2-56.4 21.4-8.2 1.7-15.9 2.1-23.9 1.4 7.9 3.7 17 4.8 26 2.7l33-7.6c21.7-5 35.3-26.7 30.3-48.4l-9-38.8-4 .9c1.5 1.1 2.5 2.8 2.9 5.1z"/><ellipse transform="rotate(-102.997 198.351 143.813)" fill="#E6E7E7" cx="198.3" cy="143.8" rx="20.4" ry="20.5"/><path fill="#6E6F72" d="M193.2 121.4c-12.4 2.9-20.2 15.2-17.3 27.6 2.8 12.3 15.3 20 27.7 17.2 12.4-2.9 20.2-15.2 17.3-27.6-2.9-12.3-15.3-20-27.7-17.2zm9.2 39.8c-9.7 2.2-19.3-3.8-21.6-13.4-2.2-9.6 3.8-19.2 13.5-21.5 9.7-2.2 19.3 3.8 21.6 13.4 2.2 9.7-3.9 19.3-13.5 21.5z"/><path fill="#818285" d="M195.3 130.5c-7.8 1.8-12.8 9.3-11.1 16.6 1.7 7.4 9.4 11.9 17.2 10.1s12.8-9.3 11.1-16.6c-1.7-7.4-9.4-11.9-17.2-10.1zm5.5 23.9c-6.3 1.5-12.6-2.1-13.9-8-1.4-5.9 2.7-11.8 9-13.3s12.6 2.1 13.9 8c1.4 5.9-2.7 11.9-9 13.3z"/><path opacity=".1" fill="#010101" d="M181.8 159.1c5.3 5.7 13.5 8.5 21.7 6.6 12.2-2.8 19.8-14.9 17-27-.9-4-2.9-7.5-5.5-10.3-9.3 27-31.7 29.9-33.2 30.7z"/></svg>